Cambay Devanagari-Bold Oblique.ufo
<glyph name="plus" format="1">
  <advance width="464"/>
  <unicode hex="002B"/>
  <outline>
    <contour>
      <point x="414" y="269" type="line"/>
      <point x="414" y="185" type="line"/>
      <point x="273" y="185" type="line"/>
      <point x="273" y="41" type="line"/>
      <point x="191" y="41" type="line"/>
      <point x="191" y="185" type="line"/>
      <point x="50" y="185" type="line"/>
      <point x="50" y="269" type="line"/>
      <point x="191" y="269" type="line"/>
      <point x="191" y="412" type="line"/>
      <point x="273" y="412" type="line"/>
      <point x="273" y="269" type="line"/>
    </contour>
  </outline>
</glyph>
<glyph name="comma" format="1">
  <advance width="239"/>
  <unicode hex="002C"/>
  <outline>
    <contour>
      <point x="106" y="-77"/>
      <point x="160" y="-30"/>
      <point x="171" y="23" type="curve"/>
      <point x="180" y="74"/>
      <point x="160" y="103"/>
      <point x="124" y="103" type="curve" smooth="yes"/>
      <point x="95" y="103"/>
      <point x="68" y="83"/>
      <point x="62" y="53" type="curve" smooth="yes"/>
      <point x="57" y="23"/>
      <point x="73" y="-1"/>
      <point x="95" y="-8" type="curve"/>
      <point x="30" y="-93" type="line"/>
      <point x="61" y="-116" type="line"/>
    </contour>
  </outline>
</glyph>
<glyph name="hyphen" format="1">
  <advance width="339"/>
  <unicode hex="002D"/>
  <outline>
    <contour>
      <point x="30" y="180" type="line"/>
      <point x="276" y="180" type="line"/>
      <point x="289" y="247" type="line"/>
      <point x="43" y="247" type="line"/>
    </contour>
  </outline>
</glyph>
<glyph name="slash" format="1">
  <advance width="446"/>
  <unicode hex="002F"/>
  <outline>
    <contour>
      <point x="416" y="570" type="line"/>
      <point x="88" y="-55" type="line"/>
      <point x="5" y="-55" type="line"/>
      <point x="333" y="570" type="line"/>
    </contour>
  </outline>
</glyph>
<glyph name="zero" format="1">
  <advance width="435"/>
  <unicode hex="0030"/>
  <outline>
    <contour>
      <point x="128" y="68"/>
      <point x="108" y="104"/>
      <point x="106" y="155" type="curve" smooth="yes"/>
      <point x="102" y="240"/>
      <point x="141" y="391"/>
      <point x="253" y="391" type="curve" smooth="yes"/>
      <point x="307" y="391"/>
      <point x="329" y="354"/>
      <point x="329" y="302" type="curve" smooth="yes"/>
      <point x="329" y="214"/>
      <point x="293" y="68"/>
      <point x="180" y="68" type="curve" smooth="yes"/>
    </contour>
    <contour>
      <point x="82" y="469"/>
      <point x="20" y="284"/>
      <point x="20" y="166" type="curve" smooth="yes"/>
      <point x="20" y="67"/>
      <point x="66" y="-8"/>
      <point x="177" y="-8" type="curve" smooth="yes"/>
      <point x="352" y="-8"/>
      <point x="415" y="181"/>
      <point x="415" y="299" type="curve" smooth="yes"/>
      <point x="415" y="397"/>
      <point x="369" y="469"/>
      <point x="259" y="469" type="curve"/>
    </contour>
  </outline>
</glyph>
<glyph name="one" format="1">
  <advance width="291"/>
  <unicode hex="0031"/>
  <outline>
    <contour>
      <point x="174" y="466" type="line"/>
      <point x="70" y="425" type="line"/>
      <point x="86" y="359" type="line"/>
      <point x="167" y="390" type="line"/>
      <point x="105" y="70" type="line"/>
      <point x="24" y="70" type="line"/>
      <point x="10" y="0" type="line"/>
      <point x="267" y="0" type="line"/>
      <point x="281" y="70" type="line"/>
      <point x="191" y="70" type="line"/>
      <point x="268" y="466" type="line"/>
    </contour>
  </outline>
</glyph>
<glyph name="four" format="1">
  <advance width="405"/>
  <unicode hex="0034"/>
  <outline>
    <contour>
      <point x="278" y="466" type="line"/>
      <point x="15" y="159" type="line"/>
      <point x="15" y="101" type="line"/>
      <point x="225" y="101" type="line"/>
      <point x="207" y="-1" type="line"/>
      <point x="288" y="-1" type="line"/>
      <point x="307" y="101" type="line"/>
      <point x="381" y="101" type="line"/>
      <point x="395" y="175" type="line"/>
      <point x="321" y="175" type="line"/>
      <point x="374" y="466" type="line"/>
    </contour>
    <contour>
      <point x="126" y="175" type="line"/>
      <point x="274" y="355" type="line"/>
      <point x="238" y="175" type="line"/>
    </contour>
  </outline>
</glyph>
<glyph name="six" format="1">
  <advance width="389"/>
  <unicode hex="0036"/>
  <outline>
    <contour>
      <point x="117" y="192"/>
      <point x="156" y="210"/>
      <point x="213" y="210" type="curve" smooth="yes"/>
      <point x="264" y="210"/>
      <point x="280" y="187"/>
      <point x="273" y="148" type="curve" smooth="yes"/>
      <point x="262" y="95"/>
      <point x="224" y="67"/>
      <point x="173" y="67" type="curve" smooth="yes"/>
      <point x="119" y="67"/>
      <point x="83" y="107"/>
      <point x="110" y="211" type="curve" smooth="yes"/>
      <point x="111" y="218"/>
      <point x="115" y="221"/>
      <point x="115" y="220" type="curve"/>
      <point x="134" y="321"/>
      <point x="196" y="402"/>
      <point x="363" y="401" type="curve"/>
      <point x="364" y="476" type="line"/>
      <point x="171" y="475"/>
      <point x="59" y="375"/>
      <point x="30" y="218" type="curve" smooth="yes"/>
      <point x="5" y="83"/>
      <point x="38" y="-10"/>
      <point x="165" y="-10" type="curve" smooth="yes"/>
      <point x="269" y="-10"/>
      <point x="336" y="50"/>
      <point x="352" y="135" type="curve" smooth="yes"/>
      <point x="372" y="236"/>
      <point x="307" y="287"/>
      <point x="222" y="287" type="curve" smooth="yes"/>
      <point x="166" y="287"/>
      <point x="125" y="270"/>
      <point x="92" y="249" type="curve"/>
      <point x="82" y="167" type="line"/>
    </contour>
  </outline>
</glyph>
<glyph name="eight" format="1">
  <advance width="405"/>
  <unicode hex="0038"/>
  <outline>
    <contour>
      <point x="280" y="402"/>
      <point x="302" y="387"/>
      <point x="297" y="360" type="curve" smooth="yes"/>
      <point x="288" y="316"/>
      <point x="248" y="294"/>
      <point x="213" y="276" type="curve"/>
      <point x="184" y="294"/>
      <point x="163" y="316"/>
      <point x="169" y="347" type="curve" smooth="yes"/>
      <point x="176" y="380"/>
      <point x="212" y="402"/>
      <point x="248" y="402" type="curve" smooth="yes"/>
    </contour>
    <contour>
      <point x="114" y="62"/>
      <point x="99" y="93"/>
      <point x="105" y="123" type="curve" smooth="yes"/>
      <point x="114" y="169"/>
      <point x="160" y="204"/>
      <point x="212" y="218" type="curve"/>
      <point x="245" y="206"/>
      <point x="289" y="188"/>
      <point x="280" y="140" type="curve" smooth="yes"/>
      <point x="271" y="96"/>
      <point x="233" y="62"/>
      <point x="174" y="62" type="curve" smooth="yes"/>
    </contour>
    <contour>
      <point x="166" y="475"/>
      <point x="106" y="425"/>
      <point x="95" y="367" type="curve"/>
      <point x="83" y="304"/>
      <point x="117" y="272"/>
      <point x="134" y="255" type="curve"/>
      <point x="80" y="222"/>
      <point x="44" y="189"/>
      <point x="32" y="131" type="curve" smooth="yes"/>
      <point x="17" y="54"/>
      <point x="65" y="-10"/>
      <point x="172" y="-10" type="curve" smooth="yes"/>
      <point x="276" y="-10"/>
      <point x="338" y="48"/>
      <point x="353" y="123" type="curve" smooth="yes"/>
      <point x="364" y="182"/>
      <point x="339" y="219"/>
      <point x="294" y="248" type="curve"/>
      <point x="324" y="270"/>
      <point x="363" y="297"/>
      <point x="373" y="353" type="curve"/>
      <point x="387" y="422"/>
      <point x="341" y="475"/>
      <point x="252" y="475" type="curve" smooth="yes"/>
    </contour>
  </outline>
</glyph>
<glyph name="nine" format="1">
  <advance width="409"/>
  <unicode hex="0039"/>
  <outline>
    <contour>
      <point x="280" y="265"/>
      <point x="242" y="246"/>
      <point x="185" y="246" type="curve" smooth="yes"/>
      <point x="134" y="246"/>
      <point x="120" y="279"/>
      <point x="128" y="318" type="curve" smooth="yes"/>
      <point x="138" y="371"/>
      <point x="175" y="398"/>
      <point x="226" y="398" type="curve" smooth="yes"/>
      <point x="280" y="398"/>
      <point x="316" y="359"/>
      <point x="289" y="255" type="curve"/>
      <point x="287" y="248"/>
      <point x="289" y="245"/>
      <point x="289" y="246" type="curve" smooth="yes"/>
      <point x="267" y="135"/>
      <point x="218" y="57"/>
      <point x="26" y="66" type="curve"/>
      <point x="22" y="-10" type="line"/>
      <point x="249" y="-15"/>
      <point x="339" y="74"/>
      <point x="373" y="248" type="curve" smooth="yes"/>
      <point x="400" y="383"/>
      <point x="360" y="476"/>
      <point x="231" y="476" type="curve" smooth="yes"/>
      <point x="127" y="476"/>
      <point x="67" y="416"/>
      <point x="50" y="331" type="curve" smooth="yes"/>
      <point x="31" y="230"/>
      <point x="91" y="169"/>
      <point x="176" y="169" type="curve" smooth="yes"/>
      <point x="232" y="169"/>
      <point x="271" y="181"/>
      <point x="304" y="202" type="curve"/>
      <point x="314" y="286" type="line"/>
    </contour>
  </outline>
</glyph>
<glyph name="semicolon" format="1">
  <advance width="306"/>
  <unicode hex="003B"/>
  <outline>
    <contour>
      <point x="131" y="-77"/>
      <point x="185" y="-28"/>
      <point x="196" y="28" type="curve"/>
      <point x="204" y="71"/>
      <point x="186" y="97"/>
      <point x="150" y="97" type="curve" smooth="yes"/>
      <point x="121" y="97"/>
      <point x="98" y="80"/>
      <point x="92" y="50" type="curve" smooth="yes"/>
      <point x="86" y="20"/>
      <point x="100" y="-1"/>
      <point x="122" y="-8" type="curve"/>
      <point x="57" y="-93" type="line"/>
      <point x="87" y="-116" type="line"/>
    </contour>
    <contour>
      <point x="221" y="217"/>
      <point x="242" y="241"/>
      <point x="242" y="275" type="curve" smooth="yes"/>
      <point x="242" y="303"/>
      <point x="222" y="325"/>
      <point x="194" y="325" type="curve" smooth="yes"/>
      <point x="157" y="325"/>
      <point x="135" y="301"/>
      <point x="135" y="267" type="curve" smooth="yes"/>
      <point x="135" y="238"/>
      <point x="155" y="217"/>
      <point x="182" y="217" type="curve" smooth="yes"/>
    </contour>
  </outline>
</glyph>
<glyph name="at" format="1">
  <advance width="810"/>
  <unicode hex="0040"/>
  <outline>
    <contour>
      <point x="554" y="135" type="line" smooth="yes"/>
      <point x="545" y="87"/>
      <point x="556" y="60"/>
      <point x="587" y="60" type="curve" smooth="yes"/>
      <point x="654" y="60"/>
      <point x="681" y="206"/>
      <point x="681" y="273" type="curve" smooth="yes"/>
      <point x="680" y="399"/>
      <point x="604" y="463"/>
      <point x="466" y="463" type="curve" smooth="yes"/>
      <point x="244" y="463"/>
      <point x="134" y="273"/>
      <point x="134" y="127" type="curve" smooth="yes"/>
      <point x="134" y="-7"/>
      <point x="222" y="-82"/>
      <point x="349" y="-82" type="curve" smooth="yes"/>
      <point x="387" y="-82"/>
      <point x="429" y="-78"/>
      <point x="475" y="-63" type="curve"/>
      <point x="454" y="-139" type="line"/>
      <point x="400" y="-155"/>
      <point x="361" y="-161"/>
      <point x="314" y="-161" type="curve" smooth="yes"/>
      <point x="169" y="-161"/>
      <point x="40" y="-50"/>
      <point x="40" y="121" type="curve" smooth="yes"/>
      <point x="40" y="306"/>
      <point x="179" y="543"/>
      <point x="468" y="543" type="curve" smooth="yes"/>
      <point x="663" y="543"/>
      <point x="772" y="443"/>
      <point x="770" y="288" type="curve" smooth="yes"/>
      <point x="766" y="167"/>
      <point x="729" y="-10"/>
      <point x="567" y="-10" type="curve" smooth="yes"/>
      <point x="526" y="-10"/>
      <point x="496" y="5"/>
      <point x="484" y="42" type="curve"/>
      <point x="448" y="10"/>
      <point x="406" y="-10"/>
      <point x="357" y="-10" type="curve" smooth="yes"/>
      <point x="271" y="-10"/>
      <point x="210" y="50"/>
      <point x="210" y="141" type="curve" smooth="yes"/>
      <point x="210" y="247"/>
      <point x="279" y="381"/>
      <point x="442" y="381" type="curve" smooth="yes"/>
      <point x="482" y="381"/>
      <point x="512" y="371"/>
      <point x="542" y="358" type="curve"/>
      <point x="550" y="377" type="line"/>
      <point x="601" y="377" type="line"/>
    </contour>
    <contour>
      <point x="301" y="224"/>
      <point x="301" y="157" type="curve" smooth="yes"/>
      <point x="300" y="100"/>
      <point x="327" y="66"/>
      <point x="378" y="66" type="curve" smooth="yes"/>
      <point x="412" y="66"/>
      <point x="441" y="76"/>
      <point x="468" y="104" type="curve"/>
      <point x="502" y="296" type="line"/>
      <point x="480" y="307"/>
      <point x="457" y="312"/>
      <point x="428" y="312" type="curve" smooth="yes"/>
      <point x="338" y="312"/>
    </contour>
  </outline>
</glyph>
<glyph name="C" format="1">
  <advance width="560"/>
  <unicode hex="0043"/>
  <outline>
    <contour>
      <point x="447" y="555"/>
      <point x="494" y="544"/>
      <point x="540" y="521" type="curve"/>
      <point x="494" y="449" type="line"/>
      <point x="451" y="464"/>
      <point x="416" y="469"/>
      <point x="371" y="469" type="curve" smooth="yes"/>
      <point x="217" y="469"/>
      <point x="144" y="345"/>
      <point x="144" y="240" type="curve" smooth="yes"/>
      <point x="144" y="144"/>
      <point x="205" y="78"/>
      <point x="304" y="78" type="curve" smooth="yes"/>
      <point x="357" y="78"/>
      <point x="413" y="93"/>
      <point x="456" y="107" type="curve"/>
      <point x="472" y="28" type="line"/>
      <point x="410" y="6"/>
      <point x="356" y="-9"/>
      <point x="281" y="-9" type="curve" smooth="yes"/>
      <point x="126" y="-9"/>
      <point x="40" y="100"/>
      <point x="40" y="223" type="curve" smooth="yes"/>
      <point x="40" y="389"/>
      <point x="143" y="555"/>
      <point x="385" y="555" type="curve" smooth="yes"/>
    </contour>
    <contour>
      <point x="366" y="560" type="move" name="top.cap"/>
    </contour>
  </outline>
</glyph>
<glyph name="D" format="1">
  <advance width="614"/>
  <unicode hex="0044"/>
  <outline>
    <contour>
      <point x="145" y="89" type="line"/>
      <point x="212" y="89" type="line" smooth="yes"/>
      <point x="414" y="89"/>
      <point x="468" y="191"/>
      <point x="468" y="315" type="curve" smooth="yes"/>
      <point x="468" y="405"/>
      <point x="420" y="462"/>
      <point x="305" y="462" type="curve" smooth="yes"/>
      <point x="218" y="462" type="line"/>
    </contour>
    <contour>
      <point x="509" y="550"/>
      <point x="574" y="424"/>
      <point x="574" y="328" type="curve" smooth="yes"/>
      <point x="574" y="101"/>
      <point x="436" y="0"/>
      <point x="157" y="0" type="curve" smooth="yes"/>
      <point x="30" y="0" type="line"/>
      <point x="137" y="550" type="line"/>
      <point x="316" y="550" type="line" smooth="yes"/>
    </contour>
    <contour>
      <point x="294" y="560" type="move" name="top.cap"/>
    </contour>
  </outline>
</glyph>
<glyph name="F" format="1">
  <advance width="503"/>
  <unicode hex="0046"/>
  <outline>
    <contour>
      <point x="403" y="299" type="line"/>
      <point x="386" y="209" type="line"/>
      <point x="169" y="209" type="line"/>
      <point x="128" y="0" type="line"/>
      <point x="30" y="0" type="line"/>
      <point x="137" y="550" type="line"/>
      <point x="483" y="550" type="line"/>
      <point x="466" y="462" type="line"/>
      <point x="218" y="462" type="line"/>
      <point x="186" y="299" type="line"/>
    </contour>
  </outline>
</glyph>
<glyph name="H" format="1">
  <advance width="628"/>
  <unicode hex="0048"/>
  <outline>
    <contour>
      <point x="491" y="0" type="line"/>
      <point x="394" y="0" type="line"/>
      <point x="439" y="230" type="line"/>
      <point x="173" y="230" type="line"/>
      <point x="128" y="0" type="line"/>
      <point x="30" y="0" type="line"/>
      <point x="137" y="550" type="line"/>
      <point x="235" y="550" type="line"/>
      <point x="190" y="319" type="line"/>
      <point x="456" y="319" type="line"/>
      <point x="501" y="550" type="line"/>
      <point x="598" y="550" type="line"/>
    </contour>
  </outline>
</glyph>
<glyph name="J" format="1">
  <advance width="424"/>
  <unicode hex="004A"/>
  <outline>
    <contour>
      <point x="331" y="177" type="line" smooth="yes"/>
      <point x="314" y="89"/>
      <point x="267" y="-7"/>
      <point x="93" y="-7" type="curve" smooth="yes"/>
      <point x="55" y="-7"/>
      <point x="24" y="0"/>
      <point x="0" y="8" type="curve"/>
      <point x="32" y="93" type="line"/>
      <point x="56" y="87"/>
      <point x="80" y="83"/>
      <point x="102" y="83" type="curve" smooth="yes"/>
      <point x="213" y="83"/>
      <point x="230" y="156"/>
      <point x="238" y="196" type="curve" smooth="yes"/>
      <point x="307" y="550" type="line"/>
      <point x="404" y="550" type="line"/>
    </contour>
    <contour>
      <point x="356" y="550" type="move" name="top.cap"/>
    </contour>
  </outline>
</glyph>
<glyph name="N" format="1">
  <advance width="640"/>
  <unicode hex="004E"/>
  <outline>
    <contour>
      <point x="435" y="132" type="line"/>
      <point x="514" y="550" type="line"/>
      <point x="610" y="550" type="line"/>
      <point x="506" y="0" type="line"/>
      <point x="392" y="0" type="line"/>
      <point x="203" y="419" type="line"/>
      <point x="128" y="0" type="line"/>
      <point x="30" y="0" type="line"/>
      <point x="131" y="550" type="line"/>
      <point x="249" y="550" type="line"/>
    </contour>
    <contour>
      <point x="388" y="560" type="move" name="top.cap"/>
    </contour>
    <contour>
      <point x="266" y="0" type="move" name="bottom"/>
    </contour>
  </outline>
</glyph>
<glyph name="O" format="1">
  <advance width="635"/>
  <unicode hex="004F"/>
  <outline>
    <contour>
      <point x="360" y="555" type="curve"/>
      <point x="143" y="555"/>
      <point x="40" y="389"/>
      <point x="40" y="223" type="curve" smooth="yes"/>
      <point x="40" y="106"/>
      <point x="113" y="-10"/>
      <point x="281" y="-10" type="curve"/>
      <point x="492" y="-10"/>
      <point x="595" y="156"/>
      <point x="595" y="322" type="curve" smooth="yes"/>
      <point x="595" y="439"/>
      <point x="512" y="555"/>
    </contour>
    <contour>
      <point x="192" y="78"/>
      <point x="144" y="139"/>
      <point x="144" y="240" type="curve" smooth="yes"/>
      <point x="144" y="337"/>
      <point x="206" y="467"/>
      <point x="337" y="467" type="curve"/>
      <point x="433" y="466"/>
      <point x="491" y="399"/>
      <point x="491" y="305" type="curve" smooth="yes"/>
      <point x="491" y="208"/>
      <point x="429" y="78"/>
      <point x="298" y="78" type="curve"/>
    </contour>
    <contour>
      <point x="361" y="560" type="move" name="top.cap"/>
    </contour>
  </outline>
</glyph>
<glyph name="Q" format="1">
  <advance width="635"/>
  <unicode hex="0051"/>
  <outline>
    <contour>
      <point x="293" y="194" type="line"/>
      <point x="489" y="-29" type="line"/>
      <point x="560" y="29" type="line"/>
      <point x="362" y="253" type="line"/>
    </contour>
    <component base="O"/>
  </outline>
</glyph>
<glyph name="R" format="1">
  <advance width="557"/>
  <unicode hex="0052"/>
  <outline>
    <contour>
      <point x="402" y="550"/>
      <point x="517" y="521"/>
      <point x="517" y="404" type="curve" smooth="yes"/>
      <point x="517" y="324"/>
      <point x="468" y="262"/>
      <point x="358" y="227" type="curve"/>
      <point x="453" y="0" type="line"/>
      <point x="345" y="0" type="line"/>
      <point x="261" y="214" type="line"/>
      <point x="246" y="213"/>
      <point x="223" y="213"/>
      <point x="208" y="213" type="curve" smooth="yes"/>
      <point x="193" y="213"/>
      <point x="182" y="214"/>
      <point x="167" y="215" type="curve"/>
      <point x="128" y="0" type="line"/>
      <point x="30" y="0" type="line"/>
      <point x="137" y="550" type="line"/>
      <point x="320" y="550" type="line" smooth="yes"/>
    </contour>
    <contour>
      <point x="207" y="301"/>
      <point x="222" y="301"/>
      <point x="240" y="301" type="curve" smooth="yes"/>
      <point x="357" y="301"/>
      <point x="413" y="326"/>
      <point x="413" y="395" type="curve" smooth="yes"/>
      <point x="413" y="451"/>
      <point x="353" y="462"/>
      <point x="287" y="462" type="curve" smooth="yes"/>
      <point x="218" y="462" type="line"/>
      <point x="190" y="304" type="line"/>
    </contour>
    <contour>
      <point x="311" y="560" type="move" name="top.cap"/>
    </contour>
    <contour>
      <point x="240" y="-10" type="move" name="bottom"/>
    </contour>
  </outline>
</glyph>
<glyph name="S" format="1">
  <advance width="539"/>
  <unicode hex="0053"/>
  <outline>
    <contour>
      <point x="250" y="463"/>
      <point x="212" y="424"/>
      <point x="212" y="390" type="curve" smooth="yes"/>
      <point x="211" y="307"/>
      <point x="464" y="316"/>
      <point x="466" y="171" type="curve" smooth="yes"/>
      <point x="466" y="102"/>
      <point x="424" y="-9"/>
      <point x="212" y="-9" type="curve" smooth="yes"/>
      <point x="139" y="-9"/>
      <point x="77" y="8"/>
      <point x="20" y="34" type="curve"/>
      <point x="68" y="121" type="line"/>
      <point x="147" y="88"/>
      <point x="192" y="85"/>
      <point x="227" y="85" type="curve" smooth="yes"/>
      <point x="314" y="85"/>
      <point x="368" y="125"/>
      <point x="360" y="159" type="curve" smooth="yes"/>
      <point x="358" y="244"/>
      <point x="108" y="227"/>
      <point x="108" y="374" type="curve" smooth="yes"/>
      <point x="108" y="463"/>
      <point x="180" y="555"/>
      <point x="354" y="555" type="curve" smooth="yes"/>
      <point x="432" y="555"/>
      <point x="486" y="531"/>
      <point x="514" y="518" type="curve"/>
      <point x="463" y="432" type="line"/>
      <point x="423" y="449"/>
      <point x="382" y="463"/>
      <point x="329" y="463" type="curve" smooth="yes"/>
    </contour>
    <contour>
      <point x="350" y="560" type="move" name="top.cap"/>
    </contour>
    <contour>
      <point x="201" y="-10" type="move" name="bottom"/>
    </contour>
  </outline>
</glyph>
<glyph name="V" format="1">
  <advance width="547"/>
  <unicode hex="0056"/>
  <outline>
    <contour>
      <point x="240" y="105" type="line"/>
      <point x="464" y="550" type="line"/>
      <point x="567" y="550" type="line"/>
      <point x="287" y="0" type="line"/>
      <point x="164" y="0" type="line"/>
      <point x="72" y="550" type="line"/>
      <point x="172" y="550" type="line"/>
    </contour>
  </outline>
</glyph>
<glyph name="W" format="1">
  <advance width="862"/>
  <unicode hex="0057"/>
  <outline>
    <contour>
      <point x="206" y="128" type="line"/>
      <point x="409" y="550" type="line"/>
      <point x="523" y="550" type="line"/>
      <point x="559" y="128" type="line"/>
      <point x="779" y="550" type="line"/>
      <point x="882" y="550" type="line"/>
      <point x="593" y="0" type="line"/>
      <point x="481" y="0" type="line"/>
      <point x="446" y="423" type="line"/>
      <point x="233" y="0" type="line"/>
      <point x="132" y="0" type="line"/>
      <point x="72" y="550" type="line"/>
      <point x="169" y="550" type="line"/>
    </contour>
  </outline>
</glyph>
<glyph name="Y" format="1">
  <advance width="518"/>
  <unicode hex="0059"/>
  <outline>
    <contour>
      <point x="255" y="337" type="line"/>
      <point x="445" y="550" type="line"/>
      <point x="553" y="550" type="line"/>
      <point x="287" y="242" type="line"/>
      <point x="241" y="0" type="line"/>
      <point x="143" y="0" type="line"/>
      <point x="190" y="249" type="line"/>
      <point x="55" y="550" type="line"/>
      <point x="155" y="550" type="line"/>
    </contour>
    <contour>
      <point x="288" y="560" type="move" name="top.cap"/>
    </contour>
  </outline>
</glyph>
<glyph name="bracketleft" format="1">
  <advance width="443"/>
  <unicode hex="005B"/>
  <outline>
    <contour>
      <point x="256" y="-79" type="line"/>
      <point x="149" y="-79" type="line"/>
      <point x="268" y="536" type="line"/>
      <point x="375" y="536" type="line"/>
      <point x="390" y="611" type="line"/>
      <point x="202" y="611" type="line"/>
      <point x="53" y="-154" type="line"/>
      <point x="241" y="-154" type="line"/>
    </contour>
  </outline>
</glyph>
<glyph name="backslash" format="1">
  <advance width="192"/>
  <unicode hex="005C"/>
  <outline>
    <contour>
      <point x="187" y="-55" type="line"/>
      <point x="114" y="-55" type="line"/>
      <point x="32" y="570" type="line"/>
      <point x="104" y="570" type="line"/>
    </contour>
  </outline>
</glyph>
<glyph name="bracketright" format="1">
  <advance width="443"/>
  <unicode hex="005D"/>
  <outline>
    <contour>
      <point x="241" y="-154" type="line"/>
      <point x="390" y="611" type="line"/>
      <point x="202" y="611" type="line"/>
      <point x="187" y="536" type="line"/>
      <point x="294" y="536" type="line"/>
      <point x="175" y="-79" type="line"/>
      <point x="68" y="-79" type="line"/>
      <point x="53" y="-154" type="line"/>
    </contour>
  </outline>
</glyph>
<glyph name="asciicircum" format="1">
  <advance width="434"/>
  <unicode hex="005E"/>
  <outline>
    <contour>
      <point x="394" y="410" type="line"/>
      <point x="332" y="360" type="line"/>
      <point x="235" y="485" type="line"/>
      <point x="89" y="362" type="line"/>
      <point x="40" y="421" type="line"/>
      <point x="249" y="598" type="line"/>
    </contour>
  </outline>
</glyph>
<glyph name="grave" format="1">
  <advance width="244"/>
  <unicode hex="0060"/>
  <outline>
    <contour>
      <point x="210" y="463" type="line"/>
      <point x="160" y="418" type="line"/>
      <point x="-2" y="570" type="line"/>
      <point x="64" y="630" type="line"/>
    </contour>
    <contour>
      <point x="78" y="384" type="move" name="_top"/>
    </contour>
  </outline>
</glyph>
<glyph name="d" format="1">
  <advance width="473"/>
  <unicode hex="0064"/>
  <outline>
    <contour>
      <point x="374" y="0" type="line"/>
      <point x="304" y="0" type="line"/>
      <point x="300" y="23" type="line"/>
      <point x="275" y="7"/>
      <point x="237" y="-9"/>
      <point x="188" y="-9" type="curve" smooth="yes"/>
      <point x="92" y="-9"/>
      <point x="30" y="68"/>
      <point x="30" y="157" type="curve" smooth="yes"/>
      <point x="30" y="277"/>
      <point x="111" y="390"/>
      <point x="258" y="390" type="curve" smooth="yes"/>
      <point x="289" y="390"/>
      <point x="328" y="384"/>
      <point x="353" y="375" type="curve"/>
      <point x="385" y="550" type="line"/>
      <point x="478" y="550" type="line"/>
    </contour>
    <contour>
      <point x="168" y="315"/>
      <point x="132" y="233"/>
      <point x="132" y="161" type="curve" smooth="yes"/>
      <point x="132" y="86"/>
      <point x="174" y="66"/>
      <point x="230" y="66" type="curve" smooth="yes"/>
      <point x="255" y="66"/>
      <point x="283" y="72"/>
      <point x="302" y="83" type="curve"/>
      <point x="341" y="301" type="line"/>
      <point x="318" y="312"/>
      <point x="290" y="315"/>
      <point x="265" y="315" type="curve" smooth="yes"/>
    </contour>
  </outline>
</glyph>
<glyph name="h" format="1">
  <advance width="483"/>
  <unicode hex="0068"/>
  <outline>
    <contour>
      <point x="262" y="309"/>
      <point x="230" y="305"/>
      <point x="186" y="289" type="curve"/>
      <point x="133" y="0" type="line"/>
      <point x="37" y="0" type="line"/>
      <point x="144" y="550" type="line"/>
      <point x="240" y="550" type="line"/>
      <point x="206" y="363" type="line"/>
      <point x="237" y="375"/>
      <point x="274" y="389"/>
      <point x="320" y="389" type="curve" smooth="yes"/>
      <point x="449" y="389"/>
      <point x="446" y="293"/>
      <point x="430" y="211" type="curve" smooth="yes"/>
      <point x="389" y="0" type="line"/>
      <point x="293" y="0" type="line"/>
      <point x="337" y="228" type="line" smooth="yes"/>
      <point x="345" y="265"/>
      <point x="341" y="309"/>
      <point x="279" y="309" type="curve" smooth="yes"/>
    </contour>
  </outline>
</glyph>
<glyph name="p" format="1">
  <advance width="476"/>
  <unicode hex="0070"/>
  <outline>
    <contour>
      <point x="209" y="372"/>
      <point x="247" y="390"/>
      <point x="306" y="390" type="curve" smooth="yes"/>
      <point x="369" y="390"/>
      <point x="446" y="338"/>
      <point x="446" y="227" type="curve" smooth="yes"/>
      <point x="446" y="129"/>
      <point x="393" y="-9"/>
      <point x="212" y="-9" type="curve" smooth="yes"/>
      <point x="181" y="-9"/>
      <point x="151" y="-2"/>
      <point x="126" y="10" type="curve"/>
      <point x="86" y="-206" type="line"/>
      <point x="-10" y="-206" type="line"/>
      <point x="105" y="384" type="line"/>
      <point x="173" y="384" type="line"/>
      <point x="180" y="357" type="line"/>
    </contour>
    <contour>
      <point x="234" y="314"/>
      <point x="211" y="312"/>
      <point x="184" y="301" type="curve"/>
      <point x="146" y="87" type="line"/>
      <point x="161" y="76"/>
      <point x="180" y="66"/>
      <point x="211" y="66" type="curve" smooth="yes"/>
      <point x="310" y="66"/>
      <point x="347" y="135"/>
      <point x="347" y="220" type="curve" smooth="yes"/>
      <point x="347" y="290"/>
      <point x="310" y="314"/>
      <point x="255" y="314" type="curve" smooth="yes"/>
    </contour>
  </outline>
</glyph>
<glyph name="r" format="1">
  <advance width="356"/>
  <unicode hex="0072"/>
  <outline>
    <contour>
      <point x="218" y="375"/>
      <point x="261" y="390"/>
      <point x="304" y="390" type="curve" smooth="yes"/>
      <point x="327" y="390"/>
      <point x="348" y="386"/>
      <point x="368" y="376" type="curve"/>
      <point x="326" y="278" type="line"/>
      <point x="319" y="275" type="line"/>
      <point x="282" y="299"/>
      <point x="227" y="314"/>
      <point x="180" y="297" type="curve"/>
      <point x="124" y="0" type="line"/>
      <point x="30" y="0" type="line"/>
      <point x="105" y="384" type="line"/>
      <point x="174" y="384" type="line"/>
      <point x="182" y="354" type="line"/>
    </contour>
    <contour>
      <point x="252" y="383" type="move" name="top"/>
    </contour>
    <contour>
      <point x="76" y="0" type="move" name="bottom"/>
    </contour>
  </outline>
</glyph>
<glyph name="s" format="1">
  <advance width="407"/>
  <unicode hex="0073"/>
  <outline>
    <contour>
      <point x="98" y="83"/>
      <point x="137" y="70"/>
      <point x="168" y="70" type="curve" smooth="yes"/>
      <point x="241" y="70"/>
      <point x="258" y="89"/>
      <point x="258" y="107" type="curve" smooth="yes"/>
      <point x="258" y="155"/>
      <point x="73" y="166"/>
      <point x="73" y="278" type="curve" smooth="yes"/>
      <point x="73" y="321"/>
      <point x="88" y="390"/>
      <point x="255" y="390" type="curve"/>
      <point x="299" y="390"/>
      <point x="356" y="374"/>
      <point x="382" y="362" type="curve"/>
      <point x="341" y="293" type="line"/>
      <point x="318" y="300"/>
      <point x="282" y="312"/>
      <point x="241" y="312" type="curve" smooth="yes"/>
      <point x="172" y="312"/>
      <point x="166" y="299"/>
      <point x="166" y="282" type="curve" smooth="yes"/>
      <point x="166" y="227"/>
      <point x="349" y="219"/>
      <point x="349" y="112" type="curve" smooth="yes"/>
      <point x="349" y="71"/>
      <point x="331" y="-9"/>
      <point x="181" y="-9" type="curve" smooth="yes"/>
      <point x="112" y="-9"/>
      <point x="65" y="8"/>
      <point x="20" y="29" type="curve"/>
      <point x="57" y="99" type="line"/>
    </contour>
    <contour>
      <point x="254" y="384" type="move" name="top"/>
    </contour>
    <contour>
      <point x="187" y="0" type="move" name="bottom"/>
    </contour>
  </outline>
</glyph>
<glyph name="y" format="1">
  <advance width="444"/>
  <unicode hex="0079"/>
  <outline>
    <contour>
      <point x="189" y="89" type="line"/>
      <point x="354" y="384" type="line"/>
      <point x="454" y="384" type="line"/>
      <point x="104" y="-206" type="line"/>
      <point x="12" y="-206" type="line"/>
      <point x="126" y="-11" type="line"/>
      <point x="40" y="384" type="line"/>
      <point x="131" y="384" type="line"/>
    </contour>
    <contour>
      <point x="229" y="384" type="move" name="top"/>
    </contour>
  </outline>
</glyph>
<glyph name="z" format="1">
  <advance width="415"/>
  <unicode hex="007A"/>
  <outline>
    <contour>
      <point x="390" y="333" type="line"/>
      <point x="171" y="81" type="line"/>
      <point x="349" y="81" type="line"/>
      <point x="333" y="0" type="line"/>
      <point x="30" y="0" type="line"/>
      <point x="30" y="49" type="line"/>
      <point x="247" y="300" type="line"/>
      <point x="77" y="300" type="line"/>
      <point x="94" y="384" type="line"/>
      <point x="390" y="384" type="line"/>
    </contour>
    <contour>
      <point x="238" y="384" type="move" name="top"/>
    </contour>
  </outline>
</glyph>
<glyph name="braceright" format="1">
  <advance width="380"/>
  <unicode hex="007D"/>
  <outline>
    <contour>
      <point x="298" y="262"/>
      <point x="272" y="289"/>
      <point x="282" y="343" type="curve" smooth="yes"/>
      <point x="295" y="411" type="line"/>
      <point x="318" y="530"/>
      <point x="247" y="590"/>
      <point x="170" y="600" type="curve"/>
      <point x="139" y="522" type="line"/>
      <point x="199" y="508"/>
      <point x="234" y="501"/>
      <point x="215" y="403" type="curve" smooth="yes"/>
      <point x="202" y="337" type="line" smooth="yes"/>
      <point x="190" y="275"/>
      <point x="226" y="236"/>
      <point x="251" y="217" type="curve"/>
      <point x="214" y="194"/>
      <point x="167" y="157"/>
      <point x="155" y="95" type="curve" smooth="yes"/>
      <point x="143" y="29" type="line" smooth="yes"/>
      <point x="123" y="-69"/>
      <point x="78" y="-80"/>
      <point x="15" y="-94" type="curve"/>
      <point x="25" y="-174" type="line"/>
      <point x="106" y="-164"/>
      <point x="192" y="-119"/>
      <point x="215" y="0" type="curve" smooth="yes"/>
      <point x="230" y="77" type="line" smooth="yes"/>
      <point x="240" y="131"/>
      <point x="285" y="164"/>
      <point x="345" y="172" type="curve"/>
      <point x="355" y="254" type="line"/>
    </contour>
  </outline>
</glyph>
<glyph name="exclamdown" format="1">
  <advance width="297"/>
  <unicode hex="00A1"/>
  <outline>
    <contour>
      <point x="117" y="-67" type="line"/>
      <point x="182" y="336" type="line"/>
      <point x="116" y="336" type="line"/>
      <point x="30" y="-67" type="line"/>
    </contour>
    <contour>
      <point x="147" y="483"/>
      <point x="125" y="465"/>
      <point x="121" y="441" type="curve" smooth="yes"/>
      <point x="115" y="409"/>
      <point x="134" y="385"/>
      <point x="164" y="385" type="curve" smooth="yes"/>
      <point x="190" y="385"/>
      <point x="211" y="403"/>
      <point x="216" y="427" type="curve" smooth="yes"/>
      <point x="222" y="459"/>
      <point x="203" y="483"/>
      <point x="173" y="483" type="curve" smooth="yes"/>
    </contour>
  </outline>
</glyph>
<glyph name="cent" format="1">
  <advance width="421"/>
  <unicode hex="00A2"/>
  <outline>
    <contour>
      <point x="126" y="285"/>
      <point x="126" y="219" type="curve" smooth="yes"/>
      <point x="126" y="162"/>
      <point x="159" y="126"/>
      <point x="222" y="126" type="curve" smooth="yes"/>
      <point x="261" y="126"/>
      <point x="294" y="137"/>
      <point x="328" y="148" type="curve"/>
      <point x="341" y="76" type="line"/>
      <point x="303" y="64"/>
      <point x="252" y="50"/>
      <point x="197" y="50" type="curve" smooth="yes"/>
      <point x="88" y="50"/>
      <point x="29" y="125"/>
      <point x="29" y="216" type="curve" smooth="yes"/>
      <point x="29" y="313"/>
      <point x="100" y="440"/>
      <point x="267" y="440" type="curve" smooth="yes"/>
      <point x="334" y="440"/>
      <point x="366" y="421"/>
      <point x="400" y="402" type="curve"/>
      <point x="359" y="341" type="line"/>
      <point x="330" y="352"/>
      <point x="301" y="365"/>
      <point x="258" y="365" type="curve" smooth="yes"/>
      <point x="162" y="365"/>
    </contour>
    <contour>
      <point x="318" y="530" type="line"/>
      <point x="295" y="413" type="line"/>
      <point x="215" y="413" type="line"/>
      <point x="238" y="530" type="line"/>
    </contour>
    <contour>
      <point x="229" y="70" type="line"/>
      <point x="206" y="-47" type="line"/>
      <point x="126" y="-47" type="line"/>
      <point x="149" y="70" type="line"/>
    </contour>
  </outline>
</glyph>
<glyph name="sterling" format="1">
  <advance width="500"/>
  <unicode hex="00A3"/>
  <outline>
    <contour>
      <point x="112" y="75" type="line"/>
      <point x="134" y="189" type="line"/>
      <point x="66" y="189" type="line"/>
      <point x="81" y="265" type="line"/>
      <point x="149" y="265" type="line"/>
      <point x="179" y="414"/>
      <point x="232" y="477"/>
      <point x="358" y="477" type="curve" smooth="yes"/>
      <point x="394" y="477"/>
      <point x="432" y="468"/>
      <point x="460" y="458" type="curve"/>
      <point x="422" y="386" type="line"/>
      <point x="399" y="391"/>
      <point x="369" y="397"/>
      <point x="344" y="397" type="curve" smooth="yes"/>
      <point x="275" y="397"/>
      <point x="257" y="367"/>
      <point x="235" y="265" type="curve"/>
      <point x="396" y="265" type="line"/>
      <point x="381" y="189" type="line"/>
      <point x="220" y="189" type="line"/>
      <point x="198" y="75" type="line"/>
      <point x="381" y="75" type="line"/>
      <point x="366" y="0" type="line"/>
      <point x="20" y="0" type="line"/>
      <point x="35" y="75" type="line"/>
    </contour>
  </outline>
</glyph>
<glyph name="currency" format="1">
  <advance width="490"/>
  <unicode hex="00A4"/>
  <outline>
    <contour>
      <point x="217" y="271"/>
      <point x="190" y="246"/>
      <point x="186" y="213" type="curve" smooth="yes"/>
      <point x="180" y="173"/>
      <point x="206" y="144"/>
      <point x="242" y="146" type="curve" smooth="yes"/>
      <point x="273" y="148"/>
      <point x="303" y="174"/>
      <point x="307" y="206" type="curve" smooth="yes"/>
      <point x="313" y="247"/>
      <point x="285" y="275"/>
      <point x="250" y="273" type="curve" smooth="yes"/>
    </contour>
    <contour>
      <point x="96" y="154"/>
      <point x="94" y="184"/>
      <point x="96" y="204" type="curve" smooth="yes"/>
      <point x="98" y="229"/>
      <point x="111" y="257"/>
      <point x="125" y="279" type="curve"/>
      <point x="62" y="346" type="line"/>
      <point x="127" y="409" type="line"/>
      <point x="189" y="341" type="line"/>
      <point x="211" y="350"/>
      <point x="231" y="357"/>
      <point x="256" y="359" type="curve" smooth="yes"/>
      <point x="288" y="360"/>
      <point x="307" y="354"/>
      <point x="326" y="345" type="curve"/>
      <point x="398" y="412" type="line"/>
      <point x="457" y="344" type="line"/>
      <point x="385" y="279" type="line"/>
      <point x="394" y="255"/>
      <point x="396" y="225"/>
      <point x="394" y="205" type="curve" smooth="yes"/>
      <point x="392" y="180"/>
      <point x="379" y="152"/>
      <point x="366" y="131" type="curve"/>
      <point x="429" y="63" type="line"/>
      <point x="363" y="0" type="line"/>
      <point x="301" y="69" type="line"/>
      <point x="280" y="59"/>
      <point x="259" y="52"/>
      <point x="234" y="51" type="curve" smooth="yes"/>
      <point x="202" y="49"/>
      <point x="184" y="55"/>
      <point x="164" y="65" type="curve"/>
      <point x="92" y="-2" type="line"/>
      <point x="33" y="65" type="line"/>
      <point x="105" y="131" type="line"/>
    </contour>
  </outline>
</glyph>
<glyph name="section" format="1">
  <advance width="498"/>
  <unicode hex="00A7"/>
  <outline>
    <contour>
      <point x="128" y="83"/>
      <point x="167" y="70"/>
      <point x="198" y="70" type="curve" smooth="yes"/>
      <point x="271" y="70"/>
      <point x="288" y="89"/>
      <point x="288" y="107" type="curve" smooth="yes"/>
      <point x="288" y="155"/>
      <point x="103" y="166"/>
      <point x="103" y="278" type="curve" smooth="yes"/>
      <point x="103" y="321"/>
      <point x="121" y="373"/>
      <point x="288" y="373" type="curve"/>
      <point x="281" y="319" type="line"/>
      <point x="232" y="316"/>
      <point x="196" y="299"/>
      <point x="196" y="282" type="curve" smooth="yes"/>
      <point x="196" y="227"/>
      <point x="379" y="219"/>
      <point x="379" y="112" type="curve" smooth="yes"/>
      <point x="379" y="71"/>
      <point x="361" y="-9"/>
      <point x="211" y="-9" type="curve" smooth="yes"/>
      <point x="142" y="-9"/>
      <point x="95" y="8"/>
      <point x="50" y="29" type="curve"/>
      <point x="87" y="99" type="line"/>
    </contour>
    <contour>
      <point x="244" y="220" type="line"/>
      <point x="317" y="230"/>
      <point x="324" y="249"/>
      <point x="324" y="267" type="curve" smooth="yes"/>
      <point x="324" y="315"/>
      <point x="139" y="326"/>
      <point x="139" y="438" type="curve" smooth="yes"/>
      <point x="139" y="481"/>
      <point x="154" y="550"/>
      <point x="321" y="550" type="curve"/>
      <point x="365" y="550"/>
      <point x="422" y="534"/>
      <point x="448" y="522" type="curve"/>
      <point x="407" y="453" type="line"/>
      <point x="384" y="460"/>
      <point x="348" y="472"/>
      <point x="307" y="472" type="curve" smooth="yes"/>
      <point x="238" y="472"/>
      <point x="232" y="459"/>
      <point x="232" y="442" type="curve" smooth="yes"/>
      <point x="232" y="387"/>
      <point x="415" y="379"/>
      <point x="415" y="272" type="curve" smooth="yes"/>
      <point x="415" y="231"/>
      <point x="387" y="161"/>
      <point x="237" y="161" type="curve"/>
    </contour>
  </outline>
</glyph>
<glyph name="dieresis" format="1">
  <advance width="264"/>
  <unicode hex="00A8"/>
  <outline>
    <contour>
      <point x="64" y="445"/>
      <point x="86" y="464"/>
      <point x="91" y="488" type="curve" smooth="yes"/>
      <point x="97" y="519"/>
      <point x="77" y="544"/>
      <point x="48" y="544" type="curve" smooth="yes"/>
      <point x="22" y="544"/>
      <point x="-1" y="525"/>
      <point x="-5" y="502" type="curve" smooth="yes"/>
      <point x="-12" y="470"/>
      <point x="9" y="445"/>
      <point x="39" y="445" type="curve" smooth="yes"/>
    </contour>
    <contour>
      <point x="221" y="445"/>
      <point x="243" y="464"/>
      <point x="248" y="488" type="curve" smooth="yes"/>
      <point x="254" y="519"/>
      <point x="234" y="544"/>
      <point x="205" y="544" type="curve" smooth="yes"/>
      <point x="179" y="544"/>
      <point x="156" y="525"/>
      <point x="152" y="502" type="curve" smooth="yes"/>
      <point x="145" y="470"/>
      <point x="166" y="445"/>
      <point x="196" y="445" type="curve" smooth="yes"/>
    </contour>
    <contour>
      <point x="112" y="384" type="move" name="_top"/>
    </contour>
  </outline>
</glyph>
<glyph name="ordfeminine" format="1">
  <advance width="280"/>
  <unicode hex="00AA"/>
  <outline>
    <contour>
      <point x="239" y="554"/>
      <point x="257" y="517"/>
      <point x="247" y="459" type="curve" smooth="yes"/>
      <point x="222" y="308" type="line"/>
      <point x="180" y="308" type="line"/>
      <point x="174" y="326" type="line"/>
      <point x="153" y="314"/>
      <point x="129" y="304"/>
      <point x="98" y="304" type="curve" smooth="yes"/>
      <point x="56" y="304"/>
      <point x="30" y="330"/>
      <point x="30" y="363" type="curve" smooth="yes"/>
      <point x="30" y="397"/>
      <point x="47" y="452"/>
      <point x="147" y="452" type="curve" smooth="yes"/>
      <point x="189" y="452" type="line"/>
      <point x="197" y="492"/>
      <point x="187" y="509"/>
      <point x="140" y="509" type="curve" smooth="yes"/>
      <point x="119" y="509"/>
      <point x="93" y="504"/>
      <point x="74" y="500" type="curve"/>
      <point x="74" y="540" type="line"/>
      <point x="93" y="545"/>
      <point x="126" y="554"/>
      <point x="160" y="554" type="curve" smooth="yes"/>
    </contour>
    <contour>
      <point x="139" y="414" type="line"/>
      <point x="100" y="413"/>
      <point x="89" y="396"/>
      <point x="89" y="378" type="curve" smooth="yes"/>
      <point x="89" y="361"/>
      <point x="105" y="348"/>
      <point x="129" y="348" type="curve" smooth="yes"/>
      <point x="142" y="348"/>
      <point x="160" y="350"/>
      <point x="175" y="361" type="curve"/>
      <point x="184" y="414" type="line"/>
    </contour>
  </outline>
</glyph>
<glyph name="logicalnot" format="1">
  <advance width="485"/>
  <unicode hex="00AC"/>
  <outline>
    <contour>
      <point x="45" y="248" type="line"/>
      <point x="45" y="169" type="line"/>
      <point x="356" y="169" type="line"/>
      <point x="356" y="56" type="line"/>
      <point x="440" y="56" type="line"/>
      <point x="440" y="248" type="line"/>
    </contour>
  </outline>
</glyph>
<glyph name="registered" format="1">
  <advance width="600"/>
  <unicode hex="00AE"/>
  <outline>
    <contour>
      <point x="322" y="416"/>
      <point x="309" y="397"/>
      <point x="279" y="383" type="curve"/>
      <point x="324" y="300" type="line"/>
      <point x="273" y="300" type="line"/>
      <point x="236" y="374" type="line"/>
      <point x="199" y="374" type="line"/>
      <point x="199" y="300" type="line"/>
      <point x="153" y="300" type="line"/>
      <point x="153" y="516" type="line"/>
      <point x="248" y="516" type="line" smooth="yes"/>
      <point x="292" y="516"/>
      <point x="322" y="491"/>
      <point x="322" y="448" type="curve" smooth="yes"/>
    </contour>
    <contour>
      <point x="451" y="344"/>
      <point x="426" y="287"/>
      <point x="389" y="252" type="curve" smooth="yes"/>
      <point x="352" y="216"/>
      <point x="293" y="194"/>
      <point x="236" y="194" type="curve" smooth="yes"/>
      <point x="177" y="194"/>
      <point x="118" y="216"/>
      <point x="82" y="252" type="curve" smooth="yes"/>
      <point x="45" y="287"/>
      <point x="20" y="344"/>
      <point x="20" y="405" type="curve" smooth="yes"/>
      <point x="20" y="465"/>
      <point x="45" y="522"/>
      <point x="82" y="558" type="curve" smooth="yes"/>
      <point x="118" y="593"/>
      <point x="177" y="615"/>
      <point x="236" y="615" type="curve" smooth="yes"/>
      <point x="293" y="615"/>
      <point x="351" y="594"/>
      <point x="388" y="559" type="curve" smooth="yes"/>
      <point x="425" y="523"/>
      <point x="451" y="465"/>
      <point x="451" y="405" type="curve" smooth="yes"/>
    </contour>
    <contour>
      <point x="279" y="467"/>
      <point x="266" y="475"/>
      <point x="241" y="475" type="curve" smooth="yes"/>
      <point x="199" y="475" type="line"/>
      <point x="199" y="415" type="line"/>
      <point x="211" y="415" type="line"/>
      <point x="231" y="415" type="line" smooth="yes"/>
      <point x="254" y="415"/>
      <point x="279" y="419"/>
      <point x="279" y="447" type="curve" smooth="yes"/>
    </contour>
    <contour>
      <point x="397" y="454"/>
      <point x="380" y="494"/>
      <point x="352" y="522" type="curve" smooth="yes"/>
      <point x="324" y="549"/>
      <point x="284" y="563"/>
      <point x="236" y="563" type="curve" smooth="yes"/>
      <point x="188" y="563"/>
      <point x="148" y="549"/>
      <point x="120" y="522" type="curve" smooth="yes"/>
      <point x="92" y="494"/>
      <point x="75" y="454"/>
      <point x="75" y="405" type="curve" smooth="yes"/>
      <point x="75" y="304"/>
      <point x="140" y="245"/>
      <point x="236" y="245" type="curve" smooth="yes"/>
      <point x="332" y="245"/>
      <point x="397" y="304"/>
      <point x="397" y="405" type="curve" smooth="yes"/>
    </contour>
  </outline>
</glyph>
<glyph name="plusminus" format="1">
  <advance width="444"/>
  <unicode hex="00B1"/>
  <outline>
    <contour>
      <point x="394" y="76" type="line"/>
      <point x="394" y="0" type="line"/>
      <point x="50" y="0" type="line"/>
      <point x="50" y="76" type="line"/>
    </contour>
    <contour>
      <point x="394" y="315" type="line"/>
      <point x="394" y="237" type="line"/>
      <point x="263" y="237" type="line"/>
      <point x="263" y="111" type="line"/>
      <point x="181" y="111" type="line"/>
      <point x="181" y="237" type="line"/>
      <point x="50" y="237" type="line"/>
      <point x="50" y="315" type="line"/>
      <point x="181" y="315" type="line"/>
      <point x="181" y="445" type="line"/>
      <point x="263" y="445" type="line"/>
      <point x="263" y="315" type="line"/>
    </contour>
  </outline>
</glyph>
<glyph name="twosuperior" format="1">
  <advance width="284"/>
  <unicode hex="00B2"/>
  <outline>
    <contour>
      <point x="96" y="578"/>
      <point x="124" y="591"/>
      <point x="171" y="591" type="curve" smooth="yes"/>
      <point x="232" y="591"/>
      <point x="264" y="545"/>
      <point x="264" y="500" type="curve" smooth="yes"/>
      <point x="264" y="450"/>
      <point x="228" y="399"/>
      <point x="149" y="333" type="curve"/>
      <point x="249" y="333" type="line"/>
      <point x="237" y="276" type="line"/>
      <point x="30" y="276" type="line"/>
      <point x="30" y="315" type="line"/>
      <point x="89" y="358"/>
      <point x="195" y="424"/>
      <point x="195" y="490" type="curve" smooth="yes"/>
      <point x="195" y="514"/>
      <point x="180" y="526"/>
      <point x="151" y="526" type="curve" smooth="yes"/>
      <point x="124" y="526"/>
      <point x="99" y="514"/>
      <point x="80" y="505" type="curve"/>
      <point x="72" y="567" type="line"/>
    </contour>
  </outline>
</glyph>
<glyph name="paragraph" format="1">
  <advance width="557"/>
  <unicode hex="00B6"/>
  <outline>
    <contour>
      <point x="494" y="586" type="line"/>
      <point x="380" y="0" type="line"/>
      <point x="289" y="0" type="line"/>
      <point x="385" y="508" type="line"/>
      <point x="322" y="508" type="line"/>
      <point x="226" y="0" type="line"/>
      <point x="133" y="0" type="line"/>
      <point x="177" y="246" type="line"/>
      <point x="71" y="249"/>
      <point x="8" y="308"/>
      <point x="27" y="404" type="curve" smooth="yes"/>
      <point x="54" y="541"/>
      <point x="156" y="586"/>
      <point x="272" y="586" type="curve" smooth="yes"/>
    </contour>
  </outline>
</glyph>
<glyph name="periodcentered" format="1">
  <advance width="229"/>
  <unicode hex="00B7"/>
  <outline>
    <contour>
      <point x="139" y="225"/>
      <point x="167" y="249"/>
      <point x="172" y="278" type="curve" smooth="yes"/>
      <point x="180" y="315"/>
      <point x="156" y="344"/>
      <point x="121" y="344" type="curve" smooth="yes"/>
      <point x="90" y="344"/>
      <point x="62" y="321"/>
      <point x="56" y="292" type="curve" smooth="yes"/>
      <point x="49" y="255"/>
      <point x="73" y="225"/>
      <point x="108" y="225" type="curve" smooth="yes"/>
    </contour>
  </outline>
</glyph>
<glyph name="onesuperior" format="1">
  <advance width="200"/>
  <unicode hex="00B9"/>
  <outline>
    <contour>
      <point x="115" y="275" type="line"/>
      <point x="45" y="275" type="line"/>
      <point x="89" y="513" type="line"/>
      <point x="29" y="497" type="line"/>
      <point x="15" y="553" type="line"/>
      <point x="123" y="586" type="line"/>
      <point x="175" y="586" type="line"/>
    </contour>
  </outline>
</glyph>
<glyph name="onequarter" format="1">
  <advance width="620"/>
  <unicode hex="00BC"/>
  <outline>
    <contour>
      <point x="526" y="123" type="line"/>
      <point x="580" y="123" type="line"/>
      <point x="568" y="63" type="line"/>
      <point x="514" y="63" type="line"/>
      <point x="502" y="0" type="line"/>
      <point x="437" y="0" type="line"/>
      <point x="449" y="63" type="line"/>
      <point x="313" y="63" type="line"/>
      <point x="313" y="117" type="line"/>
      <point x="486" y="309" type="line"/>
      <point x="562" y="309" type="line"/>
    </contour>
    <contour>
      <point x="480" y="219" type="line"/>
      <point x="395" y="123" type="line"/>
      <point x="459" y="123" type="line"/>
    </contour>
    <contour>
      <point x="568" y="550" type="line"/>
      <point x="114" y="0" type="line"/>
      <point x="25" y="0" type="line"/>
      <point x="482" y="550" type="line"/>
    </contour>
    <contour>
      <point x="157" y="239" type="line"/>
      <point x="87" y="239" type="line"/>
      <point x="131" y="477" type="line"/>
      <point x="71" y="461" type="line"/>
      <point x="57" y="517" type="line"/>
      <point x="165" y="550" type="line"/>
      <point x="217" y="550" type="line"/>
    </contour>
  </outline>
</glyph>
<glyph name="threequarters" format="1">
  <advance width="679"/>
  <unicode hex="00BE"/>
  <outline>
    <contour>
      <point x="585" y="123" type="line"/>
      <point x="639" y="123" type="line"/>
      <point x="627" y="63" type="line"/>
      <point x="573" y="63" type="line"/>
      <point x="561" y="0" type="line"/>
      <point x="496" y="0" type="line"/>
      <point x="508" y="63" type="line"/>
      <point x="372" y="63" type="line"/>
      <point x="372" y="117" type="line"/>
      <point x="545" y="309" type="line"/>
      <point x="621" y="309" type="line"/>
    </contour>
    <contour>
      <point x="539" y="219" type="line"/>
      <point x="454" y="123" type="line"/>
      <point x="518" y="123" type="line"/>
    </contour>
    <contour>
      <point x="627" y="550" type="line"/>
      <point x="173" y="0" type="line"/>
      <point x="84" y="0" type="line"/>
      <point x="541" y="550" type="line"/>
    </contour>
    <contour>
      <point x="145" y="420" type="line" smooth="yes"/>
      <point x="188" y="420"/>
      <point x="200" y="432"/>
      <point x="200" y="457" type="curve" smooth="yes"/>
      <point x="200" y="474"/>
      <point x="186" y="482"/>
      <point x="167" y="482" type="curve" smooth="yes"/>
      <point x="146" y="482"/>
      <point x="118" y="474"/>
      <point x="92" y="462" type="curve"/>
      <point x="82" y="525" type="line"/>
      <point x="114" y="540"/>
      <point x="146" y="550"/>
      <point x="176" y="550" type="curve" smooth="yes"/>
      <point x="228" y="550"/>
      <point x="268" y="526"/>
      <point x="268" y="477" type="curve" smooth="yes"/>
      <point x="268" y="436"/>
      <point x="250" y="414"/>
      <point x="217" y="390" type="curve"/>
      <point x="235" y="379"/>
      <point x="251" y="348"/>
      <point x="251" y="322" type="curve" smooth="yes"/>
      <point x="251" y="274"/>
      <point x="223" y="228"/>
      <point x="126" y="228" type="curve" smooth="yes"/>
      <point x="89" y="228"/>
      <point x="47" y="243"/>
      <point x="25" y="252" type="curve"/>
      <point x="60" y="311" type="line"/>
      <point x="71" y="306"/>
      <point x="101" y="294"/>
      <point x="133" y="294" type="curve" smooth="yes"/>
      <point x="171" y="294"/>
      <point x="182" y="306"/>
      <point x="182" y="329" type="curve" smooth="yes"/>
      <point x="182" y="350"/>
      <point x="161" y="358"/>
      <point x="129" y="358" type="curve" smooth="yes"/>
      <point x="107" y="358" type="line"/>
      <point x="119" y="420" type="line"/>
    </contour>
  </outline>
</glyph>
<glyph name="questiondown" format="1">
  <advance width="421"/>
  <unicode hex="00BF"/>
  <outline>
    <contour>
      <point x="30" y="106"/>
      <point x="85" y="145"/>
      <point x="130" y="181" type="curve" smooth="yes"/>
      <point x="172" y="214"/>
      <point x="219" y="236"/>
      <point x="233" y="309" type="curve" smooth="yes"/>
      <point x="237" y="328" type="line"/>
      <point x="329" y="328" type="line"/>
      <point x="326" y="315" type="line" smooth="yes"/>
      <point x="306" y="210"/>
      <point x="241" y="168"/>
      <point x="192" y="132" type="curve" smooth="yes"/>
      <point x="152" y="102"/>
      <point x="126" y="72"/>
      <point x="125" y="43" type="curve" smooth="yes"/>
      <point x="126" y="13"/>
      <point x="148" y="-14"/>
      <point x="208" y="-14" type="curve" smooth="yes"/>
      <point x="251" y="-14"/>
      <point x="294" y="0"/>
      <point x="333" y="19" type="curve"/>
      <point x="345" y="-62" type="line"/>
      <point x="285" y="-87"/>
      <point x="247" y="-98"/>
      <point x="188" y="-98" type="curve" smooth="yes"/>
      <point x="108" y="-98"/>
      <point x="30" y="-64"/>
      <point x="30" y="36" type="curve" smooth="yes"/>
    </contour>
    <contour>
      <point x="273" y="482"/>
      <point x="248" y="461"/>
      <point x="243" y="434" type="curve" smooth="yes"/>
      <point x="236" y="399"/>
      <point x="258" y="372"/>
      <point x="291" y="372" type="curve" smooth="yes"/>
      <point x="320" y="372"/>
      <point x="345" y="393"/>
      <point x="350" y="420" type="curve" smooth="yes"/>
      <point x="357" y="455"/>
      <point x="335" y="482"/>
      <point x="302" y="482" type="curve" smooth="yes"/>
    </contour>
  </outline>
</glyph>
<glyph name="Eth" format="1">
  <advance width="622"/>
  <unicode hex="00D0"/>
  <outline>
    <contour>
      <point x="30" y="236" type="line"/>
      <point x="47" y="325" type="line"/>
      <point x="367" y="325" type="line"/>
      <point x="350" y="236" type="line"/>
    </contour>
    <component base="D" xOffset="8"/>
  </outline>
</glyph>
<glyph name="Oslash" format="1">
  <advance width="679"/>
  <unicode hex="00D8"/>
  <outline>
    <contour>
      <point x="637" y="574" type="line"/>
      <point x="-12" y="56" type="line"/>
      <point x="40" y="-16" type="line"/>
      <point x="691" y="506" type="line"/>
    </contour>
    <component base="O" xOffset="23"/>
  </outline>
</glyph>
<glyph name="ae" format="1">
  <advance width="653"/>
  <unicode hex="00E6"/>
  <outline>
    <contour>
      <point x="429" y="390"/>
      <point x="388" y="374"/>
      <point x="355" y="348" type="curve"/>
      <point x="335" y="374"/>
      <point x="308" y="390"/>
      <point x="244" y="390" type="curve" smooth="yes"/>
      <point x="192" y="390"/>
      <point x="127" y="373"/>
      <point x="98" y="364" type="curve"/>
      <point x="95" y="300" type="line"/>
      <point x="126" y="308"/>
      <point x="176" y="318"/>
      <point x="211" y="318" type="curve" smooth="yes"/>
      <point x="284" y="318"/>
      <point x="300" y="294"/>
      <point x="288" y="229" type="curve"/>
      <point x="215" y="229" type="line" smooth="yes"/>
      <point x="75" y="229"/>
      <point x="29" y="159"/>
      <point x="29" y="87" type="curve" smooth="yes"/>
      <point x="29" y="37"/>
      <point x="69" y="-9"/>
      <point x="142" y="-9" type="curve" smooth="yes"/>
      <point x="211" y="-9"/>
      <point x="278" y="19"/>
      <point x="314" y="43" type="curve"/>
      <point x="339" y="11"/>
      <point x="364" y="-10"/>
      <point x="424" y="-10" type="curve" smooth="yes"/>
      <point x="478" y="-10"/>
      <point x="527" y="1"/>
      <point x="568" y="14" type="curve"/>
      <point x="568" y="77" type="line"/>
      <point x="539" y="70"/>
      <point x="505" y="66"/>
      <point x="462" y="66" type="curve" smooth="yes"/>
      <point x="392" y="66"/>
      <point x="357" y="87"/>
      <point x="365" y="156" type="curve"/>
      <point x="611" y="153" type="line"/>
      <point x="619" y="193" type="line" smooth="yes"/>
      <point x="642" y="314"/>
      <point x="589" y="390"/>
      <point x="477" y="390" type="curve" smooth="yes"/>
    </contour>
    <contour>
      <point x="372" y="217" type="line"/>
      <point x="388" y="281"/>
      <point x="423" y="315"/>
      <point x="464" y="315" type="curve" smooth="yes"/>
      <point x="513" y="315"/>
      <point x="546" y="281"/>
      <point x="533" y="217" type="curve"/>
    </contour>
    <contour>
      <point x="145" y="63"/>
      <point x="126" y="80"/>
      <point x="126" y="108" type="curve" smooth="yes"/>
      <point x="126" y="140"/>
      <point x="146" y="167"/>
      <point x="208" y="167" type="curve" smooth="yes"/>
      <point x="280" y="167" type="line"/>
      <point x="279" y="164" type="line"/>
      <point x="267" y="81" type="line"/>
      <point x="242" y="70"/>
      <point x="223" y="63"/>
      <point x="182" y="63" type="curve" smooth="yes"/>
    </contour>
  </outline>
</glyph>
<glyph name="thorn" format="1">
  <advance width="475"/>
  <unicode hex="00FE"/>
  <outline>
    <contour>
      <point x="198" y="368" type="line"/>
      <point x="228" y="383"/>
      <point x="246" y="390"/>
      <point x="293" y="390" type="curve" smooth="yes"/>
      <point x="387" y="390"/>
      <point x="445" y="320"/>
      <point x="445" y="231" type="curve" smooth="yes"/>
      <point x="445" y="129"/>
      <point x="390" y="-9"/>
      <point x="211" y="-9" type="curve" smooth="yes"/>
      <point x="178" y="-9"/>
      <point x="149" y="-2"/>
      <point x="124" y="10" type="curve"/>
      <point x="84" y="-206" type="line"/>
      <point x="-10" y="-206" type="line"/>
      <point x="136" y="550" type="line"/>
      <point x="231" y="550" type="line"/>
    </contour>
    <contour>
      <point x="144" y="83" type="line"/>
      <point x="162" y="73"/>
      <point x="179" y="66"/>
      <point x="209" y="66" type="curve" smooth="yes"/>
      <point x="301" y="66"/>
      <point x="346" y="136"/>
      <point x="346" y="214" type="curve" smooth="yes"/>
      <point x="346" y="278"/>
      <point x="304" y="317"/>
      <point x="252" y="317" type="curve" smooth="yes"/>
      <point x="223" y="317"/>
      <point x="201" y="312"/>
      <point x="181" y="300" type="curve"/>
    </contour>
  </outline>
</glyph>
<glyph name="Aogonek" format="1">
  <advance width="536"/>
  <unicode hex="0104"/>
  <outline>
    <contour>
      <point x="323" y="-137"/>
      <point x="311" y="-116"/>
      <point x="318" y="-84" type="curve" smooth="yes"/>
      <point x="323" y="-57"/>
      <point x="351" y="-39"/>
      <point x="486" y="0" type="curve"/>
      <point x="382" y="550" type="line"/>
      <point x="286" y="550" type="line"/>
      <point x="-25" y="0" type="line"/>
      <point x="77" y="0" type="line"/>
      <point x="157" y="145" type="line"/>
      <point x="363" y="145" type="line"/>
      <point x="387" y="21" type="line"/>
      <point x="289" y="-16"/>
      <point x="232" y="-43"/>
      <point x="219" y="-106" type="curve" smooth="yes"/>
      <point x="209" y="-159"/>
      <point x="237" y="-200"/>
      <point x="307" y="-200" type="curve" smooth="yes"/>
      <point x="364" y="-200"/>
      <point x="406" y="-180"/>
      <point x="444" y="-160" type="curve"/>
      <point x="433" y="-119" type="line"/>
      <point x="412" y="-126"/>
      <point x="383" y="-137"/>
      <point x="360" y="-137" type="curve" smooth="yes"/>
    </contour>
    <contour>
      <point x="208" y="233" type="line"/>
      <point x="317" y="439" type="line"/>
      <point x="350" y="233" type="line"/>
    </contour>
    <contour>
      <point x="334" y="560" type="move" name="top.cap"/>
    </contour>
  </outline>
</glyph>
<glyph name="aogonek" format="1">
  <advance width="420"/>
  <unicode hex="0105"/>
  <outline>
    <contour>
      <point x="381" y="228" type="line" smooth="yes"/>
      <point x="396" y="317"/>
      <point x="381" y="390"/>
      <point x="244" y="390" type="curve" smooth="yes"/>
      <point x="192" y="390"/>
      <point x="127" y="373"/>
      <point x="98" y="364" type="curve"/>
      <point x="95" y="300" type="line"/>
      <point x="126" y="308"/>
      <point x="176" y="318"/>
      <point x="211" y="318" type="curve" smooth="yes"/>
      <point x="284" y="318"/>
      <point x="300" y="294"/>
      <point x="288" y="229" type="curve"/>
      <point x="215" y="229" type="line" smooth="yes"/>
      <point x="75" y="229"/>
      <point x="29" y="159"/>
      <point x="29" y="87" type="curve" smooth="yes"/>
      <point x="29" y="37"/>
      <point x="69" y="-9"/>
      <point x="142" y="-9" type="curve" smooth="yes"/>
      <point x="189" y="-9"/>
      <point x="229" y="8"/>
      <point x="262" y="31" type="curve"/>
      <point x="270" y="7" type="line"/>
      <point x="221" y="-17"/>
      <point x="134" y="-47"/>
      <point x="119" y="-123" type="curve" smooth="yes"/>
      <point x="111" y="-167"/>
      <point x="149" y="-200"/>
      <point x="207" y="-200" type="curve" smooth="yes"/>
      <point x="266" y="-200"/>
      <point x="307" y="-177"/>
      <point x="345" y="-156" type="curve"/>
      <point x="330" y="-115" type="line"/>
      <point x="309" y="-126"/>
      <point x="278" y="-140"/>
      <point x="256" y="-140" type="curve" smooth="yes"/>
      <point x="226" y="-140"/>
      <point x="209" y="-123"/>
      <point x="215" y="-94" type="curve" smooth="yes"/>
      <point x="222" y="-58"/>
      <point x="285" y="-27"/>
      <point x="343" y="0" type="curve"/>
    </contour>
    <contour>
      <point x="267" y="81" type="line"/>
      <point x="242" y="70"/>
      <point x="223" y="63"/>
      <point x="182" y="63" type="curve" smooth="yes"/>
      <point x="145" y="63"/>
      <point x="126" y="80"/>
      <point x="126" y="108" type="curve" smooth="yes"/>
      <point x="126" y="140"/>
      <point x="146" y="167"/>
      <point x="208" y="167" type="curve" smooth="yes"/>
      <point x="280" y="167" type="line"/>
    </contour>
    <contour>
      <point x="243" y="384" type="move" name="top"/>
    </contour>
  </outline>
</glyph>
<glyph name="Eogonek" format="1">
  <advance width="518"/>
  <unicode hex="0118"/>
  <outline>
    <contour>
      <point x="488" y="550" type="line"/>
      <point x="471" y="462" type="line"/>
      <point x="218" y="462" type="line"/>
      <point x="191" y="324" type="line"/>
      <point x="414" y="324" type="line"/>
      <point x="397" y="235" type="line"/>
      <point x="174" y="235" type="line"/>
      <point x="145" y="89" type="line"/>
      <point x="408" y="89" type="line"/>
      <point x="388" y="0" type="line"/>
      <point x="252" y="-16"/>
      <point x="219" y="-53"/>
      <point x="214" y="-80" type="curve" smooth="yes"/>
      <point x="207" y="-112"/>
      <point x="222" y="-137"/>
      <point x="259" y="-137" type="curve" smooth="yes"/>
      <point x="282" y="-137"/>
      <point x="311" y="-126"/>
      <point x="333" y="-119" type="curve"/>
      <point x="343" y="-160" type="line"/>
      <point x="306" y="-180"/>
      <point x="263" y="-200"/>
      <point x="204" y="-200" type="curve" smooth="yes"/>
      <point x="130" y="-200"/>
      <point x="108" y="-157"/>
      <point x="116" y="-115" type="curve" smooth="yes"/>
      <point x="127" y="-59"/>
      <point x="175" y="-25"/>
      <point x="237" y="-1" type="curve"/>
      <point x="30" y="0" type="line"/>
      <point x="137" y="550" type="line"/>
    </contour>
  </outline>
</glyph>
<glyph name="lslash" format="1">
  <advance width="291"/>
  <unicode hex="0142"/>
  <outline>
    <contour>
      <point x="25" y="232" type="line"/>
      <point x="301" y="375" type="line"/>
      <point x="286" y="287" type="line"/>
      <point x="10" y="145" type="line"/>
    </contour>
    <component base="l" xOffset="18"/>
  </outline>
</glyph>
<glyph name="oe" format="1">
  <advance width="697"/>
  <unicode hex="0153"/>
  <outline>
    <contour>
      <point x="468" y="390"/>
      <point x="422" y="371"/>
      <point x="387" y="340" type="curve"/>
      <point x="358" y="371"/>
      <point x="316" y="390"/>
      <point x="264" y="390" type="curve" smooth="yes"/>
      <point x="93" y="390"/>
      <point x="29" y="261"/>
      <point x="29" y="159" type="curve" smooth="yes"/>
      <point x="29" y="70"/>
      <point x="94" y="-9"/>
      <point x="195" y="-9" type="curve" smooth="yes"/>
      <point x="258" y="-9"/>
      <point x="307" y="9"/>
      <point x="343" y="37" type="curve"/>
      <point x="370" y="8"/>
      <point x="412" y="-10"/>
      <point x="468" y="-10" type="curve" smooth="yes"/>
      <point x="522" y="-10"/>
      <point x="571" y="1"/>
      <point x="612" y="14" type="curve"/>
      <point x="612" y="77" type="line"/>
      <point x="583" y="70"/>
      <point x="549" y="66"/>
      <point x="506" y="66" type="curve" smooth="yes"/>
      <point x="436" y="66"/>
      <point x="391" y="87"/>
      <point x="399" y="156" type="curve"/>
      <point x="655" y="153" type="line"/>
      <point x="663" y="193" type="line" smooth="yes"/>
      <point x="686" y="314"/>
      <point x="633" y="390"/>
      <point x="521" y="390" type="curve" smooth="yes"/>
    </contour>
    <contour>
      <point x="163" y="67"/>
      <point x="128" y="99"/>
      <point x="128" y="161" type="curve" smooth="yes"/>
      <point x="128" y="234"/>
      <point x="172" y="315"/>
      <point x="248" y="315" type="curve" smooth="yes"/>
      <point x="295" y="315"/>
      <point x="331" y="283"/>
      <point x="331" y="220" type="curve" smooth="yes"/>
      <point x="331" y="145"/>
      <point x="292" y="67"/>
      <point x="210" y="67" type="curve" smooth="yes"/>
    </contour>
    <contour>
      <point x="406" y="217" type="line"/>
      <point x="422" y="281"/>
      <point x="467" y="315"/>
      <point x="508" y="315" type="curve" smooth="yes"/>
      <point x="557" y="315"/>
      <point x="590" y="281"/>
      <point x="577" y="217" type="curve"/>
    </contour>
  </outline>
</glyph>
<glyph name="Tcedilla" format="1">
  <advance width="489"/>
  <unicode hex="0162"/>
  <outline>
    <contour>
      <point x="203" y="-141"/>
      <point x="206" y="-135"/>
      <point x="206" y="-128" type="curve" smooth="yes"/>
      <point x="206" y="-118"/>
      <point x="200" y="-111"/>
      <point x="171" y="-103" type="curve" smooth="yes"/>
      <point x="107" y="-85" type="line"/>
      <point x="152" y="31" type="line"/>
      <point x="238" y="0" type="line"/>
      <point x="221" y="-44" type="line"/>
      <point x="272" y="-62"/>
      <point x="286" y="-85"/>
      <point x="286" y="-117" type="curve" smooth="yes"/>
      <point x="286" y="-162"/>
      <point x="251" y="-210"/>
      <point x="175" y="-210" type="curve" smooth="yes"/>
      <point x="138" y="-210"/>
      <point x="107" y="-204"/>
      <point x="60" y="-187" type="curve"/>
      <point x="86" y="-119" type="line"/>
      <point x="106" y="-124" type="line"/>
      <point x="150" y="-135" type="line"/>
      <point x="169" y="-139"/>
      <point x="177" y="-141"/>
      <point x="188" y="-141" type="curve" smooth="yes"/>
    </contour>
    <contour>
      <point x="502" y="462" type="line"/>
      <point x="328" y="462" type="line"/>
      <point x="238" y="0" type="line"/>
      <point x="140" y="0" type="line"/>
      <point x="230" y="462" type="line"/>
      <point x="50" y="462" type="line"/>
      <point x="67" y="550" type="line"/>
      <point x="519" y="550" type="line"/>
    </contour>
  </outline>
</glyph>
<glyph name="tcaron" format="1">
  <advance width="343"/>
  <unicode hex="0165"/>
  <outline>
    <contour>
      <point x="321" y="430" type="line"/>
      <point x="251" y="430" type="line"/>
      <point x="307" y="596" type="line"/>
      <point x="398" y="596" type="line"/>
    </contour>
    <component base="t"/>
  </outline>
</glyph>
<glyph name="Uogonek" format="1">
  <advance width="574"/>
  <unicode hex="0172"/>
  <outline>
    <contour>
      <point x="451" y="550" type="line"/>
      <point x="383" y="201" type="line" smooth="yes"/>
      <point x="368" y="122"/>
      <point x="325" y="82"/>
      <point x="224" y="82" type="curve" smooth="yes"/>
      <point x="126" y="82"/>
      <point x="117" y="136"/>
      <point x="129" y="207" type="curve" smooth="yes"/>
      <point x="196" y="550" type="line"/>
      <point x="99" y="550" type="line"/>
      <point x="32" y="206" type="line" smooth="yes"/>
      <point x="19" y="142"/>
      <point x="16" y="3"/>
      <point x="195" y="-8" type="curve"/>
      <point x="147" y="-35"/>
      <point x="110" y="-67"/>
      <point x="101" y="-114" type="curve" smooth="yes"/>
      <point x="92" y="-160"/>
      <point x="127" y="-200"/>
      <point x="192" y="-200" type="curve" smooth="yes"/>
      <point x="250" y="-200"/>
      <point x="293" y="-180"/>
      <point x="330" y="-160" type="curve"/>
      <point x="319" y="-119" type="line"/>
      <point x="301" y="-126"/>
      <point x="270" y="-138"/>
      <point x="247" y="-138" type="curve" smooth="yes"/>
      <point x="212" y="-138"/>
      <point x="196" y="-116"/>
      <point x="202" y="-85" type="curve" smooth="yes"/>
      <point x="209" y="-50"/>
      <point x="277" y="-18"/>
      <point x="328" y="8" type="curve"/>
      <point x="453" y="74"/>
      <point x="470" y="144"/>
      <point x="481" y="202" type="curve" smooth="yes"/>
      <point x="549" y="550" type="line"/>
    </contour>
    <contour>
      <point x="325" y="560" type="move" name="top.cap"/>
    </contour>
  </outline>
</glyph>
<glyph name="florin" format="1">
  <advance width="347"/>
  <unicode hex="0192"/>
  <outline>
    <contour>
      <point x="345" y="474"/>
      <point x="314" y="475"/>
      <point x="283" y="475" type="curve" smooth="yes"/>
      <point x="154" y="475"/>
      <point x="123" y="380"/>
      <point x="115" y="338" type="curve" smooth="yes"/>
      <point x="108" y="305" type="line"/>
      <point x="34" y="305" type="line"/>
      <point x="20" y="230" type="line"/>
      <point x="94" y="230" type="line"/>
      <point x="45" y="-23" type="line" smooth="yes"/>
      <point x="33" y="-83"/>
      <point x="14" y="-108"/>
      <point x="-58" y="-108" type="curve" smooth="yes"/>
      <point x="-70" y="-108"/>
      <point x="-95" y="-105"/>
      <point x="-119" y="-100" type="curve"/>
      <point x="-140" y="-165" type="line"/>
      <point x="-106" y="-174"/>
      <point x="-67" y="-180"/>
      <point x="-38" y="-180" type="curve" smooth="yes"/>
      <point x="77" y="-180"/>
      <point x="120" y="-126"/>
      <point x="135" y="-46" type="curve" smooth="yes"/>
      <point x="189" y="230" type="line"/>
      <point x="312" y="230" type="line"/>
      <point x="326" y="305" type="line"/>
      <point x="201" y="305" type="line"/>
      <point x="207" y="335" type="line" smooth="yes"/>
      <point x="216" y="379"/>
      <point x="247" y="399"/>
      <point x="301" y="399" type="curve" smooth="yes"/>
      <point x="330" y="399"/>
      <point x="347" y="392"/>
      <point x="369" y="386" type="curve"/>
      <point x="397" y="455" type="line"/>
    </contour>
  </outline>
</glyph>
<glyph name="dotlessj" format="1">
  <advance width="238"/>
  <unicode hex="0237"/>
  <outline>
    <contour>
      <point x="128" y="-26" type="line" smooth="yes"/>
      <point x="109" y="-122"/>
      <point x="83" y="-164"/>
      <point x="-44" y="-212" type="curve"/>
      <point x="-72" y="-145" type="line"/>
      <point x="-7" y="-114"/>
      <point x="20" y="-96"/>
      <point x="39" y="0" type="curve" smooth="yes"/>
      <point x="114" y="384" type="line"/>
      <point x="208" y="384" type="line"/>
    </contour>
    <contour>
      <point x="161" y="384" type="move" name="top"/>
    </contour>
  </outline>
</glyph>
<glyph name="circumflex" format="1">
  <advance width="286"/>
  <unicode hex="02C6"/>
  <outline>
    <contour>
      <point x="-10" y="484" type="line"/>
      <point x="157" y="636" type="line"/>
      <point x="276" y="472" type="line"/>
      <point x="222" y="428" type="line"/>
      <point x="146" y="530" type="line"/>
      <point x="32" y="430" type="line"/>
    </contour>
    <contour>
      <point x="111" y="384" type="move" name="_top"/>
    </contour>
  </outline>
</glyph>
<glyph name="caron" format="1">
  <advance width="286"/>
  <unicode hex="02C7"/>
  <outline>
    <contour>
      <point x="283" y="580" type="line"/>
      <point x="116" y="428" type="line"/>
      <point x="-3" y="592" type="line"/>
      <point x="51" y="636" type="line"/>
      <point x="127" y="534" type="line"/>
      <point x="241" y="634" type="line"/>
    </contour>
    <contour>
      <point x="111" y="384" type="move" name="_top"/>
    </contour>
  </outline>
</glyph>
<glyph name="breve" format="1">
  <advance width="288"/>
  <unicode hex="02D8"/>
  <outline>
    <contour>
      <point x="49" y="440"/>
      <point x="16" y="500"/>
      <point x="4" y="548" type="curve"/>
      <point x="67" y="576" type="line"/>
      <point x="76" y="546"/>
      <point x="93" y="510"/>
      <point x="134" y="510" type="curve" smooth="yes"/>
      <point x="185" y="510"/>
      <point x="204" y="544"/>
      <point x="224" y="574" type="curve"/>
      <point x="286" y="542" type="line"/>
      <point x="258" y="489"/>
      <point x="216" y="440"/>
      <point x="128" y="440" type="curve" smooth="yes"/>
    </contour>
    <contour>
      <point x="112" y="384" type="move" name="_top"/>
    </contour>
  </outline>
</glyph>
<glyph name="dotaccent" format="1">
  <advance width="132"/>
  <unicode hex="02D9"/>
  <outline>
    <contour>
      <point x="83" y="449"/>
      <point x="112" y="473"/>
      <point x="118" y="503" type="curve" smooth="yes"/>
      <point x="125" y="541"/>
      <point x="101" y="571"/>
      <point x="65" y="571" type="curve" smooth="yes"/>
      <point x="33" y="571"/>
      <point x="5" y="549"/>
      <point x="-1" y="517" type="curve" smooth="yes"/>
      <point x="-8" y="479"/>
      <point x="15" y="449"/>
      <point x="51" y="449" type="curve" smooth="yes"/>
    </contour>
    <contour>
      <point x="42" y="384" type="move" name="_top"/>
    </contour>
  </outline>
</glyph>
<glyph name="ogonek" format="1">
  <advance width="274"/>
  <unicode hex="02DB"/>
  <outline>
    <contour>
      <point x="177" y="-16"/>
      <point x="137" y="-51"/>
      <point x="120" y="-91" type="curve" smooth="yes"/>
      <point x="109" y="-124"/>
      <point x="114" y="-157"/>
      <point x="163" y="-157" type="curve" smooth="yes"/>
      <point x="184" y="-157"/>
      <point x="208" y="-148"/>
      <point x="231" y="-140" type="curve"/>
      <point x="230" y="-179" type="line"/>
      <point x="186" y="-199"/>
      <point x="151" y="-220"/>
      <point x="90" y="-220" type="curve" smooth="yes"/>
      <point x="15" y="-220"/>
      <point x="-2" y="-168"/>
      <point x="18" y="-118" type="curve" smooth="yes"/>
      <point x="42" y="-53"/>
      <point x="116" y="-3"/>
      <point x="220" y="34" type="curve"/>
      <point x="264" y="16" type="line"/>
    </contour>
  </outline>
</glyph>
<glyph name="tilde" format="1">
  <advance width="335"/>
  <unicode hex="02DC"/>
  <outline>
    <contour>
      <point x="149" y="542"/>
      <point x="187" y="504"/>
      <point x="214" y="504" type="curve" smooth="yes"/>
      <point x="237" y="504"/>
      <point x="248" y="528"/>
      <point x="258" y="544" type="curve"/>
      <point x="331" y="528" type="line"/>
      <point x="312" y="474"/>
      <point x="263" y="437"/>
      <point x="207" y="437" type="curve" smooth="yes"/>
      <point x="154" y="437"/>
      <point x="124" y="475"/>
      <point x="100" y="475" type="curve" smooth="yes"/>
      <point x="77" y="475"/>
      <point x="69" y="458"/>
      <point x="58" y="439" type="curve"/>
      <point x="-15" y="457" type="line"/>
      <point x="14" y="524"/>
      <point x="57" y="542"/>
      <point x="105" y="542" type="curve" smooth="yes"/>
    </contour>
    <contour>
      <point x="156" y="384" type="move" name="_top"/>
    </contour>
  </outline>
</glyph>
<glyph name="hungarumlaut" format="1">
  <advance width="444"/>
  <unicode hex="02DD"/>
  <outline>
    <component base="acute" xOffset="-107"/>
    <component base="acute" xOffset="104"/>
    <contour>
      <point x="34" y="384" type="move" name="_top"/>
    </contour>
  </outline>
</glyph>
<glyph name="uni0326" format="1">
  <advance width="156"/>
  <unicode hex="0326"/>
  <outline>
    <contour>
      <point x="-74" y="-217" type="line"/>
      <point x="-143" y="-217" type="line"/>
      <point x="-73" y="-41" type="line"/>
      <point x="25" y="-41" type="line"/>
    </contour>
    <contour>
      <point x="-18" y="0" type="move" name="_bottom"/>
    </contour>
  </outline>
</glyph>
<glyph name="pi" format="1">
  <advance width="457"/>
  <unicode hex="03C0"/>
  <outline>
    <contour>
      <point x="387" y="68"/>
      <point x="396" y="69"/>
      <point x="405" y="71" type="curve"/>
      <point x="409" y="13" type="line"/>
      <point x="392" y="6"/>
      <point x="373" y="-7"/>
      <point x="326" y="-7" type="curve" smooth="yes"/>
      <point x="248" y="-7"/>
      <point x="233" y="45"/>
      <point x="243" y="98" type="curve" smooth="yes"/>
      <point x="299" y="384" type="line"/>
      <point x="393" y="384" type="line"/>
      <point x="344" y="132" type="line" smooth="yes"/>
      <point x="337" y="95"/>
      <point x="342" y="68"/>
      <point x="380" y="68" type="curve" smooth="yes"/>
    </contour>
    <contour>
      <point x="457" y="384" type="line"/>
      <point x="441" y="303" type="line"/>
      <point x="10" y="303" type="line"/>
      <point x="26" y="384" type="line"/>
    </contour>
    <contour>
      <point x="117" y="0" type="line"/>
      <point x="21" y="0" type="line"/>
      <point x="96" y="384" type="line"/>
      <point x="192" y="384" type="line"/>
    </contour>
  </outline>
</glyph>
<glyph name="lvocalicdeva" format="1">
  <advance width="569"/>
  <unicode hex="090C"/>
  <outline>
    <contour>
      <point x="318" y="260" type="line"/>
      <point x="398" y="260" type="line"/>
      <point x="438" y="466" type="line"/>
      <point x="358" y="466" type="line"/>
    </contour>
    <contour>
      <point x="-10" y="466" type="line"/>
      <point x="-24" y="396" type="line"/>
      <point x="579" y="396" type="line"/>
      <point x="593" y="466" type="line"/>
    </contour>
    <contour>
      <point x="253" y="274"/>
      <point x="220" y="311"/>
      <point x="153" y="311" type="curve" smooth="yes"/>
      <point x="80" y="311"/>
      <point x="18" y="262"/>
      <point x="2" y="179" type="curve" smooth="yes"/>
      <point x="-18" y="77"/>
      <point x="59" y="-22"/>
      <point x="59" y="-22" type="curve"/>
      <point x="139" y="10" type="line"/>
      <point x="121" y="32"/>
      <point x="70" y="108"/>
      <point x="81" y="162" type="curve" smooth="yes"/>
      <point x="89" y="205"/>
      <point x="113" y="230"/>
      <point x="157" y="230" type="curve" smooth="yes"/>
      <point x="196" y="230"/>
      <point x="206" y="185"/>
      <point x="206" y="185" type="curve"/>
      <point x="274" y="233" type="line"/>
    </contour>
    <contour>
      <point x="443" y="105"/>
      <point x="458" y="184" type="curve" smooth="yes"/>
      <point x="472" y="258"/>
      <point x="428" y="309"/>
      <point x="342" y="309" type="curve"/>
      <point x="262" y="309"/>
      <point x="206" y="276"/>
      <point x="186" y="176" type="curve" smooth="yes"/>
      <point x="184" y="162"/>
      <point x="180" y="131"/>
      <point x="179" y="124" type="curve"/>
      <point x="178" y="121"/>
      <point x="253" y="108"/>
      <point x="253" y="105" type="curve"/>
      <point x="253" y="112"/>
      <point x="256" y="137"/>
      <point x="259" y="155" type="curve" smooth="yes"/>
      <point x="269" y="204"/>
      <point x="296" y="232"/>
      <point x="334" y="231" type="curve"/>
      <point x="372" y="231"/>
      <point x="382" y="217"/>
      <point x="377" y="192" type="curve" smooth="yes"/>
      <point x="372" y="162"/>
      <point x="342" y="144"/>
      <point x="315" y="121" type="curve" smooth="yes"/>
      <point x="292" y="96"/>
      <point x="270" y="71"/>
      <point x="263" y="36" type="curve" smooth="yes"/>
      <point x="254" y="-13"/>
      <point x="279" y="-66"/>
      <point x="351" y="-66" type="curve" smooth="yes"/>
      <point x="391" y="-66"/>
      <point x="426" y="-49"/>
      <point x="452" y="-30" type="curve"/>
      <point x="422" y="35" type="line"/>
      <point x="408" y="27"/>
      <point x="388" y="8"/>
      <point x="359" y="8" type="curve" smooth="yes"/>
      <point x="345" y="8"/>
      <point x="339" y="14"/>
      <point x="341" y="27" type="curve" smooth="yes"/>
      <point x="350" y="74"/>
    </contour>
    <contour>
      <point x="394" y="447" type="move" name="top"/>
    </contour>
  </outline>
</glyph>
<glyph name="cadeva" format="1">
  <advance width="506"/>
  <unicode hex="091A"/>
  <outline>
    <contour>
      <point x="101" y="272"/>
      <point x="69" y="258"/>
      <point x="59" y="204" type="curve" smooth="yes"/>
      <point x="41" y="115"/>
      <point x="101" y="61"/>
      <point x="188" y="61" type="curve" smooth="yes"/>
      <point x="282" y="61"/>
      <point x="322" y="101"/>
      <point x="322" y="102" type="curve"/>
      <point x="341" y="204" type="line"/>
      <point x="341" y="204"/>
      <point x="293" y="139"/>
      <point x="201" y="139" type="curve" smooth="yes"/>
      <point x="165" y="139"/>
      <point x="133" y="151"/>
      <point x="141" y="190" type="curve" smooth="yes"/>
      <point x="148" y="227"/>
      <point x="172" y="261"/>
      <point x="240" y="269" type="curve"/>
      <point x="131" y="280" type="line"/>
    </contour>
    <contour>
      <point x="-10" y="466" type="line"/>
      <point x="-24" y="396" type="line"/>
      <point x="516" y="396" type="line"/>
      <point x="530" y="466" type="line"/>
    </contour>
    <contour>
      <point x="265" y="0" type="line"/>
      <point x="350" y="0" type="line"/>
      <point x="441" y="466" type="line"/>
      <point x="356" y="466" type="line"/>
    </contour>
    <contour>
      <point x="5" y="306" type="line"/>
      <point x="-9" y="234" type="line"/>
      <point x="248" y="234" type="line"/>
      <point x="262" y="306" type="line"/>
    </contour>
    <contour>
      <point x="394" y="447" type="move" name="top"/>
    </contour>
    <contour>
      <point x="308" y="5" type="move" name="bottom"/>
    </contour>
  </outline>
</glyph>
<glyph name="nyadeva" format="1">
  <advance width="591"/>
  <unicode hex="091E"/>
  <outline>
    <contour>
      <point x="236" y="241"/>
      <point x="251" y="225"/>
      <point x="245" y="197" type="curve" smooth="yes"/>
      <point x="238" y="157"/>
      <point x="211" y="131"/>
      <point x="171" y="131" type="curve" smooth="yes"/>
      <point x="111" y="131"/>
      <point x="91" y="175"/>
      <point x="71" y="276" type="curve"/>
      <point x="-5" y="252" type="line"/>
      <point x="19" y="110"/>
      <point x="69" y="48"/>
      <point x="163" y="48" type="curve" smooth="yes"/>
      <point x="236" y="48"/>
      <point x="298" y="95"/>
      <point x="322" y="164" type="curve" smooth="yes"/>
      <point x="323" y="171"/>
      <point x="326" y="174"/>
      <point x="326" y="174" type="curve" smooth="yes"/>
      <point x="344" y="268"/>
      <point x="294" y="321"/>
      <point x="216" y="321" type="curve" smooth="yes"/>
      <point x="181" y="321"/>
      <point x="154" y="312"/>
      <point x="130" y="299" type="curve"/>
      <point x="132" y="297"/>
      <point x="149" y="226"/>
      <point x="151" y="228" type="curve" smooth="yes"/>
      <point x="153" y="226"/>
      <point x="180" y="241"/>
      <point x="206" y="241" type="curve" smooth="yes"/>
    </contour>
    <contour>
      <point x="428" y="230"/>
      <point x="388" y="210"/>
      <point x="356" y="210" type="curve" smooth="yes"/>
      <point x="333" y="210"/>
      <point x="318" y="216"/>
      <point x="295" y="229" type="curve"/>
      <point x="280" y="153" type="line"/>
      <point x="305" y="145"/>
      <point x="323" y="138"/>
      <point x="352" y="138" type="curve" smooth="yes"/>
      <point x="373" y="138"/>
      <point x="416" y="149"/>
      <point x="435" y="162" type="curve"/>
      <point x="446" y="243" type="line"/>
    </contour>
    <contour>
      <point x="-10" y="466" type="line"/>
      <point x="-24" y="396" type="line"/>
      <point x="601" y="396" type="line"/>
      <point x="615" y="466" type="line"/>
    </contour>
    <contour>
      <point x="350" y="0" type="line"/>
      <point x="435" y="0" type="line"/>
      <point x="526" y="466" type="line"/>
      <point x="441" y="466" type="line"/>
    </contour>
    <contour>
      <point x="479" y="447" type="move" name="top"/>
    </contour>
    <contour>
      <point x="393" y="5" type="move" name="bottom"/>
    </contour>
  </outline>
</glyph>
<glyph name="madeva" format="1">
  <advance width="513"/>
  <unicode hex="092E"/>
  <outline>
    <contour>
      <point x="272" y="0" type="line"/>
      <point x="357" y="0" type="line"/>
      <point x="448" y="466" type="line"/>
      <point x="363" y="466" type="line"/>
    </contour>
    <contour>
      <point x="-10" y="466" type="line"/>
      <point x="-24" y="396" type="line"/>
      <point x="523" y="396" type="line"/>
      <point x="537" y="466" type="line"/>
    </contour>
    <contour>
      <point x="4" y="216" type="line"/>
      <point x="-3" y="174" type="line"/>
      <point x="69" y="51" type="line"/>
      <point x="68" y="51"/>
      <point x="129" y="54"/>
      <point x="129" y="54" type="curve"/>
      <point x="160" y="216" type="line"/>
    </contour>
    <contour>
      <point x="99" y="216" type="line"/>
      <point x="84" y="138" type="line"/>
      <point x="337" y="138" type="line"/>
      <point x="352" y="216" type="line"/>
    </contour>
    <contour>
      <point x="60" y="138" type="line"/>
      <point x="145" y="138" type="line"/>
      <point x="209" y="466" type="line"/>
      <point x="124" y="466" type="line"/>
    </contour>
    <contour>
      <point x="401" y="447" type="move" name="top"/>
    </contour>
    <contour>
      <point x="315" y="5" type="move" name="bottom"/>
    </contour>
  </outline>
</glyph>
<glyph name="rradeva" format="1">
  <advance width="329"/>
  <unicode hex="0931"/>
  <outline>
    <component base="radeva"/>
    <component base="nuktadeva" xOffset="140" yOffset="88"/>
    <contour>
      <point x="150" y="447" type="move" name="top"/>
    </contour>
    <contour>
      <point x="101" y="-50" type="move" name="bottom"/>
    </contour>
  </outline>
</glyph>
<glyph name="ssadeva" format="1">
  <advance width="473"/>
  <unicode hex="0937"/>
  <outline>
    <contour>
      <point x="317" y="218"/>
      <point x="253" y="169"/>
      <point x="167" y="169" type="curve" smooth="yes"/>
      <point x="115" y="169"/>
      <point x="107" y="201"/>
      <point x="118" y="257" type="curve" smooth="yes"/>
      <point x="128" y="310" type="line"/>
      <point x="139" y="364"/>
      <point x="112" y="399"/>
      <point x="105" y="453" type="curve"/>
      <point x="72" y="456" type="line"/>
      <point x="29" y="237" type="line" smooth="yes"/>
      <point x="14" y="157"/>
      <point x="62" y="93"/>
      <point x="164" y="93" type="curve" smooth="yes"/>
      <point x="235" y="93"/>
      <point x="304" y="136"/>
      <point x="304" y="136" type="curve"/>
      <point x="317" y="218" type="line"/>
    </contour>
    <contour>
      <point x="232" y="0" type="line"/>
      <point x="317" y="0" type="line"/>
      <point x="408" y="466" type="line"/>
      <point x="323" y="466" type="line"/>
    </contour>
    <contour>
      <point x="-10" y="466" type="line"/>
      <point x="-24" y="396" type="line"/>
      <point x="483" y="396" type="line"/>
      <point x="497" y="466" type="line"/>
    </contour>
    <contour>
      <point x="137" y="338"/>
      <point x="191" y="253"/>
      <point x="246" y="168" type="curve"/>
      <point x="298" y="207" type="line"/>
      <point x="139" y="459" type="line"/>
      <point x="81" y="423" type="line"/>
    </contour>
    <contour>
      <point x="361" y="447" type="move" name="top"/>
    </contour>
    <contour>
      <point x="275" y="5" type="move" name="bottom"/>
    </contour>
  </outline>
</glyph>
<glyph name="uni093A" format="1">
  <advance width="94"/>
  <unicode hex="093A"/>
  <outline>
    <contour>
      <point x="-11" y="440" type="line"/>
      <point x="63" y="440" type="line"/>
      <point x="90" y="580" type="line"/>
      <point x="16" y="580" type="line"/>
    </contour>
  </outline>
</glyph>
<glyph name="uni093E" format="1">
  <advance width="227"/>
  <unicode hex="093E"/>
  <outline>
    <contour>
      <point x="-10" y="466" type="line"/>
      <point x="-24" y="396" type="line"/>
      <point x="237" y="396" type="line"/>
      <point x="251" y="466" type="line"/>
    </contour>
    <contour>
      <point x="-12" y="0" type="line"/>
      <point x="73" y="0" type="line"/>
      <point x="164" y="466" type="line"/>
      <point x="79" y="466" type="line"/>
    </contour>
    <contour>
      <point x="117" y="447" type="move" name="top"/>
    </contour>
  </outline>
</glyph>
<glyph name="rrvocalicvowelsigndeva" format="1">
  <advance width="259"/>
  <unicode hex="0944"/>
  <outline>
    <contour>
      <point x="11" y="-345"/>
      <point x="42" y="-337"/>
      <point x="72" y="-322" type="curve"/>
      <point x="55" y="-256" type="line"/>
      <point x="34" y="-268"/>
      <point x="7" y="-277"/>
      <point x="-21" y="-277" type="curve" smooth="yes"/>
      <point x="-49" y="-277"/>
      <point x="-67" y="-269"/>
      <point x="-63" y="-246" type="curve" smooth="yes"/>
      <point x="-56" y="-211"/>
      <point x="-21" y="-203"/>
      <point x="16" y="-203" type="curve" smooth="yes"/>
      <point x="55" y="-203" type="line"/>
      <point x="67" y="-137" type="line"/>
      <point x="22" y="-137" type="line" smooth="yes"/>
      <point x="-17" y="-137"/>
      <point x="-39" y="-130"/>
      <point x="-35" y="-106" type="curve" smooth="yes"/>
      <point x="-29" y="-76"/>
      <point x="-1" y="-65"/>
      <point x="42" y="-65" type="curve" smooth="yes"/>
      <point x="96" y="-65" type="line"/>
      <point x="110" y="5" type="line"/>
      <point x="46" y="5" type="line" smooth="yes"/>
      <point x="-51" y="5"/>
      <point x="-93" y="-33"/>
      <point x="-103" y="-81" type="curve" smooth="yes"/>
      <point x="-110" y="-119"/>
      <point x="-96" y="-152"/>
      <point x="-65" y="-167" type="curve"/>
      <point x="-104" y="-183"/>
      <point x="-127" y="-207"/>
      <point x="-134" y="-240" type="curve" smooth="yes"/>
      <point x="-144" y="-294"/>
      <point x="-112" y="-345"/>
      <point x="-27" y="-345" type="curve" smooth="yes"/>
    </contour>
    <contour>
      <point x="65" y="-8" type="move" name="_bottom"/>
    </contour>
  </outline>
</glyph>
<glyph name="uni094F" format="1">
  <advance width="227"/>
  <unicode hex="094F"/>
  <outline>
    <contour>
      <point x="139" y="539"/>
      <point x="61" y="568"/>
      <point x="-11" y="568" type="curve"/>
      <point x="-77" y="568"/>
      <point x="-91" y="581"/>
      <point x="-87" y="664" type="curve"/>
      <point x="-154" y="646" type="line"/>
      <point x="-166" y="549"/>
      <point x="-113" y="504"/>
      <point x="-35" y="504" type="curve"/>
      <point x="45" y="504"/>
      <point x="57" y="490"/>
      <point x="48" y="440" type="curve"/>
      <point x="118" y="434" type="line"/>
    </contour>
    <contour>
      <point x="200" y="471"/>
      <point x="208" y="492"/>
      <point x="210" y="506" type="curve" smooth="yes"/>
      <point x="226" y="592"/>
      <point x="165" y="611"/>
      <point x="121" y="632" type="curve" smooth="yes"/>
      <point x="93" y="651"/>
      <point x="76" y="664"/>
      <point x="84" y="704" type="curve" smooth="yes"/>
      <point x="87" y="720"/>
      <point x="93" y="733"/>
      <point x="98" y="748" type="curve"/>
      <point x="30" y="753" type="line"/>
      <point x="22" y="735"/>
      <point x="18" y="718"/>
      <point x="16" y="707" type="curve" smooth="yes"/>
      <point x="2" y="636"/>
      <point x="34" y="612"/>
      <point x="71" y="591" type="curve" smooth="yes"/>
      <point x="105" y="566"/>
      <point x="150" y="557"/>
      <point x="143" y="519" type="curve" smooth="yes"/>
      <point x="140" y="506"/>
      <point x="135" y="495"/>
      <point x="129" y="482" type="curve"/>
      <point x="114" y="453" type="line"/>
      <point x="187" y="449" type="line"/>
    </contour>
    <component base="uni093E"/>
  </outline>
</glyph>
<glyph name="uni0955" format="1">
  <advance width="340"/>
  <unicode hex="0955"/>
  <outline>
    <contour>
      <point x="17" y="561" type="line"/>
      <point x="5" y="498" type="line"/>
      <point x="291" y="498" type="line"/>
      <point x="303" y="561" type="line"/>
    </contour>
    <contour>
      <point x="253" y="599"/>
      <point x="308" y="645"/>
      <point x="335" y="703" type="curve"/>
      <point x="279" y="735" type="line"/>
      <point x="253" y="690"/>
      <point x="220" y="663"/>
      <point x="177" y="663" type="curve" smooth="yes"/>
      <point x="138" y="663"/>
      <point x="112" y="683"/>
      <point x="103" y="728" type="curve"/>
      <point x="41" y="707" type="line"/>
      <point x="47" y="649"/>
      <point x="89" y="599"/>
      <point x="173" y="599" type="curve" smooth="yes"/>
    </contour>
    <contour>
      <point x="139" y="447" type="move" name="_top"/>
    </contour>
  </outline>
</glyph>
<glyph name="uni0956" format="1">
  <advance width="293"/>
  <unicode hex="0956"/>
  <outline>
    <contour>
      <point x="208" y="-141"/>
      <point x="253" y="-106"/>
      <point x="283" y="-57" type="curve"/>
      <point x="232" y="-17" type="line"/>
      <point x="208" y="-52"/>
      <point x="180" y="-74"/>
      <point x="137" y="-74" type="curve" smooth="yes"/>
      <point x="98" y="-74"/>
      <point x="80" y="-52"/>
      <point x="69" y="-17" type="curve"/>
      <point x="10" y="-44" type="line"/>
      <point x="22" y="-93"/>
      <point x="56" y="-141"/>
      <point x="134" y="-141" type="curve" smooth="yes"/>
    </contour>
  </outline>
</glyph>
<glyph name="yyadeva" format="1">
  <advance width="478"/>
  <unicode hex="095F"/>
  <outline>
    <component base="nuktadeva" xOffset="221" yOffset="79"/>
    <component base="uni092F" xOffset="30"/>
    <contour>
      <point x="367" y="447" type="move" name="top"/>
    </contour>
    <contour>
      <point x="281" y="5" type="move" name="bottom"/>
    </contour>
  </outline>
</glyph>
<glyph name="lvocalicvowelsigndeva" format="1">
  <advance width="439"/>
  <unicode hex="0962"/>
  <outline>
    <contour>
      <point x="222" y="-283" type="line"/>
      <point x="208" y="-293"/>
      <point x="184" y="-312"/>
      <point x="155" y="-312" type="curve" smooth="yes"/>
      <point x="139" y="-312"/>
      <point x="133" y="-305"/>
      <point x="135" y="-292" type="curve" smooth="yes"/>
      <point x="141" y="-265"/>
      <point x="163" y="-251"/>
      <point x="196" y="-226" type="curve" smooth="yes"/>
      <point x="226" y="-197"/>
      <point x="259" y="-169"/>
      <point x="268" y="-124" type="curve" smooth="yes"/>
      <point x="278" y="-74"/>
      <point x="262" y="-12"/>
      <point x="176" y="-12" type="curve" smooth="yes"/>
      <point x="149" y="-12"/>
      <point x="120" y="-18"/>
      <point x="92" y="-38" type="curve"/>
      <point x="77" y="-25"/>
      <point x="55" y="-12"/>
      <point x="24" y="-12" type="curve" smooth="yes"/>
      <point x="-50" y="-12"/>
      <point x="-98" y="-57"/>
      <point x="-109" y="-114" type="curve" smooth="yes"/>
      <point x="-122" y="-181"/>
      <point x="-97" y="-236"/>
      <point x="-85" y="-264" type="curve"/>
      <point x="-19" y="-243" type="line"/>
      <point x="-31" y="-213"/>
      <point x="-48" y="-172"/>
      <point x="-41" y="-133" type="curve" smooth="yes"/>
      <point x="-35" y="-101"/>
      <point x="-10" y="-79"/>
      <point x="20" y="-79" type="curve" smooth="yes"/>
      <point x="34" y="-79"/>
      <point x="44" y="-83"/>
      <point x="52" y="-88" type="curve"/>
      <point x="40" y="-108"/>
      <point x="34" y="-127"/>
      <point x="31" y="-147" type="curve" smooth="yes"/>
      <point x="28" y="-161"/>
      <point x="28" y="-172"/>
      <point x="28" y="-182" type="curve"/>
      <point x="88" y="-200" type="line"/>
      <point x="89" y="-190"/>
      <point x="90" y="-180"/>
      <point x="93" y="-167" type="curve" smooth="yes"/>
      <point x="103" y="-116"/>
      <point x="130" y="-80"/>
      <point x="169" y="-80" type="curve" smooth="yes"/>
      <point x="196" y="-80"/>
      <point x="205" y="-92"/>
      <point x="201" y="-112" type="curve" smooth="yes"/>
      <point x="194" y="-149"/>
      <point x="164" y="-169"/>
      <point x="134" y="-191" type="curve" smooth="yes"/>
      <point x="103" y="-222"/>
      <point x="79" y="-245"/>
      <point x="72" y="-282" type="curve" smooth="yes"/>
      <point x="62" y="-333"/>
      <point x="89" y="-373"/>
      <point x="151" y="-373" type="curve" smooth="yes"/>
      <point x="191" y="-373"/>
      <point x="222" y="-357"/>
      <point x="248" y="-338" type="curve"/>
    </contour>
    <contour>
      <point x="104" y="5" type="move" name="_bottom"/>
    </contour>
  </outline>
</glyph>
<glyph name="uni0974" format="1">
  <advance width="843"/>
  <unicode hex="0974"/>
  <outline>
    <contour>
      <point x="689" y="440" type="line"/>
      <point x="774" y="440" type="line"/>
      <point x="797" y="560" type="line"/>
      <point x="712" y="560" type="line"/>
    </contour>
    <component base="aadeva"/>
  </outline>
</glyph>
<glyph name="uni097B" format="1">
  <advance width="483"/>
  <unicode hex="097B"/>
  <outline>
    <contour>
      <point x="1" y="466" type="line"/>
      <point x="-13" y="396" type="line"/>
      <point x="493" y="396" type="line"/>
      <point x="507" y="466" type="line"/>
    </contour>
    <contour>
      <point x="240" y="-10" type="line"/>
      <point x="325" y="-10" type="line"/>
      <point x="418" y="466" type="line"/>
      <point x="333" y="466" type="line"/>
    </contour>
    <contour>
      <point x="9" y="240" type="line"/>
      <point x="2" y="198" type="line"/>
      <point x="65" y="75" type="line"/>
      <point x="64" y="75"/>
      <point x="124" y="78"/>
      <point x="124" y="78" type="curve"/>
      <point x="156" y="240" type="line"/>
    </contour>
    <contour>
      <point x="59" y="180" type="line"/>
      <point x="144" y="180" type="line"/>
      <point x="200" y="466" type="line"/>
      <point x="115" y="466" type="line"/>
    </contour>
    <contour>
      <point x="-24" y="-69" type="line"/>
      <point x="314" y="-69" type="line"/>
      <point x="327" y="0" type="line"/>
      <point x="-11" y="0" type="line"/>
    </contour>
  </outline>
</glyph>
<glyph name="quoteright" format="1">
  <advance width="229"/>
  <unicode hex="2019"/>
  <outline>
    <contour>
      <point x="110" y="446"/>
      <point x="73" y="409"/>
      <point x="60" y="396" type="curve"/>
      <point x="89" y="372" type="line"/>
      <point x="127" y="401"/>
      <point x="188" y="448"/>
      <point x="197" y="491" type="curve" smooth="yes"/>
      <point x="204" y="528"/>
      <point x="189" y="556"/>
      <point x="151" y="556" type="curve" smooth="yes"/>
      <point x="118" y="556"/>
      <point x="98" y="538"/>
      <point x="92" y="511" type="curve" smooth="yes"/>
      <point x="87" y="484"/>
      <point x="102" y="459"/>
      <point x="126" y="454" type="curve"/>
      <point x="121" y="467" type="line"/>
    </contour>
  </outline>
</glyph>
<glyph name="dagger" format="1">
  <advance width="366"/>
  <unicode hex="2020"/>
  <outline>
    <contour>
      <point x="143" y="427" type="line"/>
      <point x="45" y="420" type="line"/>
      <point x="60" y="495" type="line"/>
      <point x="155" y="487" type="line"/>
      <point x="167" y="596" type="line"/>
      <point x="252" y="596" type="line"/>
      <point x="222" y="487" type="line"/>
      <point x="321" y="495" type="line"/>
      <point x="306" y="417" type="line"/>
      <point x="210" y="424" type="line"/>
      <point x="145" y="48" type="line"/>
      <point x="60" y="48" type="line"/>
    </contour>
  </outline>
</glyph>
<glyph name="daggerdbl" format="1">
  <advance width="453"/>
  <unicode hex="2021"/>
  <outline>
    <contour>
      <point x="196" y="291"/>
      <point x="215" y="375"/>
      <point x="229" y="428" type="curve"/>
      <point x="133" y="424" type="line"/>
      <point x="147" y="495" type="line"/>
      <point x="242" y="487" type="line"/>
      <point x="254" y="596" type="line"/>
      <point x="339" y="596" type="line"/>
      <point x="309" y="487" type="line"/>
      <point x="408" y="495" type="line"/>
      <point x="393" y="417" type="line"/>
      <point x="297" y="427" type="line"/>
      <point x="290" y="372"/>
      <point x="280" y="298"/>
      <point x="269" y="240" type="curve" smooth="yes"/>
      <point x="256" y="174"/>
      <point x="238" y="95"/>
      <point x="223" y="40" type="curve"/>
      <point x="322" y="44" type="line"/>
      <point x="306" y="-29" type="line"/>
      <point x="210" y="-21" type="line"/>
      <point x="198" y="-130" type="line"/>
      <point x="113" y="-130" type="line"/>
      <point x="143" y="-21" type="line"/>
      <point x="45" y="-29" type="line"/>
      <point x="61" y="49" type="line"/>
      <point x="154" y="39" type="line"/>
      <point x="160" y="92"/>
      <point x="172" y="169"/>
      <point x="183" y="226" type="curve" smooth="yes"/>
    </contour>
  </outline>
</glyph>
<glyph name="ellipsis" format="1">
  <advance width="512"/>
  <unicode hex="2026"/>
  <outline>
    <contour>
      <point x="121" y="-11"/>
      <point x="142" y="13"/>
      <point x="142" y="47" type="curve" smooth="yes"/>
      <point x="142" y="75"/>
      <point x="122" y="97"/>
      <point x="94" y="97" type="curve" smooth="yes"/>
      <point x="57" y="97"/>
      <point x="35" y="73"/>
      <point x="35" y="39" type="curve" smooth="yes"/>
      <point x="35" y="10"/>
      <point x="55" y="-11"/>
      <point x="82" y="-11" type="curve" smooth="yes"/>
    </contour>
    <contour>
      <point x="288" y="-11"/>
      <point x="309" y="13"/>
      <point x="309" y="47" type="curve" smooth="yes"/>
      <point x="309" y="75"/>
      <point x="289" y="97"/>
      <point x="261" y="97" type="curve" smooth="yes"/>
      <point x="224" y="97"/>
      <point x="202" y="73"/>
      <point x="202" y="39" type="curve" smooth="yes"/>
      <point x="202" y="10"/>
      <point x="222" y="-11"/>
      <point x="249" y="-11" type="curve" smooth="yes"/>
    </contour>
    <contour>
      <point x="456" y="-11"/>
      <point x="477" y="13"/>
      <point x="477" y="47" type="curve" smooth="yes"/>
      <point x="477" y="75"/>
      <point x="457" y="97"/>
      <point x="429" y="97" type="curve" smooth="yes"/>
      <point x="392" y="97"/>
      <point x="370" y="73"/>
      <point x="370" y="39" type="curve" smooth="yes"/>
      <point x="370" y="10"/>
      <point x="390" y="-11"/>
      <point x="417" y="-11" type="curve" smooth="yes"/>
    </contour>
  </outline>
</glyph>
<glyph name="guilsinglleft" format="1">
  <advance width="276"/>
  <unicode hex="2039"/>
  <outline>
    <contour>
      <point x="256" y="404" type="line"/>
      <point x="110" y="235" type="line"/>
      <point x="189" y="80" type="line"/>
      <point x="110" y="80" type="line"/>
      <point x="29" y="241" type="line"/>
      <point x="175" y="404" type="line"/>
    </contour>
  </outline>
</glyph>
<glyph name="guilsinglright" format="1">
  <advance width="276"/>
  <unicode hex="203A"/>
  <outline>
    <contour>
      <point x="20" y="81" type="line"/>
      <point x="166" y="250" type="line"/>
      <point x="87" y="405" type="line"/>
      <point x="166" y="405" type="line"/>
      <point x="247" y="244" type="line"/>
      <point x="101" y="81" type="line"/>
    </contour>
  </outline>
</glyph>
<glyph name="Euro" format="1">
  <advance width="550"/>
  <unicode hex="20AC"/>
  <outline>
    <contour>
      <point x="416" y="479"/>
      <point x="468" y="464"/>
      <point x="518" y="436" type="curve"/>
      <point x="479" y="370" type="line"/>
      <point x="431" y="393"/>
      <point x="389" y="398"/>
      <point x="351" y="398" type="curve" smooth="yes"/>
      <point x="229" y="398"/>
      <point x="180" y="299"/>
      <point x="180" y="189" type="curve" smooth="yes"/>
      <point x="180" y="115"/>
      <point x="230" y="76"/>
      <point x="313" y="76" type="curve" smooth="yes"/>
      <point x="350" y="76"/>
      <point x="374" y="77"/>
      <point x="438" y="102" type="curve"/>
      <point x="448" y="28" type="line"/>
      <point x="393" y="4"/>
      <point x="344" y="-9"/>
      <point x="279" y="-9" type="curve" smooth="yes"/>
      <point x="153" y="-9"/>
      <point x="86" y="95"/>
      <point x="86" y="191" type="curve" smooth="yes"/>
      <point x="86" y="331"/>
      <point x="160" y="479"/>
      <point x="365" y="479" type="curve" smooth="yes"/>
    </contour>
    <contour>
      <point x="384" y="220" type="line"/>
      <point x="369" y="145" type="line"/>
      <point x="10" y="145" type="line"/>
      <point x="25" y="220" type="line"/>
    </contour>
    <contour>
      <point x="407" y="339" type="line"/>
      <point x="393" y="264" type="line"/>
      <point x="34" y="264" type="line"/>
      <point x="48" y="339" type="line"/>
    </contour>
  </outline>
</glyph>
<glyph name="partialdiff" format="1">
  <advance width="442"/>
  <unicode hex="2202"/>
  <outline>
    <contour>
      <point x="320" y="200"/>
      <point x="320" y="274" type="curve" smooth="yes"/>
      <point x="321" y="344"/>
      <point x="299" y="400"/>
      <point x="235" y="400" type="curve" smooth="yes"/>
      <point x="204" y="400"/>
      <point x="147" y="380"/>
      <point x="116" y="365" type="curve"/>
      <point x="97" y="437" type="line"/>
      <point x="144" y="454"/>
      <point x="200" y="475"/>
      <point x="257" y="475" type="curve" smooth="yes"/>
      <point x="370" y="475"/>
      <point x="412" y="372"/>
      <point x="412" y="273" type="curve" smooth="yes"/>
      <point x="412" y="161"/>
      <point x="359" y="-10"/>
      <point x="178" y="-10" type="curve" smooth="yes"/>
      <point x="85" y="-10"/>
      <point x="35" y="60"/>
      <point x="35" y="125" type="curve" smooth="yes"/>
      <point x="35" y="216"/>
      <point x="94" y="307"/>
      <point x="236" y="307" type="curve" smooth="yes"/>
      <point x="277" y="307"/>
      <point x="313" y="300"/>
      <point x="354" y="278" type="curve"/>
      <point x="334" y="200" type="line"/>
      <point x="294" y="217"/>
      <point x="257" y="224"/>
      <point x="222" y="224" type="curve" smooth="yes"/>
      <point x="146" y="224"/>
      <point x="126" y="189"/>
      <point x="126" y="135" type="curve" smooth="yes"/>
      <point x="126" y="95"/>
      <point x="152" y="73"/>
      <point x="196" y="73" type="curve" smooth="yes"/>
      <point x="297" y="73"/>
    </contour>
  </outline>
</glyph>
<glyph name="increment" format="1">
  <advance width="464"/>
  <unicode hex="2206"/>
  <outline>
    <contour>
      <point x="32" y="0" type="line"/>
      <point x="32" y="50" type="line"/>
      <point x="183" y="466" type="line"/>
      <point x="283" y="466" type="line"/>
      <point x="432" y="50" type="line"/>
      <point x="432" y="0" type="line"/>
    </contour>
    <contour>
      <point x="126" y="70" type="line"/>
      <point x="336" y="70" type="line"/>
      <point x="232" y="375" type="line"/>
    </contour>
  </outline>
</glyph>
<glyph name="summation" format="1">
  <advance width="577"/>
  <unicode hex="2211"/>
  <outline>
    <contour>
      <point x="257" y="421" type="line"/>
      <point x="391" y="234" type="line"/>
      <point x="394" y="194" type="line"/>
      <point x="192" y="4" type="line"/>
      <point x="443" y="4" type="line"/>
      <point x="428" y="-74" type="line"/>
      <point x="58" y="-74" type="line"/>
      <point x="50" y="-17" type="line"/>
      <point x="299" y="217" type="line"/>
      <point x="137" y="444" type="line"/>
      <point x="149" y="501" type="line"/>
      <point x="539" y="501" type="line"/>
      <point x="524" y="421" type="line"/>
    </contour>
  </outline>
</glyph>
<glyph name="minus" format="1">
  <advance width="484"/>
  <unicode hex="2212"/>
  <outline>
    <contour>
      <point x="434" y="267" type="line"/>
      <point x="434" y="187" type="line"/>
      <point x="50" y="187" type="line"/>
      <point x="50" y="267" type="line"/>
    </contour>
  </outline>
</glyph>
<glyph name="bulletoperator" format="1">
  <advance width="328"/>
  <unicode hex="2219"/>
  <outline>
    <contour>
      <point x="214" y="142"/>
      <point x="248" y="185"/>
      <point x="248" y="236" type="curve" smooth="yes"/>
      <point x="248" y="278"/>
      <point x="217" y="310"/>
      <point x="175" y="310" type="curve" smooth="yes"/>
      <point x="114" y="310"/>
      <point x="80" y="267"/>
      <point x="80" y="216" type="curve" smooth="yes"/>
      <point x="80" y="174"/>
      <point x="111" y="142"/>
      <point x="153" y="142" type="curve" smooth="yes"/>
    </contour>
  </outline>
</glyph>
<glyph name="radical" format="1">
  <advance width="521"/>
  <unicode hex="221A"/>
  <outline>
    <contour>
      <point x="505" y="535" type="line"/>
      <point x="267" y="-35" type="line"/>
      <point x="168" y="-35" type="line"/>
      <point x="120" y="154" type="line"/>
      <point x="43" y="124" type="line"/>
      <point x="25" y="192" type="line"/>
      <point x="178" y="253" type="line"/>
      <point x="222" y="53" type="line"/>
      <point x="430" y="549" type="line"/>
    </contour>
  </outline>
</glyph>
<glyph name="integral" format="1">
  <advance width="397"/>
  <unicode hex="222B"/>
  <outline>
    <contour>
      <point x="142" y="278"/>
      <point x="129" y="363"/>
      <point x="129" y="410" type="curve" smooth="yes"/>
      <point x="129" y="505"/>
      <point x="184" y="564"/>
      <point x="282" y="564" type="curve" smooth="yes"/>
      <point x="323" y="564"/>
      <point x="348" y="549"/>
      <point x="367" y="540" type="curve"/>
      <point x="319" y="464" type="line"/>
      <point x="306" y="469"/>
      <point x="292" y="475"/>
      <point x="274" y="475" type="curve" smooth="yes"/>
      <point x="226" y="475"/>
      <point x="220" y="432"/>
      <point x="220" y="397" type="curve" smooth="yes"/>
      <point x="220" y="353"/>
      <point x="231" y="296"/>
      <point x="244" y="211" type="curve"/>
      <point x="254" y="154"/>
      <point x="267" y="79"/>
      <point x="267" y="34" type="curve" smooth="yes"/>
      <point x="267" y="-63"/>
      <point x="213" y="-126"/>
      <point x="125" y="-126" type="curve" smooth="yes"/>
      <point x="80" y="-126"/>
      <point x="45" y="-111"/>
      <point x="30" y="-102" type="curve"/>
      <point x="76" y="-27" type="line"/>
      <point x="89" y="-32"/>
      <point x="103" y="-38"/>
      <point x="121" y="-38" type="curve" smooth="yes"/>
      <point x="169" y="-38"/>
      <point x="177" y="1"/>
      <point x="177" y="36" type="curve" smooth="yes"/>
      <point x="177" y="78"/>
      <point x="166" y="128"/>
      <point x="160" y="165" type="curve"/>
    </contour>
  </outline>
</glyph>
<glyph name="approxequal" format="1">
  <advance width="508"/>
  <unicode hex="2248"/>
  <outline>
    <contour>
      <point x="226" y="270"/>
      <point x="203" y="285"/>
      <point x="169" y="285" type="curve" smooth="yes"/>
      <point x="141" y="285"/>
      <point x="117" y="266"/>
      <point x="101" y="253" type="curve"/>
      <point x="55" y="322" type="line"/>
      <point x="86" y="345"/>
      <point x="132" y="369"/>
      <point x="169" y="369" type="curve" smooth="yes"/>
      <point x="200" y="369"/>
      <point x="229" y="360"/>
      <point x="257" y="347" type="curve"/>
      <point x="287" y="334"/>
      <point x="310" y="321"/>
      <point x="344" y="321" type="curve" smooth="yes"/>
      <point x="371" y="321"/>
      <point x="391" y="337"/>
      <point x="408" y="350" type="curve"/>
      <point x="453" y="280" type="line"/>
      <point x="423" y="257"/>
      <point x="381" y="236"/>
      <point x="344" y="236" type="curve" smooth="yes"/>
      <point x="317" y="236"/>
      <point x="283" y="248"/>
      <point x="256" y="258" type="curve"/>
    </contour>
    <contour>
      <point x="226" y="110"/>
      <point x="203" y="125"/>
      <point x="169" y="125" type="curve" smooth="yes"/>
      <point x="141" y="125"/>
      <point x="117" y="106"/>
      <point x="101" y="93" type="curve"/>
      <point x="55" y="162" type="line"/>
      <point x="86" y="185"/>
      <point x="132" y="209"/>
      <point x="169" y="209" type="curve" smooth="yes"/>
      <point x="200" y="209"/>
      <point x="229" y="200"/>
      <point x="257" y="187" type="curve"/>
      <point x="287" y="174"/>
      <point x="310" y="161"/>
      <point x="344" y="161" type="curve" smooth="yes"/>
      <point x="371" y="161"/>
      <point x="391" y="177"/>
      <point x="408" y="190" type="curve"/>
      <point x="453" y="120" type="line"/>
      <point x="423" y="97"/>
      <point x="381" y="76"/>
      <point x="344" y="76" type="curve" smooth="yes"/>
      <point x="317" y="76"/>
      <point x="283" y="88"/>
      <point x="256" y="98" type="curve"/>
    </contour>
  </outline>
</glyph>
<glyph name="notequal" format="1">
  <advance width="534"/>
  <unicode hex="2260"/>
  <outline>
    <contour>
      <point x="388" y="456" type="line"/>
      <point x="239" y="0" type="line"/>
      <point x="157" y="0" type="line"/>
      <point x="306" y="456" type="line"/>
    </contour>
    <component base="equal"/>
  </outline>
</glyph>
<glyph name="lessequal" format="1">
  <advance width="437"/>
  <unicode hex="2264"/>
  <outline>
    <contour>
      <point x="41" y="274" type="line"/>
      <point x="389" y="382" type="line"/>
      <point x="389" y="311" type="line"/>
      <point x="139" y="242" type="line"/>
      <point x="389" y="174" type="line"/>
      <point x="389" y="102" type="line"/>
      <point x="41" y="210" type="line"/>
    </contour>
    <contour>
      <point x="389" y="64" type="line"/>
      <point x="389" y="0" type="line"/>
      <point x="40" y="0" type="line"/>
      <point x="40" y="64" type="line"/>
    </contour>
  </outline>
</glyph>
<glyph name="lozenge" format="1">
  <advance width="417"/>
  <unicode hex="25CA"/>
  <outline>
    <contour>
      <point x="207" y="0" type="line"/>
      <point x="145" y="0" type="line"/>
      <point x="25" y="208" type="line"/>
      <point x="208" y="418" type="line"/>
      <point x="270" y="418" type="line"/>
      <point x="392" y="208" type="line"/>
    </contour>
    <contour>
      <point x="230" y="333" type="line"/>
      <point x="118" y="208" type="line"/>
      <point x="185" y="84" type="line"/>
      <point x="299" y="208" type="line"/>
    </contour>
  </outline>
</glyph>
<glyph name="fi" format="1">
  <advance width="552"/>
  <unicode hex="FB01"/>
  <outline>
    <contour>
      <point x="448" y="0" type="line"/>
      <point x="352" y="0" type="line"/>
      <point x="427" y="384" type="line"/>
      <point x="523" y="384" type="line"/>
    </contour>
    <contour>
      <point x="516" y="449"/>
      <point x="545" y="473"/>
      <point x="551" y="503" type="curve" smooth="yes"/>
      <point x="558" y="541"/>
      <point x="534" y="571"/>
      <point x="498" y="571" type="curve" smooth="yes"/>
      <point x="466" y="571"/>
      <point x="438" y="549"/>
      <point x="432" y="517" type="curve" smooth="yes"/>
      <point x="425" y="479"/>
      <point x="448" y="449"/>
      <point x="484" y="449" type="curve" smooth="yes"/>
    </contour>
    <contour>
      <point x="119" y="490"/>
      <point x="151" y="554"/>
      <point x="294" y="554" type="curve" smooth="yes"/>
      <point x="315" y="554"/>
      <point x="339" y="551"/>
      <point x="366" y="544" type="curve"/>
      <point x="335" y="474" type="line"/>
      <point x="321" y="477"/>
      <point x="305" y="478"/>
      <point x="291" y="478" type="curve" smooth="yes"/>
      <point x="231" y="478"/>
      <point x="208" y="459"/>
      <point x="201" y="420" type="curve" smooth="yes"/>
      <point x="194" y="384" type="line"/>
      <point x="327" y="384" type="line"/>
      <point x="312" y="309" type="line"/>
      <point x="176" y="309" type="line"/>
      <point x="119" y="0" type="line"/>
      <point x="28" y="0" type="line"/>
      <point x="84" y="309" type="line"/>
      <point x="10" y="309" type="line"/>
      <point x="25" y="384" type="line"/>
      <point x="99" y="384" type="line"/>
      <point x="104" y="411" type="line" smooth="yes"/>
    </contour>
  </outline>
</glyph>
<glyph name="acute.cap" format="1">
  <advance width="261"/>
  <outline>
    <contour>
      <point x="46" y="570" type="line"/>
      <point x="275" y="653" type="line"/>
      <point x="241" y="736" type="line"/>
      <point x="16" y="631" type="line"/>
    </contour>
    <contour>
      <point x="149" y="550" type="move" name="_top.cap"/>
    </contour>
  </outline>
</glyph>
<glyph name="breve.cap" format="1">
  <advance width="276"/>
  <outline>
    <component base="breve" xOffset="15" yOffset="152"/>
    <contour>
      <point x="138" y="550" type="move" name="_top.cap"/>
    </contour>
  </outline>
</glyph>
<glyph name="candrabindudeva.alt1" format="1">
  <advance width="47"/>
  <outline>
    <contour>
      <point x="20" y="629"/>
      <point x="33" y="639"/>
      <point x="36" y="655" type="curve" smooth="yes"/>
      <point x="41" y="679"/>
      <point x="27" y="696"/>
      <point x="5" y="696" type="curve" smooth="yes"/>
      <point x="-13" y="696"/>
      <point x="-25" y="685"/>
      <point x="-28" y="669" type="curve" smooth="yes"/>
      <point x="-33" y="645"/>
      <point x="-20" y="629"/>
      <point x="2" y="629" type="curve" smooth="yes"/>
    </contour>
    <contour>
      <point x="55" y="545"/>
      <point x="98" y="580"/>
      <point x="120" y="626" type="curve"/>
      <point x="75" y="653" type="line"/>
      <point x="54" y="617"/>
      <point x="30" y="597"/>
      <point x="-4" y="597" type="curve" smooth="yes"/>
      <point x="-34" y="597"/>
      <point x="-53" y="611"/>
      <point x="-61" y="647" type="curve"/>
      <point x="-111" y="631" type="line"/>
      <point x="-104" y="585"/>
      <point x="-73" y="545"/>
      <point x="-7" y="545" type="curve" smooth="yes"/>
    </contour>
    <contour>
      <point x="-121" y="447" type="move" name="_top"/>
    </contour>
  </outline>
</glyph>
<glyph name="candrabindudeva.alt2" format="1">
  <advance width="47"/>
  <outline>
    <contour>
      <point x="45" y="629"/>
      <point x="58" y="639"/>
      <point x="61" y="655" type="curve" smooth="yes"/>
      <point x="66" y="679"/>
      <point x="52" y="696"/>
      <point x="30" y="696" type="curve" smooth="yes"/>
      <point x="12" y="696"/>
      <point x="0" y="685"/>
      <point x="-3" y="669" type="curve" smooth="yes"/>
      <point x="-8" y="645"/>
      <point x="5" y="629"/>
      <point x="27" y="629" type="curve" smooth="yes"/>
    </contour>
    <contour>
      <point x="80" y="545"/>
      <point x="123" y="580"/>
      <point x="145" y="626" type="curve"/>
      <point x="100" y="653" type="line"/>
      <point x="79" y="617"/>
      <point x="55" y="597"/>
      <point x="21" y="597" type="curve" smooth="yes"/>
      <point x="-9" y="597"/>
      <point x="-28" y="611"/>
      <point x="-36" y="647" type="curve"/>
      <point x="-86" y="631" type="line"/>
      <point x="-79" y="585"/>
      <point x="-48" y="545"/>
      <point x="18" y="545" type="curve" smooth="yes"/>
    </contour>
    <contour>
      <point x="-101" y="447" type="move" name="_top"/>
    </contour>
  </outline>
</glyph>
<glyph name="dieresis.cap" format="1">
  <advance width="242"/>
  <outline>
    <contour>
      <point x="83" y="603"/>
      <point x="106" y="622"/>
      <point x="111" y="646" type="curve" smooth="yes"/>
      <point x="117" y="677"/>
      <point x="97" y="702"/>
      <point x="68" y="702" type="curve" smooth="yes"/>
      <point x="42" y="702"/>
      <point x="19" y="683"/>
      <point x="14" y="660" type="curve" smooth="yes"/>
      <point x="8" y="628"/>
      <point x="28" y="603"/>
      <point x="58" y="603" type="curve" smooth="yes"/>
    </contour>
    <contour>
      <point x="240" y="603"/>
      <point x="263" y="622"/>
      <point x="268" y="646" type="curve" smooth="yes"/>
      <point x="274" y="677"/>
      <point x="254" y="702"/>
      <point x="225" y="702" type="curve" smooth="yes"/>
      <point x="199" y="702"/>
      <point x="176" y="683"/>
      <point x="171" y="660" type="curve" smooth="yes"/>
      <point x="165" y="628"/>
      <point x="185" y="603"/>
      <point x="215" y="603" type="curve" smooth="yes"/>
    </contour>
    <contour>
      <point x="131" y="550" type="move" name="_top.cap"/>
    </contour>
  </outline>
</glyph>
<glyph name="evowelsigndeva_uni0930094D" format="1">
  <advance width="600"/>
  <outline>
    <contour>
      <point x="-88" y="478"/>
      <point x="-110" y="507"/>
      <point x="-110" y="539" type="curve" smooth="yes"/>
      <point x="-110" y="569"/>
      <point x="-94" y="599"/>
      <point x="-36" y="599" type="curve" smooth="yes"/>
      <point x="-13" y="599"/>
      <point x="0" y="593"/>
      <point x="11" y="588" type="curve"/>
      <point x="52" y="646" type="line"/>
      <point x="30" y="658"/>
      <point x="3" y="669"/>
      <point x="-36" y="669" type="curve" smooth="yes"/>
      <point x="-83" y="669"/>
      <point x="-131" y="648"/>
      <point x="-160" y="603" type="curve"/>
      <point x="-189" y="638"/>
      <point x="-206" y="658"/>
      <point x="-250" y="658" type="curve"/>
      <point x="-280" y="659"/>
      <point x="-301" y="653"/>
      <point x="-326" y="645" type="curve"/>
      <point x="-302" y="579" type="line"/>
      <point x="-287" y="583"/>
      <point x="-276" y="586"/>
      <point x="-254" y="586" type="curve"/>
      <point x="-235" y="586"/>
      <point x="-223" y="571"/>
      <point x="-207" y="544" type="curve" smooth="yes"/>
      <point x="-142" y="437" type="line"/>
      <point x="-58" y="437" type="line"/>
    </contour>
    <contour>
      <point x="-114" y="447" type="move" name="_top"/>
    </contour>
  </outline>
</glyph>
<glyph name="evowelsigndeva_uni0930094D_cand" format="1">
  <advance width="600"/>
  <outline>
    <contour>
      <point x="60" y="558"/>
      <point x="70" y="567"/>
      <point x="73" y="579" type="curve" smooth="yes"/>
      <point x="76" y="598"/>
      <point x="64" y="613"/>
      <point x="47" y="613" type="curve" smooth="yes"/>
      <point x="32" y="613"/>
      <point x="22" y="603"/>
      <point x="20" y="592" type="curve" smooth="yes"/>
      <point x="16" y="572"/>
      <point x="28" y="558"/>
      <point x="47" y="558" type="curve" smooth="yes"/>
    </contour>
    <contour>
      <point x="91" y="488"/>
      <point x="123" y="516"/>
      <point x="144" y="555" type="curve"/>
      <point x="107" y="577" type="line"/>
      <point x="91" y="548"/>
      <point x="72" y="530"/>
      <point x="43" y="530" type="curve" smooth="yes"/>
      <point x="19" y="530"/>
      <point x="1" y="542"/>
      <point x="-6" y="571" type="curve"/>
      <point x="-45" y="560" type="line"/>
      <point x="-43" y="521"/>
      <point x="-10" y="488"/>
      <point x="40" y="488" type="curve" smooth="yes"/>
    </contour>
    <contour>
      <point x="-27" y="598"/>
      <point x="-19" y="598"/>
      <point x="-10" y="596" type="curve"/>
      <point x="18" y="664" type="line"/>
      <point x="3" y="667"/>
      <point x="-13" y="669"/>
      <point x="-34" y="669" type="curve" smooth="yes"/>
      <point x="-94" y="669"/>
      <point x="-135" y="640"/>
      <point x="-155" y="603" type="curve"/>
      <point x="-183" y="641"/>
      <point x="-211" y="659"/>
      <point x="-255" y="659" type="curve" smooth="yes"/>
      <point x="-280" y="659"/>
      <point x="-299" y="653"/>
      <point x="-324" y="645" type="curve"/>
      <point x="-300" y="579" type="line"/>
      <point x="-284" y="584"/>
      <point x="-269" y="586"/>
      <point x="-253" y="586" type="curve" smooth="yes"/>
      <point x="-234" y="586"/>
      <point x="-225" y="576"/>
      <point x="-208" y="550" type="curve"/>
      <point x="-141" y="437" type="line"/>
      <point x="-57" y="437" type="line"/>
      <point x="-80" y="471"/>
      <point x="-105" y="501"/>
      <point x="-105" y="539" type="curve" smooth="yes"/>
      <point x="-105" y="570"/>
      <point x="-85" y="598"/>
      <point x="-35" y="598" type="curve" smooth="yes"/>
    </contour>
    <contour>
      <point x="-94" y="447" type="move" name="_top"/>
    </contour>
  </outline>
</glyph>
<glyph name="iiMatra_reph-deva.alt2" format="1">
  <advance width="223"/>
  <outline>
    <contour>
      <point x="-11" y="466" type="line"/>
      <point x="-24" y="396" type="line"/>
      <point x="232" y="396" type="line"/>
      <point x="245" y="466" type="line"/>
    </contour>
    <contour>
      <point x="-12" y="0" type="line"/>
      <point x="73" y="0" type="line"/>
      <point x="163" y="466" type="line"/>
      <point x="78" y="466" type="line"/>
    </contour>
    <contour>
      <point x="133" y="571"/>
      <point x="155" y="597"/>
      <point x="203" y="597" type="curve" smooth="yes"/>
      <point x="233" y="597"/>
      <point x="252" y="585"/>
      <point x="266" y="576" type="curve"/>
      <point x="316" y="631" type="line"/>
      <point x="295" y="649"/>
      <point x="257" y="669"/>
      <point x="207" y="669" type="curve" smooth="yes"/>
      <point x="147" y="669"/>
      <point x="107" y="639"/>
      <point x="86" y="602" type="curve"/>
      <point x="51" y="634"/>
      <point x="3" y="659"/>
      <point x="-56" y="659" type="curve" smooth="yes"/>
      <point x="-146" y="659"/>
      <point x="-210" y="607"/>
      <point x="-221" y="545" type="curve" smooth="yes"/>
      <point x="-233" y="478"/>
      <point x="-201" y="439"/>
      <point x="-201" y="439" type="curve"/>
      <point x="-104" y="437" type="line"/>
      <point x="-120" y="450"/>
      <point x="-155" y="481"/>
      <point x="-146" y="527" type="curve" smooth="yes"/>
      <point x="-139" y="562"/>
      <point x="-103" y="584"/>
      <point x="-61" y="584" type="curve" smooth="yes"/>
      <point x="2" y="584"/>
      <point x="67" y="563"/>
      <point x="80" y="439" type="curve"/>
      <point x="163" y="439" type="line"/>
      <point x="145" y="480"/>
      <point x="133" y="505"/>
      <point x="133" y="537" type="curve"/>
    </contour>
  </outline>
</glyph>
<glyph name="iiMatra_reph-deva.alt3" format="1">
  <advance width="224"/>
  <outline>
    <contour>
      <point x="-9" y="466" type="line"/>
      <point x="-23" y="396" type="line"/>
      <point x="233" y="396" type="line"/>
      <point x="247" y="466" type="line"/>
    </contour>
    <contour>
      <point x="-11" y="0" type="line"/>
      <point x="74" y="0" type="line"/>
      <point x="165" y="466" type="line"/>
      <point x="80" y="466" type="line"/>
    </contour>
    <contour>
      <point x="236" y="597"/>
      <point x="255" y="585"/>
      <point x="269" y="576" type="curve"/>
      <point x="319" y="631" type="line"/>
      <point x="298" y="649"/>
      <point x="260" y="669"/>
      <point x="210" y="669" type="curve" smooth="yes"/>
      <point x="152" y="669"/>
      <point x="115" y="640"/>
      <point x="93" y="606" type="curve"/>
      <point x="62" y="636"/>
      <point x="17" y="659"/>
      <point x="-35" y="659" type="curve" smooth="yes"/>
      <point x="-125" y="659"/>
      <point x="-185" y="607"/>
      <point x="-196" y="545" type="curve" smooth="yes"/>
      <point x="-208" y="478"/>
      <point x="-176" y="439"/>
      <point x="-176" y="439" type="curve"/>
      <point x="-79" y="439" type="line"/>
      <point x="-94" y="452"/>
      <point x="-129" y="481"/>
      <point x="-120" y="527" type="curve" smooth="yes"/>
      <point x="-114" y="562"/>
      <point x="-81" y="584"/>
      <point x="-39" y="584" type="curve" smooth="yes"/>
      <point x="14" y="584"/>
      <point x="69" y="563"/>
      <point x="81" y="439" type="curve"/>
      <point x="163" y="439" type="line"/>
      <point x="148" y="480"/>
      <point x="137" y="501"/>
      <point x="137" y="536" type="curve" smooth="yes"/>
      <point x="137" y="570"/>
      <point x="158" y="597"/>
      <point x="206" y="597" type="curve" smooth="yes"/>
    </contour>
  </outline>
</glyph>
<glyph name="iiMatra_reph-deva.alt4" format="1">
  <advance width="223"/>
  <outline>
    <contour>
      <point x="-10" y="466" type="line"/>
      <point x="-24" y="396" type="line"/>
      <point x="232" y="396" type="line"/>
      <point x="246" y="466" type="line"/>
    </contour>
    <contour>
      <point x="-12" y="0" type="line"/>
      <point x="73" y="0" type="line"/>
      <point x="164" y="466" type="line"/>
      <point x="79" y="466" type="line"/>
    </contour>
    <contour>
      <point x="237" y="597"/>
      <point x="256" y="585"/>
      <point x="270" y="576" type="curve"/>
      <point x="320" y="631" type="line"/>
      <point x="299" y="649"/>
      <point x="261" y="669"/>
      <point x="211" y="669" type="curve" smooth="yes"/>
      <point x="154" y="669"/>
      <point x="116" y="643"/>
      <point x="93" y="606" type="curve"/>
      <point x="65" y="634"/>
      <point x="26" y="659"/>
      <point x="-21" y="659" type="curve" smooth="yes"/>
      <point x="-111" y="659"/>
      <point x="-172" y="607"/>
      <point x="-183" y="545" type="curve" smooth="yes"/>
      <point x="-195" y="478"/>
      <point x="-163" y="439"/>
      <point x="-162" y="439" type="curve" smooth="yes"/>
      <point x="-66" y="439" type="line"/>
      <point x="-81" y="452"/>
      <point x="-116" y="481"/>
      <point x="-107" y="527" type="curve" smooth="yes"/>
      <point x="-100" y="562"/>
      <point x="-68" y="584"/>
      <point x="-26" y="584" type="curve" smooth="yes"/>
      <point x="17" y="584"/>
      <point x="68" y="563"/>
      <point x="81" y="439" type="curve"/>
      <point x="162" y="439" type="line"/>
      <point x="151" y="473"/>
      <point x="138" y="497"/>
      <point x="138" y="530" type="curve"/>
      <point x="138" y="574"/>
      <point x="159" y="597"/>
      <point x="207" y="597" type="curve" smooth="yes"/>
    </contour>
  </outline>
</glyph>
<glyph name="iiMatra_reph-deva" format="1">
  <advance width="223"/>
  <outline>
    <contour>
      <point x="-10" y="466" type="line"/>
      <point x="-24" y="396" type="line"/>
      <point x="232" y="396" type="line"/>
      <point x="246" y="466" type="line"/>
    </contour>
    <contour>
      <point x="-12" y="0" type="line"/>
      <point x="73" y="0" type="line"/>
      <point x="164" y="466" type="line"/>
      <point x="79" y="466" type="line"/>
    </contour>
    <contour>
      <point x="139" y="570"/>
      <point x="157" y="597"/>
      <point x="207" y="597" type="curve" smooth="yes"/>
      <point x="237" y="597"/>
      <point x="256" y="583"/>
      <point x="270" y="576" type="curve"/>
      <point x="320" y="631" type="line"/>
      <point x="296" y="649"/>
      <point x="261" y="669"/>
      <point x="211" y="669" type="curve" smooth="yes"/>
      <point x="157" y="669"/>
      <point x="117" y="645"/>
      <point x="94" y="615" type="curve"/>
      <point x="70" y="640"/>
      <point x="37" y="659"/>
      <point x="-2" y="659" type="curve" smooth="yes"/>
      <point x="-101" y="659"/>
      <point x="-150" y="607"/>
      <point x="-161" y="545" type="curve" smooth="yes"/>
      <point x="-173" y="478"/>
      <point x="-138" y="439"/>
      <point x="-138" y="439" type="curve"/>
      <point x="-44" y="439" type="line"/>
      <point x="-59" y="452"/>
      <point x="-94" y="481"/>
      <point x="-85" y="527" type="curve" smooth="yes"/>
      <point x="-79" y="562"/>
      <point x="-53" y="582"/>
      <point x="-7" y="582" type="curve" smooth="yes"/>
      <point x="32" y="582"/>
      <point x="68" y="563"/>
      <point x="80" y="439" type="curve"/>
      <point x="160" y="433" type="line"/>
      <point x="160" y="438" type="line"/>
      <point x="173" y="438" type="line"/>
      <point x="156" y="461"/>
      <point x="139" y="490"/>
      <point x="139" y="530" type="curve"/>
    </contour>
  </outline>
</glyph>
<glyph name="iiMatra_reph_anusvara-deva.alt1" format="1">
  <advance width="222"/>
  <outline>
    <contour>
      <point x="211" y="501"/>
      <point x="225" y="512"/>
      <point x="228" y="528" type="curve" smooth="yes"/>
      <point x="232" y="550"/>
      <point x="220" y="565"/>
      <point x="199" y="565" type="curve" smooth="yes"/>
      <point x="182" y="565"/>
      <point x="169" y="554"/>
      <point x="166" y="537" type="curve" smooth="yes"/>
      <point x="162" y="516"/>
      <point x="174" y="501"/>
      <point x="194" y="501" type="curve" smooth="yes"/>
    </contour>
    <component base="iiMatra_reph-deva.alt1"/>
  </outline>
</glyph>
<glyph name="iiMatra_reph_anusvara-deva.alt2" format="1">
  <advance width="223"/>
  <outline>
    <contour>
      <point x="218" y="501"/>
      <point x="232" y="512"/>
      <point x="235" y="528" type="curve" smooth="yes"/>
      <point x="239" y="550"/>
      <point x="227" y="565"/>
      <point x="206" y="565" type="curve" smooth="yes"/>
      <point x="189" y="565"/>
      <point x="176" y="554"/>
      <point x="173" y="537" type="curve" smooth="yes"/>
      <point x="169" y="516"/>
      <point x="181" y="501"/>
      <point x="201" y="501" type="curve" smooth="yes"/>
    </contour>
    <component base="iiMatra_reph-deva.alt2"/>
  </outline>
</glyph>
<glyph name="iiMatra_reph_anusvara-deva.alt4" format="1">
  <advance width="223"/>
  <outline>
    <contour>
      <point x="221" y="501"/>
      <point x="235" y="512"/>
      <point x="238" y="528" type="curve" smooth="yes"/>
      <point x="242" y="550"/>
      <point x="230" y="565"/>
      <point x="209" y="565" type="curve" smooth="yes"/>
      <point x="192" y="565"/>
      <point x="179" y="554"/>
      <point x="176" y="537" type="curve" smooth="yes"/>
      <point x="172" y="516"/>
      <point x="184" y="501"/>
      <point x="204" y="501" type="curve" smooth="yes"/>
    </contour>
    <component base="iiMatra_reph-deva.alt4"/>
  </outline>
</glyph>
<glyph name="iiMatra_reph_anusvara-deva.alt5" format="1">
  <advance width="222"/>
  <outline>
    <contour>
      <point x="212" y="501"/>
      <point x="226" y="512"/>
      <point x="229" y="528" type="curve" smooth="yes"/>
      <point x="233" y="550"/>
      <point x="221" y="565"/>
      <point x="200" y="565" type="curve" smooth="yes"/>
      <point x="183" y="565"/>
      <point x="170" y="554"/>
      <point x="167" y="537" type="curve" smooth="yes"/>
      <point x="163" y="516"/>
      <point x="175" y="501"/>
      <point x="195" y="501" type="curve" smooth="yes"/>
    </contour>
    <component base="iiMatra_reph-deva.alt5"/>
  </outline>
</glyph>
<glyph name="macron.cap" format="1">
  <advance width="270"/>
  <outline>
    <contour>
      <point x="278" y="615" type="line"/>
      <point x="18" y="615" type="line"/>
      <point x="32" y="683" type="line"/>
      <point x="292" y="683" type="line"/>
    </contour>
    <contour>
      <point x="135" y="550" type="move" name="_top.cap"/>
    </contour>
  </outline>
</glyph>
<glyph name="ovowelsigndeva_uni0930094D_cand" format="1">
  <advance width="227"/>
  <outline>
    <contour>
      <point x="281" y="558"/>
      <point x="291" y="567"/>
      <point x="294" y="579" type="curve" smooth="yes"/>
      <point x="297" y="598"/>
      <point x="285" y="613"/>
      <point x="268" y="613" type="curve" smooth="yes"/>
      <point x="253" y="613"/>
      <point x="243" y="603"/>
      <point x="241" y="592" type="curve" smooth="yes"/>
      <point x="237" y="572"/>
      <point x="249" y="558"/>
      <point x="268" y="558" type="curve" smooth="yes"/>
    </contour>
    <contour>
      <point x="312" y="488"/>
      <point x="344" y="516"/>
      <point x="365" y="555" type="curve"/>
      <point x="328" y="577" type="line"/>
      <point x="312" y="548"/>
      <point x="293" y="530"/>
      <point x="264" y="530" type="curve" smooth="yes"/>
      <point x="240" y="530"/>
      <point x="222" y="542"/>
      <point x="215" y="571" type="curve"/>
      <point x="176" y="560" type="line"/>
      <point x="178" y="521"/>
      <point x="211" y="488"/>
      <point x="261" y="488" type="curve" smooth="yes"/>
    </contour>
    <contour>
      <point x="194" y="598"/>
      <point x="202" y="598"/>
      <point x="211" y="596" type="curve"/>
      <point x="239" y="664" type="line"/>
      <point x="224" y="667"/>
      <point x="208" y="669"/>
      <point x="187" y="669" type="curve" smooth="yes"/>
      <point x="127" y="669"/>
      <point x="86" y="640"/>
      <point x="66" y="603" type="curve"/>
      <point x="38" y="641"/>
      <point x="10" y="659"/>
      <point x="-34" y="659" type="curve" smooth="yes"/>
      <point x="-59" y="659"/>
      <point x="-78" y="653"/>
      <point x="-103" y="645" type="curve"/>
      <point x="-79" y="579" type="line"/>
      <point x="-63" y="584"/>
      <point x="-48" y="586"/>
      <point x="-32" y="586" type="curve" smooth="yes"/>
      <point x="-13" y="586"/>
      <point x="-4" y="576"/>
      <point x="13" y="550" type="curve"/>
      <point x="80" y="437" type="line"/>
      <point x="164" y="437" type="line"/>
      <point x="141" y="471"/>
      <point x="116" y="501"/>
      <point x="116" y="539" type="curve" smooth="yes"/>
      <point x="116" y="570"/>
      <point x="136" y="598"/>
      <point x="186" y="598" type="curve" smooth="yes"/>
    </contour>
    <component base="uni093E"/>
  </outline>
</glyph>
<glyph name="ring.cap" format="1">
  <advance width="211"/>
  <outline>
    <contour>
      <point x="109" y="723"/>
      <point x="92" y="707"/>
      <point x="89" y="690" type="curve" smooth="yes"/>
      <point x="84" y="665"/>
      <point x="93" y="643"/>
      <point x="124" y="643" type="curve" smooth="yes"/>
      <point x="143" y="643"/>
      <point x="160" y="659"/>
      <point x="163" y="676" type="curve" smooth="yes"/>
      <point x="168" y="701"/>
      <point x="158" y="723"/>
      <point x="130" y="723" type="curve" smooth="yes"/>
    </contour>
    <contour>
      <point x="191" y="580"/>
      <point x="109" y="580" type="curve" smooth="yes"/>
      <point x="62" y="580"/>
      <point x="23" y="615"/>
      <point x="23" y="662" type="curve" smooth="yes"/>
      <point x="23" y="723"/>
      <point x="58" y="785"/>
      <point x="145" y="785" type="curve" smooth="yes"/>
      <point x="191" y="785"/>
      <point x="230" y="754"/>
      <point x="230" y="701" type="curve" smooth="yes"/>
      <point x="230" y="641"/>
    </contour>
    <contour>
      <point x="102" y="550" type="move" name="_top.cap"/>
    </contour>
  </outline>
</glyph>
<glyph name="shadeva.MAR" format="1">
  <advance width="541"/>
  <outline>
    <contour>
      <point x="263" y="310"/>
      <point x="225" y="362"/>
      <point x="141" y="362" type="curve" smooth="yes"/>
      <point x="82" y="362"/>
      <point x="40" y="334"/>
      <point x="8" y="290" type="curve"/>
      <point x="67" y="245" type="line"/>
      <point x="84" y="271"/>
      <point x="110" y="290"/>
      <point x="137" y="290" type="curve" smooth="yes"/>
      <point x="171" y="290"/>
      <point x="178" y="271"/>
      <point x="173" y="245" type="curve" smooth="yes"/>
      <point x="161" y="183"/>
      <point x="73" y="157"/>
      <point x="34" y="141" type="curve"/>
      <point x="92" y="88" type="line"/>
      <point x="178" y="124"/>
      <point x="235" y="163"/>
      <point x="248" y="232" type="curve" smooth="yes"/>
    </contour>
    <contour>
      <point x="-27" y="117"/>
      <point x="3" y="78"/>
      <point x="63" y="79" type="curve"/>
      <point x="141" y="-25" type="line"/>
      <point x="208" y="31" type="line"/>
      <point x="42" y="204" type="line"/>
      <point x="-5" y="199"/>
      <point x="-16" y="173"/>
      <point x="-19" y="157" type="curve" smooth="yes"/>
    </contour>
    <contour>
      <point x="99" y="325" type="line"/>
      <point x="181" y="325" type="line"/>
      <point x="207" y="456" type="line"/>
      <point x="125" y="456" type="line"/>
    </contour>
    <contour>
      <point x="-10" y="466" type="line"/>
      <point x="-24" y="396" type="line"/>
      <point x="551" y="396" type="line"/>
      <point x="565" y="466" type="line"/>
    </contour>
    <contour>
      <point x="302" y="0" type="line"/>
      <point x="387" y="0" type="line"/>
      <point x="478" y="466" type="line"/>
      <point x="393" y="466" type="line"/>
    </contour>
    <contour>
      <point x="431" y="447" type="move" name="top"/>
    </contour>
    <contour>
      <point x="345" y="5" type="move" name="bottom"/>
    </contour>
  </outline>
</glyph>
<glyph name="uni0915094D_chadeva" format="1">
  <advance width="1004"/>
  <outline>
    <contour>
      <point x="1014" y="396" type="line"/>
      <point x="1028" y="466" type="line"/>
      <point x="412" y="466" type="line"/>
      <point x="398" y="396" type="line"/>
    </contour>
    <contour>
      <point x="829" y="124"/>
      <point x="747" y="64"/>
      <point x="624" y="64" type="curve" smooth="yes"/>
      <point x="551" y="64"/>
      <point x="509" y="96"/>
      <point x="517" y="140" type="curve" smooth="yes"/>
      <point x="527" y="188"/>
      <point x="571" y="223"/>
      <point x="649" y="219" type="curve"/>
      <point x="651" y="219" type="line"/>
      <point x="663" y="282" type="line"/>
      <point x="651" y="282" type="line" smooth="yes"/>
      <point x="557" y="282"/>
      <point x="560" y="320"/>
      <point x="564" y="337" type="curve" smooth="yes"/>
      <point x="571" y="375"/>
      <point x="596" y="399"/>
      <point x="643" y="407" type="curve"/>
      <point x="686" y="456" type="line"/>
      <point x="650" y="456"/>
      <point x="575" y="446"/>
      <point x="538" y="428" type="curve" smooth="yes"/>
      <point x="503" y="405"/>
      <point x="487" y="376"/>
      <point x="482" y="351" type="curve" smooth="yes"/>
      <point x="472" y="298"/>
      <point x="508" y="261"/>
      <point x="528" y="254" type="curve"/>
      <point x="500" y="243"/>
      <point x="446" y="207"/>
      <point x="434" y="145" type="curve" smooth="yes"/>
      <point x="415" y="47"/>
      <point x="503" y="-14"/>
      <point x="618" y="-14" type="curve" smooth="yes"/>
      <point x="750" y="-14"/>
      <point x="894" y="54"/>
      <point x="920" y="192" type="curve" smooth="yes"/>
      <point x="940" y="295"/>
      <point x="890" y="349"/>
      <point x="825" y="349" type="curve" smooth="yes"/>
      <point x="770" y="349"/>
      <point x="707" y="301"/>
      <point x="690" y="218" type="curve" smooth="yes"/>
      <point x="675" y="140"/>
      <point x="704" y="81"/>
      <point x="711" y="69" type="curve"/>
      <point x="708" y="66"/>
      <point x="793" y="96"/>
      <point x="791" y="99" type="curve" smooth="yes"/>
      <point x="789" y="96"/>
      <point x="753" y="137"/>
      <point x="765" y="201" type="curve" smooth="yes"/>
      <point x="773" y="243"/>
      <point x="794" y="274"/>
      <point x="822" y="274" type="curve" smooth="yes"/>
      <point x="842" y="274"/>
      <point x="855" y="256"/>
      <point x="847" y="214" type="curve" smooth="yes"/>
    </contour>
    <contour>
      <point x="793" y="333" type="line"/>
      <point x="873" y="333" type="line"/>
      <point x="899" y="466" type="line"/>
      <point x="819" y="466" type="line"/>
    </contour>
    <contour>
      <point x="568" y="237" type="line"/>
      <point x="535" y="277"/>
      <point x="488" y="335"/>
      <point x="412" y="335" type="curve" smooth="yes"/>
      <point x="342" y="335"/>
      <point x="293" y="300"/>
      <point x="263" y="282" type="curve"/>
      <point x="267" y="206" type="line"/>
      <point x="284" y="218"/>
      <point x="337" y="265"/>
      <point x="415" y="265" type="curve" smooth="yes"/>
      <point x="456" y="265"/>
      <point x="488" y="247"/>
      <point x="523" y="221" type="curve"/>
    </contour>
    <contour>
      <point x="-10" y="466" type="line"/>
      <point x="-24" y="396" type="line"/>
      <point x="463" y="396" type="line"/>
      <point x="477" y="466" type="line"/>
    </contour>
    <contour>
      <point x="199" y="0" type="line"/>
      <point x="281" y="0" type="line"/>
      <point x="372" y="466" type="line"/>
      <point x="290" y="466" type="line"/>
    </contour>
    <contour>
      <point x="91" y="242"/>
      <point x="138" y="265"/>
      <point x="186" y="265" type="curve" smooth="yes"/>
      <point x="236" y="265"/>
      <point x="256" y="242"/>
      <point x="269" y="225" type="curve"/>
      <point x="295" y="297" type="line"/>
      <point x="271" y="313"/>
      <point x="242" y="340"/>
      <point x="176" y="340" type="curve" smooth="yes"/>
      <point x="95" y="340"/>
      <point x="22" y="293"/>
      <point x="5" y="204" type="curve" smooth="yes"/>
      <point x="-13" y="111"/>
      <point x="46" y="55"/>
      <point x="131" y="55" type="curve" smooth="yes"/>
      <point x="191" y="55"/>
      <point x="229" y="75"/>
      <point x="259" y="93" type="curve"/>
      <point x="254" y="172" type="line"/>
      <point x="236" y="160"/>
      <point x="203" y="129"/>
      <point x="149" y="129" type="curve" smooth="yes"/>
      <point x="105" y="129"/>
      <point x="72" y="146"/>
      <point x="81" y="190" type="curve" smooth="yes"/>
    </contour>
    <contour>
      <point x="855" y="447" type="move" name="top"/>
    </contour>
    <contour>
      <point x="607" y="-45" type="move" name="bottom"/>
    </contour>
  </outline>
</glyph>
<glyph name="uni0915094D_thadeva" format="1">
  <advance width="984"/>
  <outline>
    <contour>
      <point x="539" y="231" type="line"/>
      <point x="500" y="289"/>
      <point x="457" y="317"/>
      <point x="400" y="317" type="curve" smooth="yes"/>
      <point x="362" y="317"/>
      <point x="321" y="306"/>
      <point x="263" y="285" type="curve"/>
      <point x="267" y="207" type="line"/>
      <point x="317" y="230"/>
      <point x="358" y="245"/>
      <point x="393" y="245" type="curve" smooth="yes"/>
      <point x="430" y="245"/>
      <point x="452" y="227"/>
      <point x="476" y="185" type="curve"/>
    </contour>
    <contour>
      <point x="-10" y="466" type="line"/>
      <point x="-24" y="396" type="line"/>
      <point x="503" y="396" type="line"/>
      <point x="517" y="466" type="line"/>
    </contour>
    <contour>
      <point x="199" y="0" type="line"/>
      <point x="281" y="0" type="line"/>
      <point x="372" y="466" type="line"/>
      <point x="290" y="466" type="line"/>
    </contour>
    <contour>
      <point x="91" y="242"/>
      <point x="138" y="265"/>
      <point x="186" y="265" type="curve" smooth="yes"/>
      <point x="236" y="265"/>
      <point x="256" y="242"/>
      <point x="269" y="225" type="curve"/>
      <point x="295" y="297" type="line"/>
      <point x="271" y="313"/>
      <point x="242" y="340"/>
      <point x="176" y="340" type="curve" smooth="yes"/>
      <point x="95" y="340"/>
      <point x="22" y="293"/>
      <point x="5" y="204" type="curve" smooth="yes"/>
      <point x="-13" y="111"/>
      <point x="46" y="55"/>
      <point x="131" y="55" type="curve" smooth="yes"/>
      <point x="191" y="55"/>
      <point x="229" y="75"/>
      <point x="259" y="93" type="curve"/>
      <point x="254" y="172" type="line"/>
      <point x="236" y="160"/>
      <point x="203" y="129"/>
      <point x="149" y="129" type="curve" smooth="yes"/>
      <point x="105" y="129"/>
      <point x="72" y="146"/>
      <point x="81" y="190" type="curve" smooth="yes"/>
    </contour>
    <contour>
      <point x="648" y="405"/>
      <point x="653" y="380"/>
      <point x="648" y="357" type="curve" smooth="yes"/>
      <point x="634" y="283"/>
      <point x="553" y="249"/>
      <point x="492" y="219" type="curve"/>
      <point x="475" y="185" type="line"/>
      <point x="493" y="139"/>
      <point x="557" y="74"/>
      <point x="650" y="74" type="curve" smooth="yes"/>
      <point x="720" y="74"/>
      <point x="779" y="119"/>
      <point x="779" y="119" type="curve"/>
      <point x="799" y="227" type="line"/>
      <point x="764" y="182"/>
      <point x="704" y="156"/>
      <point x="651" y="156" type="curve" smooth="yes"/>
      <point x="621" y="156"/>
      <point x="598" y="165"/>
      <point x="583" y="177" type="curve"/>
      <point x="657" y="226"/>
      <point x="711" y="266"/>
      <point x="725" y="339" type="curve" smooth="yes"/>
      <point x="738" y="407"/>
      <point x="709" y="478"/>
      <point x="628" y="478" type="curve"/>
      <point x="563" y="478"/>
      <point x="517" y="437"/>
      <point x="507" y="386" type="curve"/>
      <point x="496" y="330"/>
      <point x="526" y="303"/>
      <point x="554" y="286" type="curve"/>
      <point x="601" y="339" type="line"/>
      <point x="589" y="348"/>
      <point x="578" y="358"/>
      <point x="580" y="372" type="curve"/>
      <point x="584" y="389"/>
      <point x="597" y="405"/>
      <point x="622" y="405" type="curve"/>
    </contour>
    <contour>
      <point x="788" y="466" type="line"/>
      <point x="774" y="396" type="line"/>
      <point x="994" y="396" type="line"/>
      <point x="1008" y="466" type="line"/>
    </contour>
    <contour>
      <point x="743" y="0" type="line"/>
      <point x="828" y="0" type="line"/>
      <point x="919" y="466" type="line"/>
      <point x="834" y="466" type="line"/>
    </contour>
    <contour>
      <point x="872" y="447" type="move" name="top"/>
    </contour>
    <contour>
      <point x="786" y="5" type="move" name="bottom"/>
    </contour>
  </outline>
</glyph>
<glyph name="uni0916094D0930094D" format="1">
  <advance width="401"/>
  <outline>
    <contour>
      <point x="80" y="424"/>
      <point x="159" y="406"/>
      <point x="141" y="313" type="curve" smooth="yes"/>
      <point x="123" y="220"/>
      <point x="11" y="213"/>
      <point x="12" y="210" type="curve" smooth="yes"/>
      <point x="13" y="213"/>
      <point x="27" y="148"/>
      <point x="30" y="148" type="curve"/>
      <point x="91" y="148"/>
      <point x="195" y="192"/>
      <point x="216" y="297" type="curve" smooth="yes"/>
      <point x="237" y="407"/>
      <point x="160" y="447"/>
      <point x="160" y="447" type="curve"/>
      <point x="79" y="424" type="line"/>
    </contour>
    <contour>
      <point x="118" y="-25" type="line"/>
      <point x="117" y="-25"/>
      <point x="195" y="28"/>
      <point x="195" y="28" type="curve"/>
      <point x="34" y="254" type="line"/>
      <point x="-31" y="205" type="line"/>
    </contour>
    <contour>
      <point x="-10" y="466" type="line"/>
      <point x="-24" y="396" type="line"/>
      <point x="291" y="396" type="line"/>
      <point x="305" y="466" type="line"/>
    </contour>
    <contour>
      <point x="211" y="466" type="line"/>
      <point x="197" y="396" type="line"/>
      <point x="464" y="396" type="line"/>
      <point x="478" y="466" type="line"/>
    </contour>
    <contour>
      <point x="426" y="165"/>
      <point x="397" y="129"/>
      <point x="344" y="129" type="curve" smooth="yes"/>
      <point x="295" y="129"/>
      <point x="285" y="159"/>
      <point x="292" y="194" type="curve" smooth="yes"/>
      <point x="300" y="237"/>
      <point x="329" y="273"/>
      <point x="382" y="273" type="curve" smooth="yes"/>
      <point x="431" y="273"/>
      <point x="441" y="243"/>
      <point x="435" y="208" type="curve" smooth="yes"/>
    </contour>
    <contour>
      <point x="529" y="288"/>
      <point x="479" y="347"/>
      <point x="385" y="347" type="curve" smooth="yes"/>
      <point x="298" y="347"/>
      <point x="232" y="295"/>
      <point x="216" y="208" type="curve" smooth="yes"/>
      <point x="201" y="135"/>
      <point x="228" y="83"/>
      <point x="286" y="64" type="curve"/>
      <point x="217" y="31" type="line"/>
      <point x="260" y="-28" type="line"/>
      <point x="441" y="84" type="line"/>
      <point x="481" y="112"/>
      <point x="501" y="143"/>
      <point x="511" y="194" type="curve"/>
    </contour>
  </outline>
</glyph>
<glyph name="uni0916094D_khadeva" format="1">
  <advance width="1092"/>
  <outline>
    <contour>
      <point x="536" y="424"/>
      <point x="615" y="406"/>
      <point x="597" y="313" type="curve" smooth="yes"/>
      <point x="579" y="220"/>
      <point x="467" y="213"/>
      <point x="468" y="210" type="curve" smooth="yes"/>
      <point x="469" y="213"/>
      <point x="483" y="148"/>
      <point x="486" y="148" type="curve"/>
      <point x="547" y="148"/>
      <point x="651" y="192"/>
      <point x="672" y="297" type="curve" smooth="yes"/>
      <point x="693" y="407"/>
      <point x="616" y="447"/>
      <point x="616" y="447" type="curve"/>
      <point x="535" y="424" type="line"/>
    </contour>
    <contour>
      <point x="574" y="-25" type="line"/>
      <point x="573" y="-25"/>
      <point x="643" y="22"/>
      <point x="643" y="22" type="curve"/>
      <point x="490" y="254" type="line"/>
      <point x="444" y="180" type="line"/>
    </contour>
    <contour>
      <point x="446" y="466" type="line"/>
      <point x="432" y="396" type="line"/>
      <point x="747" y="396" type="line"/>
      <point x="761" y="466" type="line"/>
    </contour>
    <contour>
      <point x="667" y="466" type="line"/>
      <point x="653" y="396" type="line"/>
      <point x="1102" y="396" type="line"/>
      <point x="1116" y="466" type="line"/>
    </contour>
    <contour>
      <point x="761" y="242"/>
      <point x="798" y="265"/>
      <point x="846" y="265" type="curve" smooth="yes"/>
      <point x="906" y="265"/>
      <point x="922" y="222"/>
      <point x="935" y="205" type="curve"/>
      <point x="963" y="281" type="line"/>
      <point x="948" y="304"/>
      <point x="909" y="345"/>
      <point x="843" y="345" type="curve" smooth="yes"/>
      <point x="762" y="345"/>
      <point x="688" y="298"/>
      <point x="670" y="204" type="curve" smooth="yes"/>
      <point x="651" y="106"/>
      <point x="715" y="53"/>
      <point x="800" y="53" type="curve" smooth="yes"/>
      <point x="870" y="53"/>
      <point x="900" y="80"/>
      <point x="930" y="98" type="curve"/>
      <point x="926" y="182" type="line"/>
      <point x="907" y="165"/>
      <point x="873" y="129"/>
      <point x="819" y="129" type="curve" smooth="yes"/>
      <point x="775" y="129"/>
      <point x="742" y="146"/>
      <point x="751" y="190" type="curve" smooth="yes"/>
    </contour>
    <contour>
      <point x="851" y="0" type="line"/>
      <point x="936" y="0" type="line"/>
      <point x="1027" y="466" type="line"/>
      <point x="942" y="466" type="line"/>
    </contour>
    <component base="uni0916094D" xOffset="-7"/>
    <contour>
      <point x="980" y="447" type="move" name="top"/>
    </contour>
    <contour>
      <point x="894" y="5" type="move" name="bottom"/>
    </contour>
  </outline>
</glyph>
<glyph name="uni0916094D_radeva" format="1">
  <advance width="646"/>
  <outline>
    <contour>
      <point x="80" y="424"/>
      <point x="159" y="406"/>
      <point x="141" y="313" type="curve" smooth="yes"/>
      <point x="123" y="220"/>
      <point x="11" y="213"/>
      <point x="12" y="210" type="curve" smooth="yes"/>
      <point x="13" y="213"/>
      <point x="27" y="148"/>
      <point x="30" y="148" type="curve"/>
      <point x="91" y="148"/>
      <point x="195" y="192"/>
      <point x="216" y="297" type="curve" smooth="yes"/>
      <point x="237" y="407"/>
      <point x="160" y="447"/>
      <point x="160" y="447" type="curve"/>
      <point x="79" y="424" type="line"/>
    </contour>
    <contour>
      <point x="118" y="-25" type="line"/>
      <point x="117" y="-25"/>
      <point x="188" y="23"/>
      <point x="188" y="23" type="curve"/>
      <point x="34" y="254" type="line"/>
      <point x="-31" y="205" type="line"/>
    </contour>
    <contour>
      <point x="-10" y="466" type="line"/>
      <point x="-24" y="396" type="line"/>
      <point x="291" y="396" type="line"/>
      <point x="305" y="466" type="line"/>
    </contour>
    <contour>
      <point x="221" y="466" type="line"/>
      <point x="207" y="396" type="line"/>
      <point x="656" y="396" type="line"/>
      <point x="670" y="466" type="line"/>
    </contour>
    <contour>
      <point x="316" y="247"/>
      <point x="353" y="270"/>
      <point x="401" y="270" type="curve" smooth="yes"/>
      <point x="461" y="270"/>
      <point x="477" y="227"/>
      <point x="490" y="210" type="curve"/>
      <point x="517" y="281" type="line"/>
      <point x="502" y="304"/>
      <point x="463" y="345"/>
      <point x="397" y="345" type="curve" smooth="yes"/>
      <point x="316" y="345"/>
      <point x="242" y="298"/>
      <point x="225" y="209" type="curve" smooth="yes"/>
      <point x="207" y="116"/>
      <point x="272" y="64"/>
      <point x="357" y="64" type="curve" smooth="yes"/>
      <point x="427" y="64"/>
      <point x="456" y="91"/>
      <point x="486" y="109" type="curve"/>
      <point x="481" y="187" type="line"/>
      <point x="462" y="170"/>
      <point x="428" y="134"/>
      <point x="374" y="134" type="curve" smooth="yes"/>
      <point x="330" y="134"/>
      <point x="297" y="151"/>
      <point x="306" y="195" type="curve" smooth="yes"/>
    </contour>
    <contour>
      <point x="405" y="0" type="line"/>
      <point x="490" y="0" type="line"/>
      <point x="581" y="466" type="line"/>
      <point x="496" y="466" type="line"/>
    </contour>
    <contour>
      <point x="260" y="-28" type="line"/>
      <point x="503" y="115" type="line"/>
      <point x="491" y="156" type="line"/>
      <point x="218" y="31" type="line"/>
    </contour>
    <contour>
      <point x="536" y="447" type="move" name="top"/>
    </contour>
    <contour>
      <point x="450" y="5" type="move" name="bottom"/>
    </contour>
  </outline>
</glyph>
<glyph name="uni0917094D_bhadeva" format="1">
  <advance width="793"/>
  <outline>
    <contour>
      <point x="-10" y="466" type="line"/>
      <point x="-24" y="396" type="line"/>
      <point x="271" y="396" type="line"/>
      <point x="285" y="466" type="line"/>
    </contour>
    <contour>
      <point x="-2" y="240" type="line"/>
      <point x="-9" y="198" type="line"/>
      <point x="54" y="75" type="line"/>
      <point x="53" y="75"/>
      <point x="113" y="78"/>
      <point x="113" y="78" type="curve"/>
      <point x="145" y="240" type="line"/>
    </contour>
    <contour>
      <point x="48" y="180" type="line"/>
      <point x="133" y="180" type="line"/>
      <point x="189" y="466" type="line"/>
      <point x="104" y="466" type="line"/>
    </contour>
    <contour>
      <point x="552" y="0" type="line"/>
      <point x="637" y="0" type="line"/>
      <point x="728" y="466" type="line"/>
      <point x="643" y="466" type="line"/>
    </contour>
    <contour>
      <point x="441" y="125" type="line"/>
      <point x="477" y="307" type="line" smooth="yes"/>
      <point x="499" y="419"/>
      <point x="470" y="479"/>
      <point x="384" y="479" type="curve" smooth="yes"/>
      <point x="317" y="479"/>
      <point x="267" y="437"/>
      <point x="255" y="376" type="curve" smooth="yes"/>
      <point x="244" y="320"/>
      <point x="272" y="279"/>
      <point x="316" y="253" type="curve"/>
      <point x="362" y="309" type="line"/>
      <point x="340" y="323"/>
      <point x="322" y="338"/>
      <point x="326" y="362" type="curve" smooth="yes"/>
      <point x="331" y="386"/>
      <point x="351" y="403"/>
      <point x="372" y="403" type="curve" smooth="yes"/>
      <point x="416" y="403"/>
      <point x="395" y="332"/>
      <point x="391" y="313" type="curve" smooth="yes"/>
      <point x="354" y="125" type="line"/>
    </contour>
    <contour>
      <point x="562" y="466" type="line"/>
      <point x="548" y="396" type="line"/>
      <point x="803" y="396" type="line"/>
      <point x="817" y="466" type="line"/>
    </contour>
    <contour>
      <point x="423" y="206" type="line"/>
      <point x="409" y="131" type="line"/>
      <point x="638" y="131" type="line"/>
      <point x="652" y="206" type="line"/>
    </contour>
    <contour>
      <point x="304" y="206" type="line"/>
      <point x="297" y="164" type="line"/>
      <point x="369" y="41" type="line"/>
      <point x="368" y="41"/>
      <point x="426" y="44"/>
      <point x="426" y="44" type="curve"/>
      <point x="457" y="206" type="line"/>
    </contour>
    <contour>
      <point x="682" y="447" type="move" name="top"/>
    </contour>
    <contour>
      <point x="596" y="5" type="move" name="bottom"/>
    </contour>
  </outline>
</glyph>
<glyph name="uni0917094D_radeva" format="1">
  <advance width="472"/>
  <outline>
    <contour>
      <point x="-10" y="466" type="line"/>
      <point x="-24" y="396" type="line"/>
      <point x="482" y="396" type="line"/>
      <point x="496" y="466" type="line"/>
    </contour>
    <contour>
      <point x="231" y="0" type="line"/>
      <point x="316" y="0" type="line"/>
      <point x="407" y="466" type="line"/>
      <point x="322" y="466" type="line"/>
    </contour>
    <contour>
      <point x="6" y="285" type="line"/>
      <point x="-1" y="243" type="line"/>
      <point x="64" y="130" type="line"/>
      <point x="63" y="130"/>
      <point x="124" y="133"/>
      <point x="124" y="133" type="curve"/>
      <point x="153" y="285" type="line"/>
    </contour>
    <contour>
      <point x="57" y="225" type="line"/>
      <point x="142" y="225" type="line"/>
      <point x="189" y="466" type="line"/>
      <point x="104" y="466" type="line"/>
    </contour>
    <contour>
      <point x="42" y="-18" type="line"/>
      <point x="272" y="104" type="line"/>
      <point x="286" y="184" type="line"/>
      <point x="7" y="44" type="line"/>
    </contour>
    <contour>
      <point x="362" y="447" type="move" name="top"/>
    </contour>
    <contour>
      <point x="276" y="5" type="move" name="bottom"/>
    </contour>
  </outline>
</glyph>
<glyph name="uni0919094D" format="1">
  <advance width="507"/>
  <outline>
    <contour>
      <point x="206" y="-42"/>
      <point x="260" y="-109"/>
      <point x="289" y="-157" type="curve"/>
      <point x="228" y="-205" type="line"/>
      <point x="179" y="-132"/>
      <point x="125" y="-113"/>
      <point x="46" y="-113" type="curve"/>
      <point x="66" y="-42" type="line"/>
    </contour>
    <component base="ngadeva"/>
  </outline>
</glyph>
<glyph name="uni0919094D_gadeva" format="1">
  <advance width="507"/>
  <outline>
    <contour>
      <point x="258" y="187"/>
      <point x="265" y="174"/>
      <point x="262" y="161" type="curve" smooth="yes"/>
      <point x="257" y="134"/>
      <point x="228" y="122"/>
      <point x="182" y="122" type="curve" smooth="yes"/>
      <point x="120" y="122"/>
      <point x="82" y="140"/>
      <point x="43" y="187" type="curve"/>
      <point x="-10" y="140" type="line"/>
      <point x="32" y="91"/>
      <point x="81" y="52"/>
      <point x="171" y="52" type="curve" smooth="yes"/>
      <point x="265" y="52"/>
      <point x="321" y="81"/>
      <point x="333" y="145" type="curve" smooth="yes"/>
      <point x="346" y="211"/>
      <point x="305" y="254"/>
      <point x="209" y="249" type="curve" smooth="yes"/>
      <point x="160" y="246"/>
      <point x="126" y="240"/>
      <point x="130" y="262" type="curve" smooth="yes"/>
      <point x="134" y="284"/>
      <point x="155" y="292"/>
      <point x="207" y="292" type="curve" smooth="yes"/>
      <point x="267" y="292"/>
      <point x="291" y="289"/>
      <point x="325" y="285" type="curve"/>
      <point x="335" y="292" type="line"/>
      <point x="366" y="456" type="line"/>
      <point x="297" y="456" type="line"/>
      <point x="274" y="354" type="line"/>
      <point x="253" y="356"/>
      <point x="236" y="356"/>
      <point x="201" y="356" type="curve" smooth="yes"/>
      <point x="126" y="356"/>
      <point x="69" y="334"/>
      <point x="58" y="276" type="curve" smooth="yes"/>
      <point x="43" y="202"/>
      <point x="110" y="177"/>
      <point x="200" y="183" type="curve" smooth="yes"/>
    </contour>
    <contour>
      <point x="-10" y="466" type="line"/>
      <point x="-24" y="396" type="line"/>
      <point x="517" y="396" type="line"/>
      <point x="531" y="466" type="line"/>
    </contour>
    <contour>
      <point x="156" y="-190" type="line"/>
      <point x="228" y="-190" type="line"/>
      <point x="286" y="106" type="line"/>
      <point x="214" y="106" type="line"/>
    </contour>
    <contour>
      <point x="15" y="-100" type="line"/>
      <point x="87" y="-100" type="line"/>
      <point x="126" y="106" type="line"/>
      <point x="55" y="106" type="line"/>
    </contour>
    <contour>
      <point x="-17" y="-16" type="line"/>
      <point x="-23" y="-50" type="line"/>
      <point x="41" y="-151" type="line"/>
      <point x="77" y="-151" type="line"/>
      <point x="103" y="-16" type="line"/>
    </contour>
    <component base="nuktadeva" xOffset="567" yOffset="327"/>
    <contour>
      <point x="330" y="447" type="move" name="top"/>
    </contour>
    <contour>
      <point x="194" y="-185" type="move" name="bottom"/>
    </contour>
  </outline>
</glyph>
<glyph name="uni091A094D" format="1">
  <advance width="249"/>
  <outline>
    <contour>
      <point x="-10" y="466" type="line"/>
      <point x="-24" y="396" type="line"/>
      <point x="335" y="396" type="line"/>
      <point x="349" y="466" type="line"/>
    </contour>
    <contour>
      <point x="5" y="306" type="line"/>
      <point x="-9" y="234" type="line"/>
      <point x="248" y="234" type="line"/>
      <point x="262" y="306" type="line"/>
    </contour>
    <contour>
      <point x="101" y="272"/>
      <point x="69" y="258"/>
      <point x="59" y="204" type="curve" smooth="yes"/>
      <point x="41" y="115"/>
      <point x="101" y="61"/>
      <point x="188" y="61" type="curve" smooth="yes"/>
      <point x="292" y="61"/>
      <point x="369" y="122"/>
      <point x="369" y="123" type="curve"/>
      <point x="340" y="204" type="line"/>
      <point x="326" y="188"/>
      <point x="281" y="139"/>
      <point x="201" y="139" type="curve"/>
      <point x="165" y="139"/>
      <point x="133" y="151"/>
      <point x="141" y="190" type="curve" smooth="yes"/>
      <point x="148" y="227"/>
      <point x="172" y="261"/>
      <point x="240" y="269" type="curve"/>
      <point x="131" y="280" type="line"/>
    </contour>
  </outline>
</glyph>
<glyph name="uni091A094D0930094D" format="1">
  <advance width="299"/>
  <outline>
    <contour>
      <point x="-10" y="466" type="line"/>
      <point x="-24" y="396" type="line"/>
      <point x="335" y="396" type="line"/>
      <point x="349" y="466" type="line"/>
    </contour>
    <contour>
      <point x="5" y="306" type="line"/>
      <point x="-9" y="234" type="line"/>
      <point x="248" y="234" type="line"/>
      <point x="262" y="306" type="line"/>
    </contour>
    <contour>
      <point x="340" y="204" type="line"/>
      <point x="326" y="188"/>
      <point x="281" y="139"/>
      <point x="201" y="139" type="curve" smooth="yes"/>
      <point x="165" y="139"/>
      <point x="133" y="151"/>
      <point x="141" y="190" type="curve" smooth="yes"/>
      <point x="148" y="227"/>
      <point x="172" y="261"/>
      <point x="240" y="269" type="curve"/>
      <point x="131" y="280" type="line"/>
      <point x="101" y="272"/>
      <point x="69" y="258"/>
      <point x="59" y="204" type="curve" smooth="yes"/>
      <point x="45" y="133"/>
      <point x="80" y="88"/>
      <point x="136" y="73" type="curve"/>
      <point x="17" y="27" type="line"/>
      <point x="59" y="-32" type="line"/>
      <point x="369" y="125" type="line"/>
    </contour>
  </outline>
</glyph>
<glyph name="uni091C094D_radeva" format="1">
  <advance width="611"/>
  <outline>
    <contour>
      <point x="-10" y="466" type="line"/>
      <point x="-24" y="396" type="line"/>
      <point x="621" y="396" type="line"/>
      <point x="635" y="466" type="line"/>
    </contour>
    <contour>
      <point x="370" y="0" type="line"/>
      <point x="455" y="0" type="line"/>
      <point x="546" y="466" type="line"/>
      <point x="461" y="466" type="line"/>
    </contour>
    <contour>
      <point x="224" y="322" type="line"/>
      <point x="206" y="253" type="line"/>
      <point x="454" y="253" type="line"/>
      <point x="468" y="322" type="line"/>
    </contour>
    <contour>
      <point x="313" y="213"/>
      <point x="311" y="259"/>
      <point x="268" y="291" type="curve" smooth="yes"/>
      <point x="261" y="301"/>
      <point x="243" y="314"/>
      <point x="231" y="322" type="curve"/>
      <point x="191" y="322" type="line"/>
      <point x="181" y="256" type="line"/>
      <point x="232" y="256"/>
      <point x="237" y="230"/>
      <point x="231" y="201" type="curve" smooth="yes"/>
      <point x="224" y="163"/>
      <point x="194" y="137"/>
      <point x="156" y="137" type="curve" smooth="yes"/>
      <point x="106" y="137"/>
      <point x="82" y="180"/>
      <point x="67" y="281" type="curve"/>
      <point x="-7" y="259" type="line"/>
      <point x="8" y="138"/>
      <point x="53" y="58"/>
      <point x="150" y="58" type="curve" smooth="yes"/>
      <point x="225" y="58"/>
      <point x="292" y="101"/>
      <point x="307" y="179" type="curve" smooth="yes"/>
    </contour>
    <contour>
      <point x="238" y="-38" type="line"/>
      <point x="435" y="124" type="line" smooth="yes"/>
      <point x="426" y="185" type="line"/>
      <point x="184" y="11" type="line"/>
    </contour>
    <contour>
      <point x="500" y="447" type="move" name="top"/>
    </contour>
    <contour>
      <point x="414" y="5" type="move" name="bottom"/>
    </contour>
  </outline>
</glyph>
<glyph name="uni091D094D_radeva.NEP" format="1">
  <advance width="728"/>
  <outline>
    <contour>
      <point x="178" y="145" type="line"/>
      <point x="209" y="307" type="line" smooth="yes"/>
      <point x="231" y="419"/>
      <point x="208" y="479"/>
      <point x="122" y="479" type="curve" smooth="yes"/>
      <point x="55" y="479"/>
      <point x="4" y="437"/>
      <point x="-7" y="376" type="curve" smooth="yes"/>
      <point x="-18" y="320"/>
      <point x="10" y="279"/>
      <point x="54" y="253" type="curve"/>
      <point x="100" y="309" type="line"/>
      <point x="77" y="323"/>
      <point x="59" y="338"/>
      <point x="64" y="362" type="curve" smooth="yes"/>
      <point x="69" y="386"/>
      <point x="89" y="403"/>
      <point x="110" y="403" type="curve" smooth="yes"/>
      <point x="154" y="403"/>
      <point x="132" y="332"/>
      <point x="128" y="313" type="curve" smooth="yes"/>
      <point x="96" y="145" type="line"/>
    </contour>
    <contour>
      <point x="164" y="226" type="line"/>
      <point x="151" y="156" type="line"/>
      <point x="390" y="156" type="line"/>
      <point x="403" y="226" type="line"/>
    </contour>
    <contour>
      <point x="55" y="226" type="line"/>
      <point x="48" y="184" type="line"/>
      <point x="112" y="71" type="line"/>
      <point x="111" y="71"/>
      <point x="164" y="74"/>
      <point x="164" y="74" type="curve"/>
      <point x="193" y="226" type="line"/>
    </contour>
    <contour>
      <point x="160" y="-43" type="line"/>
      <point x="380" y="134" type="line"/>
      <point x="350" y="188" type="line"/>
      <point x="116" y="7" type="line"/>
    </contour>
    <contour>
      <point x="299" y="0" type="line"/>
      <point x="381" y="0" type="line"/>
      <point x="472" y="466" type="line"/>
      <point x="390" y="466" type="line"/>
    </contour>
    <contour>
      <point x="299" y="466" type="line"/>
      <point x="285" y="396" type="line"/>
      <point x="738" y="396" type="line"/>
      <point x="752" y="466" type="line"/>
    </contour>
    <contour>
      <point x="649" y="257"/>
      <point x="597" y="309"/>
      <point x="513" y="309" type="curve" smooth="yes"/>
      <point x="443" y="309"/>
      <point x="404" y="274"/>
      <point x="373" y="256" type="curve"/>
      <point x="376" y="172" type="line"/>
      <point x="393" y="184"/>
      <point x="455" y="231"/>
      <point x="503" y="231" type="curve" smooth="yes"/>
      <point x="546" y="231"/>
      <point x="558" y="208"/>
      <point x="552" y="176" type="curve" smooth="yes"/>
      <point x="542" y="126"/>
      <point x="502" y="98"/>
      <point x="477" y="78" type="curve"/>
      <point x="527" y="17" type="line"/>
      <point x="572" y="50"/>
      <point x="618" y="95"/>
      <point x="631" y="161" type="curve" smooth="yes"/>
    </contour>
    <contour>
      <point x="426" y="447" type="move" name="top"/>
    </contour>
    <contour>
      <point x="340" y="5" type="move" name="bottom"/>
    </contour>
  </outline>
</glyph>
<glyph name="uni091E094D_jadeva" format="1">
  <advance width="569"/>
  <outline>
    <contour>
      <point x="233" y="292"/>
      <point x="247" y="283"/>
      <point x="243" y="262" type="curve" smooth="yes"/>
      <point x="236" y="228"/>
      <point x="211" y="212"/>
      <point x="175" y="212" type="curve" smooth="yes"/>
      <point x="130" y="212"/>
      <point x="101" y="241"/>
      <point x="90" y="341" type="curve"/>
      <point x="21" y="326" type="line"/>
      <point x="34" y="181"/>
      <point x="104" y="139"/>
      <point x="169" y="139" type="curve" smooth="yes"/>
      <point x="227" y="139"/>
      <point x="282" y="167"/>
      <point x="304" y="210" type="curve" smooth="yes"/>
      <point x="305" y="217"/>
      <point x="305" y="226"/>
      <point x="305" y="226" type="curve" smooth="yes"/>
      <point x="308" y="235"/>
      <point x="315" y="240"/>
      <point x="315" y="241" type="curve" smooth="yes"/>
      <point x="330" y="321"/>
      <point x="286" y="362"/>
      <point x="211" y="362" type="curve" smooth="yes"/>
      <point x="191" y="362"/>
      <point x="166" y="358"/>
      <point x="147" y="352" type="curve"/>
      <point x="160" y="283" type="line"/>
      <point x="171" y="286"/>
      <point x="187" y="292"/>
      <point x="208" y="292" type="curve" smooth="yes"/>
    </contour>
    <contour>
      <point x="415" y="287" type="line"/>
      <point x="399" y="279"/>
      <point x="375" y="265"/>
      <point x="345" y="265" type="curve" smooth="yes"/>
      <point x="317" y="265"/>
      <point x="303" y="271"/>
      <point x="278" y="286" type="curve"/>
      <point x="257" y="211" type="line"/>
      <point x="284" y="198"/>
      <point x="300" y="188"/>
      <point x="337" y="188" type="curve" smooth="yes"/>
      <point x="362" y="188"/>
      <point x="394" y="196"/>
      <point x="411" y="205" type="curve"/>
    </contour>
    <contour>
      <point x="-10" y="466" type="line"/>
      <point x="-24" y="396" type="line"/>
      <point x="579" y="396" type="line"/>
      <point x="593" y="466" type="line"/>
    </contour>
    <contour>
      <point x="306" y="-137" type="line"/>
      <point x="388" y="-137" type="line"/>
      <point x="506" y="466" type="line"/>
      <point x="424" y="466" type="line"/>
    </contour>
    <contour>
      <point x="143" y="93" type="line"/>
      <point x="151" y="27" type="line"/>
      <point x="397" y="92" type="line"/>
      <point x="390" y="160" type="line"/>
    </contour>
    <contour>
      <point x="277" y="78"/>
      <point x="218" y="93" type="curve"/>
      <point x="145" y="80" type="line"/>
      <point x="151" y="27" type="line"/>
      <point x="153" y="26" type="line"/>
      <point x="209" y="40"/>
      <point x="218" y="21"/>
      <point x="215" y="3" type="curve" smooth="yes"/>
      <point x="209" y="-27"/>
      <point x="179" y="-40"/>
      <point x="151" y="-40" type="curve" smooth="yes"/>
      <point x="101" y="-40"/>
      <point x="76" y="8"/>
      <point x="55" y="55" type="curve"/>
      <point x="-12" y="22" type="line"/>
      <point x="19" y="-52"/>
      <point x="64" y="-114"/>
      <point x="149" y="-114" type="curve" smooth="yes"/>
      <point x="208" y="-114"/>
      <point x="275" y="-82"/>
      <point x="289" y="-12" type="curve" smooth="yes"/>
      <point x="298" y="33"/>
    </contour>
    <contour>
      <point x="462" y="447" type="move" name="top"/>
    </contour>
    <contour>
      <point x="350" y="-134" type="move" name="bottom"/>
    </contour>
  </outline>
</glyph>
<glyph name="uni091F094D" format="1">
  <advance width="411"/>
  <outline>
    <contour>
      <point x="186" y="-42"/>
      <point x="240" y="-109"/>
      <point x="269" y="-157" type="curve"/>
      <point x="208" y="-205" type="line"/>
      <point x="159" y="-132"/>
      <point x="105" y="-113"/>
      <point x="26" y="-113" type="curve"/>
      <point x="46" y="-42" type="line"/>
    </contour>
    <component base="ttadeva"/>
  </outline>
</glyph>
<glyph name="uni091F094D_tthadeva" format="1">
  <advance width="433"/>
  <outline>
    <contour>
      <point x="-11" y="466" type="line"/>
      <point x="-24" y="396" type="line"/>
      <point x="444" y="396" type="line"/>
      <point x="457" y="466" type="line"/>
    </contour>
    <contour>
      <point x="262" y="177"/>
      <point x="219" y="154"/>
      <point x="159" y="154" type="curve" smooth="yes"/>
      <point x="103" y="154"/>
      <point x="77" y="172"/>
      <point x="85" y="211" type="curve" smooth="yes"/>
      <point x="93" y="255"/>
      <point x="130" y="277"/>
      <point x="200" y="277" type="curve" smooth="yes"/>
      <point x="235" y="277"/>
      <point x="269" y="272"/>
      <point x="304" y="268" type="curve"/>
      <point x="312" y="275" type="line"/>
      <point x="347" y="461" type="line"/>
      <point x="271" y="461" type="line"/>
      <point x="246" y="347" type="line"/>
      <point x="220" y="348"/>
      <point x="212" y="349"/>
      <point x="196" y="349" type="curve" smooth="yes"/>
      <point x="84" y="349"/>
      <point x="22" y="301"/>
      <point x="8" y="227" type="curve" smooth="yes"/>
      <point x="-12" y="124"/>
      <point x="54" y="78"/>
      <point x="157" y="78" type="curve" smooth="yes"/>
      <point x="223" y="78"/>
      <point x="288" y="106"/>
      <point x="316" y="121" type="curve"/>
      <point x="290" y="192" type="line"/>
    </contour>
    <contour>
      <point x="315" y="-53"/>
      <point x="271" y="7"/>
      <point x="236" y="42" type="curve"/>
      <point x="174" y="9" type="line"/>
      <point x="198" y="-19"/>
      <point x="232" y="-66"/>
      <point x="225" y="-102" type="curve"/>
      <point x="215" y="-157"/>
      <point x="174" y="-165"/>
      <point x="104" y="-165" type="curve" smooth="yes"/>
      <point x="48" y="-165"/>
      <point x="23" y="-147"/>
      <point x="30" y="-108" type="curve" smooth="yes"/>
      <point x="39" y="-64"/>
      <point x="75" y="-42"/>
      <point x="143" y="-42" type="curve"/>
      <point x="238" y="-42" type="line"/>
      <point x="246" y="-44" type="line"/>
      <point x="282" y="142" type="line"/>
      <point x="206" y="142" type="line"/>
      <point x="181" y="28" type="line"/>
      <point x="155" y="29"/>
      <point x="157" y="30"/>
      <point x="141" y="30" type="curve" smooth="yes"/>
      <point x="29" y="30"/>
      <point x="-32" y="-18"/>
      <point x="-47" y="-92" type="curve" smooth="yes"/>
      <point x="-67" y="-195"/>
      <point x="-1" y="-241"/>
      <point x="94" y="-241" type="curve" smooth="yes"/>
      <point x="228" y="-241"/>
      <point x="283" y="-215"/>
      <point x="302" y="-120" type="curve"/>
    </contour>
    <contour>
      <point x="308" y="447" type="move" name="top"/>
    </contour>
    <contour>
      <point x="103" y="-270" type="move" name="bottom"/>
    </contour>
  </outline>
</glyph>
<glyph name="uni0920094D" format="1">
  <advance width="472"/>
  <outline>
    <contour>
      <point x="196" y="-42"/>
      <point x="250" y="-109"/>
      <point x="279" y="-157" type="curve"/>
      <point x="218" y="-205" type="line"/>
      <point x="169" y="-132"/>
      <point x="115" y="-113"/>
      <point x="36" y="-113" type="curve"/>
      <point x="56" y="-42" type="line"/>
    </contour>
    <component base="tthadeva"/>
  </outline>
</glyph>
<glyph name="uni0921094D_ddadeva" format="1">
  <advance width="457"/>
  <outline>
    <contour>
      <point x="268" y="187"/>
      <point x="275" y="174"/>
      <point x="272" y="161" type="curve" smooth="yes"/>
      <point x="267" y="134"/>
      <point x="238" y="122"/>
      <point x="192" y="122" type="curve" smooth="yes"/>
      <point x="130" y="122"/>
      <point x="92" y="140"/>
      <point x="53" y="187" type="curve"/>
      <point x="0" y="140" type="line"/>
      <point x="42" y="91"/>
      <point x="91" y="52"/>
      <point x="181" y="52" type="curve" smooth="yes"/>
      <point x="275" y="52"/>
      <point x="331" y="81"/>
      <point x="343" y="145" type="curve" smooth="yes"/>
      <point x="356" y="211"/>
      <point x="315" y="254"/>
      <point x="219" y="249" type="curve" smooth="yes"/>
      <point x="170" y="246"/>
      <point x="136" y="240"/>
      <point x="140" y="262" type="curve" smooth="yes"/>
      <point x="144" y="284"/>
      <point x="165" y="292"/>
      <point x="217" y="292" type="curve" smooth="yes"/>
      <point x="277" y="292"/>
      <point x="301" y="289"/>
      <point x="335" y="285" type="curve"/>
      <point x="345" y="292" type="line"/>
      <point x="376" y="456" type="line"/>
      <point x="307" y="456" type="line"/>
      <point x="284" y="354" type="line"/>
      <point x="263" y="356"/>
      <point x="246" y="356"/>
      <point x="211" y="356" type="curve" smooth="yes"/>
      <point x="136" y="356"/>
      <point x="79" y="334"/>
      <point x="68" y="276" type="curve" smooth="yes"/>
      <point x="53" y="202"/>
      <point x="120" y="177"/>
      <point x="210" y="183" type="curve" smooth="yes"/>
    </contour>
    <contour>
      <point x="0" y="466" type="line"/>
      <point x="-24" y="396" type="line"/>
      <point x="467" y="396" type="line"/>
      <point x="481" y="466" type="line"/>
    </contour>
    <contour>
      <point x="196" y="-159"/>
      <point x="203" y="-172"/>
      <point x="200" y="-185" type="curve" smooth="yes"/>
      <point x="195" y="-212"/>
      <point x="166" y="-223"/>
      <point x="120" y="-223" type="curve" smooth="yes"/>
      <point x="58" y="-223"/>
      <point x="20" y="-206"/>
      <point x="-19" y="-159" type="curve"/>
      <point x="-72" y="-206" type="line"/>
      <point x="-30" y="-255"/>
      <point x="19" y="-294"/>
      <point x="109" y="-294" type="curve" smooth="yes"/>
      <point x="203" y="-294"/>
      <point x="259" y="-265"/>
      <point x="271" y="-201" type="curve" smooth="yes"/>
      <point x="284" y="-135"/>
      <point x="243" y="-92"/>
      <point x="147" y="-97" type="curve" smooth="yes"/>
      <point x="98" y="-100"/>
      <point x="63" y="-106"/>
      <point x="68" y="-84" type="curve" smooth="yes"/>
      <point x="72" y="-62"/>
      <point x="93" y="-54"/>
      <point x="145" y="-54" type="curve" smooth="yes"/>
      <point x="205" y="-54"/>
      <point x="229" y="-57"/>
      <point x="263" y="-61" type="curve"/>
      <point x="273" y="-54" type="line"/>
      <point x="303" y="110" type="line"/>
      <point x="234" y="110" type="line"/>
      <point x="212" y="8" type="line"/>
      <point x="191" y="10"/>
      <point x="174" y="10"/>
      <point x="139" y="10" type="curve" smooth="yes"/>
      <point x="64" y="10"/>
      <point x="7" y="-12"/>
      <point x="-5" y="-70" type="curve" smooth="yes"/>
      <point x="-19" y="-144"/>
      <point x="48" y="-169"/>
      <point x="137" y="-163" type="curve" smooth="yes"/>
    </contour>
    <contour>
      <point x="340" y="447" type="move" name="top"/>
    </contour>
    <contour>
      <point x="113" y="-325" type="move" name="bottom"/>
    </contour>
  </outline>
</glyph>
<glyph name="uni0922094D092F" format="1">
  <advance width="855"/>
  <outline>
    <contour>
      <point x="-10" y="466" type="line"/>
      <point x="-24" y="396" type="line"/>
      <point x="452" y="396" type="line"/>
      <point x="466" y="466" type="line"/>
    </contour>
    <contour>
      <point x="329" y="162"/>
      <point x="296" y="205"/>
      <point x="232" y="205" type="curve" smooth="yes"/>
      <point x="185" y="205"/>
      <point x="135" y="175"/>
      <point x="124" y="118" type="curve" smooth="yes"/>
      <point x="113" y="60"/>
      <point x="133" y="34"/>
      <point x="139" y="23" type="curve"/>
      <point x="137" y="21"/>
      <point x="236" y="32"/>
      <point x="234" y="33" type="curve" smooth="yes"/>
      <point x="230" y="32"/>
      <point x="181" y="47"/>
      <point x="189" y="89" type="curve" smooth="yes"/>
      <point x="194" y="113"/>
      <point x="206" y="133"/>
      <point x="228" y="133" type="curve" smooth="yes"/>
      <point x="240" y="133"/>
      <point x="247" y="127"/>
      <point x="244" y="113" type="curve" smooth="yes"/>
      <point x="240" y="90"/>
      <point x="212" y="67"/>
      <point x="155" y="66" type="curve" smooth="yes"/>
      <point x="87" y="64"/>
      <point x="64" y="109"/>
      <point x="73" y="154" type="curve" smooth="yes"/>
      <point x="84" y="212"/>
      <point x="132" y="251"/>
      <point x="188" y="251" type="curve"/>
      <point x="302" y="251" type="line"/>
      <point x="344" y="466" type="line"/>
      <point x="268" y="466" type="line"/>
      <point x="240" y="323" type="line"/>
      <point x="191" y="323" type="line"/>
      <point x="82" y="323"/>
      <point x="12" y="257"/>
      <point x="-4" y="174" type="curve" smooth="yes"/>
      <point x="-24" y="70"/>
      <point x="40" y="-5"/>
      <point x="147" y="-5" type="curve" smooth="yes"/>
      <point x="216" y="-5"/>
      <point x="301" y="22"/>
      <point x="318" y="107" type="curve" smooth="yes"/>
    </contour>
    <contour>
      <point x="387" y="466" type="line"/>
      <point x="373" y="396" type="line"/>
      <point x="865" y="396" type="line"/>
      <point x="879" y="466" type="line"/>
    </contour>
    <contour>
      <point x="652" y="140"/>
      <point x="592" y="114"/>
      <point x="539" y="114" type="curve" smooth="yes"/>
      <point x="509" y="114"/>
      <point x="491" y="123"/>
      <point x="476" y="135" type="curve"/>
      <point x="512" y="155"/>
      <point x="538" y="175"/>
      <point x="545" y="212" type="curve"/>
      <point x="559" y="283"/>
      <point x="494" y="321"/>
      <point x="387" y="321" type="curve"/>
      <point x="270" y="321" type="line"/>
      <point x="193" y="251" type="line"/>
      <point x="392" y="251" type="line"/>
      <point x="447" y="251"/>
      <point x="467" y="239"/>
      <point x="464" y="224" type="curve" smooth="yes"/>
      <point x="459" y="201"/>
      <point x="422" y="189"/>
      <point x="379" y="178" type="curve"/>
      <point x="364" y="148" type="line"/>
      <point x="380" y="94"/>
      <point x="446" y="36"/>
      <point x="539" y="36" type="curve" smooth="yes"/>
      <point x="608" y="36"/>
      <point x="668" y="81"/>
      <point x="668" y="81" type="curve"/>
      <point x="687" y="185" type="line"/>
    </contour>
    <contour>
      <point x="614" y="0" type="line"/>
      <point x="699" y="0" type="line"/>
      <point x="790" y="466" type="line"/>
      <point x="705" y="466" type="line"/>
    </contour>
    <contour>
      <point x="745" y="447" type="move" name="top"/>
    </contour>
    <contour>
      <point x="659" y="5" type="move" name="bottom"/>
    </contour>
  </outline>
</glyph>
<glyph name="uni0924094D0924094D" format="1">
  <advance width="280"/>
  <outline>
    <contour>
      <point x="-10" y="466" type="line"/>
      <point x="-24" y="396" type="line"/>
      <point x="309" y="396" type="line"/>
      <point x="323" y="466" type="line"/>
    </contour>
    <contour>
      <point x="360" y="305"/>
      <point x="307" y="305"/>
      <point x="221" y="305" type="curve" smooth="yes"/>
      <point x="125" y="305"/>
      <point x="68" y="275"/>
      <point x="51" y="192" type="curve" smooth="yes"/>
      <point x="38" y="121"/>
      <point x="70" y="41"/>
      <point x="94" y="-19" type="curve"/>
      <point x="169" y="16" type="line"/>
      <point x="151" y="65"/>
      <point x="124" y="129"/>
      <point x="132" y="170" type="curve" smooth="yes"/>
      <point x="141" y="216"/>
      <point x="170" y="232"/>
      <point x="240" y="232" type="curve" smooth="yes"/>
      <point x="349" y="232" type="line"/>
      <point x="360" y="305" type="line"/>
    </contour>
    <contour>
      <point x="-7" y="236" type="line"/>
      <point x="335" y="236" type="line"/>
      <point x="348" y="305" type="line"/>
      <point x="6" y="302" type="line"/>
    </contour>
  </outline>
</glyph>
<glyph name="uni0924094D_sadeva" format="1">
  <advance width="793"/>
  <outline>
    <contour>
      <point x="226" y="466" type="line"/>
      <point x="212" y="396" type="line"/>
      <point x="803" y="396" type="line"/>
      <point x="817" y="466" type="line"/>
    </contour>
    <contour>
      <point x="552" y="0" type="line"/>
      <point x="637" y="0" type="line"/>
      <point x="728" y="466" type="line"/>
      <point x="643" y="466" type="line"/>
    </contour>
    <contour>
      <point x="633" y="250"/>
      <point x="583" y="223"/>
      <point x="509" y="223" type="curve" smooth="yes"/>
      <point x="444" y="223"/>
      <point x="436" y="232"/>
      <point x="403" y="247" type="curve"/>
      <point x="336" y="191" type="line"/>
      <point x="389" y="161"/>
      <point x="449" y="148"/>
      <point x="493" y="148" type="curve" smooth="yes"/>
      <point x="557" y="148"/>
      <point x="619" y="170"/>
      <point x="619" y="170" type="curve"/>
      <point x="633" y="250" type="line"/>
    </contour>
    <contour>
      <point x="347" y="424"/>
      <point x="414" y="406"/>
      <point x="396" y="313" type="curve" smooth="yes"/>
      <point x="378" y="220"/>
      <point x="268" y="213"/>
      <point x="269" y="210" type="curve" smooth="yes"/>
      <point x="270" y="213"/>
      <point x="284" y="147"/>
      <point x="287" y="147" type="curve"/>
      <point x="348" y="147"/>
      <point x="452" y="192"/>
      <point x="473" y="297" type="curve" smooth="yes"/>
      <point x="494" y="407"/>
      <point x="432" y="447"/>
      <point x="432" y="447" type="curve"/>
      <point x="346" y="424" type="line"/>
    </contour>
    <contour>
      <point x="348" y="-20" type="line"/>
      <point x="347" y="-20"/>
      <point x="430" y="30"/>
      <point x="430" y="30" type="curve"/>
      <point x="260" y="305" type="line"/>
      <point x="190" y="256" type="line"/>
    </contour>
    <contour>
      <point x="259" y="305"/>
      <point x="248" y="305"/>
      <point x="168" y="305" type="curve" smooth="yes"/>
      <point x="72" y="305"/>
      <point x="15" y="275"/>
      <point x="-2" y="192" type="curve" smooth="yes"/>
      <point x="-15" y="121"/>
      <point x="17" y="41"/>
      <point x="41" y="-19" type="curve"/>
      <point x="115" y="16" type="line"/>
      <point x="97" y="65"/>
      <point x="71" y="129"/>
      <point x="79" y="170" type="curve" smooth="yes"/>
      <point x="87" y="212"/>
      <point x="116" y="227"/>
      <point x="186" y="227" type="curve" smooth="yes"/>
      <point x="247" y="227" type="line"/>
      <point x="259" y="305" type="line"/>
    </contour>
    <contour>
      <point x="-10" y="466" type="line"/>
      <point x="-24" y="396" type="line"/>
      <point x="250" y="396" type="line"/>
      <point x="264" y="466" type="line"/>
    </contour>
    <contour>
      <point x="682" y="447" type="move" name="top"/>
    </contour>
    <contour>
      <point x="596" y="5" type="move" name="bottom"/>
    </contour>
  </outline>
</glyph>
